<?xml version="1.0" encoding="utf-8" standalone="no"?>
<!DOCTYPE svg PUBLIC "-//W3C//DTD SVG 1.1//EN"
  "http://www.w3.org/Graphics/SVG/1.1/DTD/svg11.dtd">
<svg height="538.7695pt" version="1.1" viewBox="0 0 1131.794659 538.7695" width="1131.794659pt" xmlns="http://www.w3.org/2000/svg" xmlns:xlink="http://www.w3.org/1999/xlink">
 <metadata>
  <rdf:RDF xmlns:cc="http://creativecommons.org/ns#" xmlns:dc="http://purl.org/dc/elements/1.1/" xmlns:rdf="http://www.w3.org/1999/02/22-rdf-syntax-ns#">
   <cc:Work>
    <dc:type rdf:resource="http://purl.org/dc/dcmitype/StillImage"/>
    <dc:date>2021-11-08T22:30:35.366816</dc:date>
    <dc:format>image/svg+xml</dc:format>
    <dc:creator>
     <cc:Agent>
      <dc:title>Matplotlib v3.4.3, https://matplotlib.org/</dc:title>
     </cc:Agent>
    </dc:creator>
   </cc:Work>
  </rdf:RDF>
 </metadata>
 <defs>
  <style type="text/css">*{stroke-linecap:butt;stroke-linejoin:round;}</style>
 </defs>
 <g id="figure_1">
  <g id="patch_1">
   <path d="M 0 538.7695 
L 1131.794659 538.7695 
L 1131.794659 0 
L 0 0 
z
" style="fill:#ffffff;"/>
  </g>
  <g id="axes_1">
   <g id="patch_2">
    <path d="M 81.9325 471.411 
L 1108.6525 471.411 
L 1108.6525 27.891 
L 81.9325 27.891 
z
" style="fill:#ffffff;"/>
   </g>
   <g id="matplotlib.axis_1">
    <g id="xtick_1">
     <g id="line2d_1">
      <path clip-path="url(#p3bbc978881)" d="M 128.601591 471.411 
L 128.601591 27.891 
" style="fill:none;stroke:#b0b0b0;stroke-linecap:square;stroke-width:0.8;"/>
     </g>
     <g id="line2d_2">
      <defs>
       <path d="M 0 0 
L 0 3.5 
" id="m1b07adcf34" style="stroke:#000000;stroke-width:0.8;"/>
      </defs>
      <g>
       <use style="stroke:#000000;stroke-width:0.8;" x="128.601591" xlink:href="#m1b07adcf34" y="471.411"/>
      </g>
     </g>
     <g id="text_1">
      <!-- 0.001 -->
      <g transform="translate(104.520341 490.6535)scale(0.16 -0.16)">
       <defs>
        <path d="M 1509 2344 
Q 1509 2516 1629 2641 
Q 1750 2766 1919 2766 
Q 2094 2766 2219 2641 
Q 2344 2516 2344 2344 
Q 2344 2169 2220 2047 
Q 2097 1925 1919 1925 
Q 1744 1925 1626 2044 
Q 1509 2163 1509 2344 
z
M 1925 4250 
Q 1484 4250 1267 3775 
Q 1050 3300 1050 2328 
Q 1050 1359 1267 884 
Q 1484 409 1925 409 
Q 2369 409 2586 884 
Q 2803 1359 2803 2328 
Q 2803 3300 2586 3775 
Q 2369 4250 1925 4250 
z
M 1925 4750 
Q 2672 4750 3055 4137 
Q 3438 3525 3438 2328 
Q 3438 1134 3055 521 
Q 2672 -91 1925 -91 
Q 1178 -91 797 521 
Q 416 1134 416 2328 
Q 416 3525 797 4137 
Q 1178 4750 1925 4750 
z
" id="DejaVuSansMono-30" transform="scale(0.015625)"/>
        <path d="M 1528 953 
L 2316 953 
L 2316 0 
L 1528 0 
L 1528 953 
z
" id="DejaVuSansMono-2e" transform="scale(0.015625)"/>
        <path d="M 844 531 
L 1825 531 
L 1825 4097 
L 769 3859 
L 769 4434 
L 1819 4666 
L 2450 4666 
L 2450 531 
L 3419 531 
L 3419 0 
L 844 0 
L 844 531 
z
" id="DejaVuSansMono-31" transform="scale(0.015625)"/>
       </defs>
       <use xlink:href="#DejaVuSansMono-30"/>
       <use x="60.205078" xlink:href="#DejaVuSansMono-2e"/>
       <use x="120.410156" xlink:href="#DejaVuSansMono-30"/>
       <use x="180.615234" xlink:href="#DejaVuSansMono-30"/>
       <use x="240.820312" xlink:href="#DejaVuSansMono-31"/>
      </g>
      <!-- 0 packets -->
      <g transform="translate(85.255341 508.672)scale(0.16 -0.16)">
       <defs>
        <path id="DejaVuSansMono-20" transform="scale(0.015625)"/>
        <path d="M 1172 441 
L 1172 -1331 
L 594 -1331 
L 594 3500 
L 1172 3500 
L 1172 3053 
Q 1316 3313 1555 3448 
Q 1794 3584 2106 3584 
Q 2741 3584 3102 3093 
Q 3463 2603 3463 1734 
Q 3463 881 3100 395 
Q 2738 -91 2106 -91 
Q 1788 -91 1548 45 
Q 1309 181 1172 441 
z
M 2859 1747 
Q 2859 2416 2648 2756 
Q 2438 3097 2022 3097 
Q 1603 3097 1387 2755 
Q 1172 2413 1172 1747 
Q 1172 1084 1387 740 
Q 1603 397 2022 397 
Q 2438 397 2648 737 
Q 2859 1078 2859 1747 
z
" id="DejaVuSansMono-70" transform="scale(0.015625)"/>
        <path d="M 2194 1759 
L 2003 1759 
Q 1500 1759 1245 1582 
Q 991 1406 991 1056 
Q 991 741 1181 566 
Q 1372 391 1709 391 
Q 2184 391 2456 720 
Q 2728 1050 2731 1631 
L 2731 1759 
L 2194 1759 
z
M 3309 1997 
L 3309 0 
L 2731 0 
L 2731 519 
Q 2547 206 2267 57 
Q 1988 -91 1588 -91 
Q 1053 -91 734 211 
Q 416 513 416 1019 
Q 416 1603 808 1906 
Q 1200 2209 1959 2209 
L 2731 2209 
L 2731 2300 
Q 2728 2719 2518 2908 
Q 2309 3097 1850 3097 
Q 1556 3097 1256 3012 
Q 956 2928 672 2766 
L 672 3341 
Q 991 3463 1283 3523 
Q 1575 3584 1850 3584 
Q 2284 3584 2592 3456 
Q 2900 3328 3091 3072 
Q 3209 2916 3259 2686 
Q 3309 2456 3309 1997 
z
" id="DejaVuSansMono-61" transform="scale(0.015625)"/>
        <path d="M 3316 178 
Q 3084 44 2839 -23 
Q 2594 -91 2338 -91 
Q 1525 -91 1067 396 
Q 609 884 609 1747 
Q 609 2609 1067 3096 
Q 1525 3584 2338 3584 
Q 2591 3584 2831 3518 
Q 3072 3453 3316 3316 
L 3316 2713 
Q 3088 2916 2858 3006 
Q 2628 3097 2338 3097 
Q 1797 3097 1506 2747 
Q 1216 2397 1216 1747 
Q 1216 1100 1508 748 
Q 1800 397 2338 397 
Q 2638 397 2875 489 
Q 3113 581 3316 775 
L 3316 178 
z
" id="DejaVuSansMono-63" transform="scale(0.015625)"/>
        <path d="M 738 4863 
L 1331 4863 
L 1331 2047 
L 2841 3500 
L 3541 3500 
L 2163 2181 
L 3756 0 
L 3053 0 
L 1759 1806 
L 1331 1403 
L 1331 0 
L 738 0 
L 738 4863 
z
" id="DejaVuSansMono-6b" transform="scale(0.015625)"/>
        <path d="M 3475 1894 
L 3475 1613 
L 984 1613 
L 984 1594 
Q 984 1022 1282 709 
Q 1581 397 2125 397 
Q 2400 397 2700 484 
Q 3000 572 3341 750 
L 3341 178 
Q 3013 44 2708 -23 
Q 2403 -91 2119 -91 
Q 1303 -91 843 398 
Q 384 888 384 1747 
Q 384 2584 834 3084 
Q 1284 3584 2034 3584 
Q 2703 3584 3089 3131 
Q 3475 2678 3475 1894 
z
M 2900 2063 
Q 2888 2569 2661 2833 
Q 2434 3097 2009 3097 
Q 1594 3097 1325 2822 
Q 1056 2547 1006 2059 
L 2900 2063 
z
" id="DejaVuSansMono-65" transform="scale(0.015625)"/>
        <path d="M 1919 4494 
L 1919 3500 
L 3225 3500 
L 3225 3053 
L 1919 3053 
L 1919 1153 
Q 1919 766 2066 612 
Q 2213 459 2578 459 
L 3225 459 
L 3225 0 
L 2522 0 
Q 1875 0 1609 259 
Q 1344 519 1344 1153 
L 1344 3053 
L 409 3053 
L 409 3500 
L 1344 3500 
L 1344 4494 
L 1919 4494 
z
" id="DejaVuSansMono-74" transform="scale(0.015625)"/>
        <path d="M 3041 3378 
L 3041 2816 
Q 2794 2959 2544 3031 
Q 2294 3103 2034 3103 
Q 1644 3103 1451 2976 
Q 1259 2850 1259 2591 
Q 1259 2356 1403 2240 
Q 1547 2125 2119 2016 
L 2350 1972 
Q 2778 1891 2998 1647 
Q 3219 1403 3219 1013 
Q 3219 494 2850 201 
Q 2481 -91 1825 -91 
Q 1566 -91 1281 -36 
Q 997 19 666 128 
L 666 722 
Q 988 556 1281 473 
Q 1575 391 1838 391 
Q 2219 391 2428 545 
Q 2638 700 2638 978 
Q 2638 1378 1872 1531 
L 1847 1538 
L 1631 1581 
Q 1134 1678 906 1908 
Q 678 2138 678 2534 
Q 678 3038 1018 3311 
Q 1359 3584 1991 3584 
Q 2272 3584 2531 3532 
Q 2791 3481 3041 3378 
z
" id="DejaVuSansMono-73" transform="scale(0.015625)"/>
       </defs>
       <use xlink:href="#DejaVuSansMono-30"/>
       <use x="60.205078" xlink:href="#DejaVuSansMono-20"/>
       <use x="120.410156" xlink:href="#DejaVuSansMono-70"/>
       <use x="180.615234" xlink:href="#DejaVuSansMono-61"/>
       <use x="240.820312" xlink:href="#DejaVuSansMono-63"/>
       <use x="301.025391" xlink:href="#DejaVuSansMono-6b"/>
       <use x="361.230469" xlink:href="#DejaVuSansMono-65"/>
       <use x="421.435547" xlink:href="#DejaVuSansMono-74"/>
       <use x="481.640625" xlink:href="#DejaVuSansMono-73"/>
      </g>
     </g>
    </g>
    <g id="xtick_2">
     <g id="line2d_3">
      <path clip-path="url(#p3bbc978881)" d="M 315.277955 471.411 
L 315.277955 27.891 
" style="fill:none;stroke:#b0b0b0;stroke-linecap:square;stroke-width:0.8;"/>
     </g>
     <g id="line2d_4">
      <g>
       <use style="stroke:#000000;stroke-width:0.8;" x="315.277955" xlink:href="#m1b07adcf34" y="471.411"/>
      </g>
     </g>
     <g id="text_2">
      <!-- 0.01 -->
      <g transform="translate(296.012955 490.6535)scale(0.16 -0.16)">
       <use xlink:href="#DejaVuSansMono-30"/>
       <use x="60.205078" xlink:href="#DejaVuSansMono-2e"/>
       <use x="120.410156" xlink:href="#DejaVuSansMono-30"/>
       <use x="180.615234" xlink:href="#DejaVuSansMono-31"/>
      </g>
      <!-- 1 packet -->
      <g transform="translate(276.747955 508.672)scale(0.16 -0.16)">
       <use xlink:href="#DejaVuSansMono-31"/>
       <use x="60.205078" xlink:href="#DejaVuSansMono-20"/>
       <use x="120.410156" xlink:href="#DejaVuSansMono-70"/>
       <use x="180.615234" xlink:href="#DejaVuSansMono-61"/>
       <use x="240.820312" xlink:href="#DejaVuSansMono-63"/>
       <use x="301.025391" xlink:href="#DejaVuSansMono-6b"/>
       <use x="361.230469" xlink:href="#DejaVuSansMono-65"/>
       <use x="421.435547" xlink:href="#DejaVuSansMono-74"/>
      </g>
     </g>
    </g>
    <g id="xtick_3">
     <g id="line2d_5">
      <path clip-path="url(#p3bbc978881)" d="M 501.954318 471.411 
L 501.954318 27.891 
" style="fill:none;stroke:#b0b0b0;stroke-linecap:square;stroke-width:0.8;"/>
     </g>
     <g id="line2d_6">
      <g>
       <use style="stroke:#000000;stroke-width:0.8;" x="501.954318" xlink:href="#m1b07adcf34" y="471.411"/>
      </g>
     </g>
     <g id="text_3">
      <!-- 0.1 -->
      <g transform="translate(487.505568 490.6535)scale(0.16 -0.16)">
       <use xlink:href="#DejaVuSansMono-30"/>
       <use x="60.205078" xlink:href="#DejaVuSansMono-2e"/>
       <use x="120.410156" xlink:href="#DejaVuSansMono-31"/>
      </g>
      <!-- 10 packets -->
      <g transform="translate(453.791818 508.672)scale(0.16 -0.16)">
       <use xlink:href="#DejaVuSansMono-31"/>
       <use x="60.205078" xlink:href="#DejaVuSansMono-30"/>
       <use x="120.410156" xlink:href="#DejaVuSansMono-20"/>
       <use x="180.615234" xlink:href="#DejaVuSansMono-70"/>
       <use x="240.820312" xlink:href="#DejaVuSansMono-61"/>
       <use x="301.025391" xlink:href="#DejaVuSansMono-63"/>
       <use x="361.230469" xlink:href="#DejaVuSansMono-6b"/>
       <use x="421.435547" xlink:href="#DejaVuSansMono-65"/>
       <use x="481.640625" xlink:href="#DejaVuSansMono-74"/>
       <use x="541.845703" xlink:href="#DejaVuSansMono-73"/>
      </g>
     </g>
    </g>
    <g id="xtick_4">
     <g id="line2d_7">
      <path clip-path="url(#p3bbc978881)" d="M 688.630682 471.411 
L 688.630682 27.891 
" style="fill:none;stroke:#b0b0b0;stroke-linecap:square;stroke-width:0.8;"/>
     </g>
     <g id="line2d_8">
      <g>
       <use style="stroke:#000000;stroke-width:0.8;" x="688.630682" xlink:href="#m1b07adcf34" y="471.411"/>
      </g>
     </g>
     <g id="text_4">
      <!-- 1.0 -->
      <g transform="translate(674.181932 490.6535)scale(0.16 -0.16)">
       <use xlink:href="#DejaVuSansMono-31"/>
       <use x="60.205078" xlink:href="#DejaVuSansMono-2e"/>
       <use x="120.410156" xlink:href="#DejaVuSansMono-30"/>
      </g>
      <!-- 100 packets -->
      <g transform="translate(635.651932 508.672)scale(0.16 -0.16)">
       <use xlink:href="#DejaVuSansMono-31"/>
       <use x="60.205078" xlink:href="#DejaVuSansMono-30"/>
       <use x="120.410156" xlink:href="#DejaVuSansMono-30"/>
       <use x="180.615234" xlink:href="#DejaVuSansMono-20"/>
       <use x="240.820312" xlink:href="#DejaVuSansMono-70"/>
       <use x="301.025391" xlink:href="#DejaVuSansMono-61"/>
       <use x="361.230469" xlink:href="#DejaVuSansMono-63"/>
       <use x="421.435547" xlink:href="#DejaVuSansMono-6b"/>
       <use x="481.640625" xlink:href="#DejaVuSansMono-65"/>
       <use x="541.845703" xlink:href="#DejaVuSansMono-74"/>
       <use x="602.050781" xlink:href="#DejaVuSansMono-73"/>
      </g>
     </g>
    </g>
    <g id="xtick_5">
     <g id="line2d_9">
      <path clip-path="url(#p3bbc978881)" d="M 875.307045 471.411 
L 875.307045 27.891 
" style="fill:none;stroke:#b0b0b0;stroke-linecap:square;stroke-width:0.8;"/>
     </g>
     <g id="line2d_10">
      <g>
       <use style="stroke:#000000;stroke-width:0.8;" x="875.307045" xlink:href="#m1b07adcf34" y="471.411"/>
      </g>
     </g>
     <g id="text_5">
      <!-- 10.0 -->
      <g transform="translate(856.042045 490.6535)scale(0.16 -0.16)">
       <use xlink:href="#DejaVuSansMono-31"/>
       <use x="60.205078" xlink:href="#DejaVuSansMono-30"/>
       <use x="120.410156" xlink:href="#DejaVuSansMono-2e"/>
       <use x="180.615234" xlink:href="#DejaVuSansMono-30"/>
      </g>
      <!-- 1000 packets -->
      <g transform="translate(817.512045 508.672)scale(0.16 -0.16)">
       <use xlink:href="#DejaVuSansMono-31"/>
       <use x="60.205078" xlink:href="#DejaVuSansMono-30"/>
       <use x="120.410156" xlink:href="#DejaVuSansMono-30"/>
       <use x="180.615234" xlink:href="#DejaVuSansMono-30"/>
       <use x="240.820312" xlink:href="#DejaVuSansMono-20"/>
       <use x="301.025391" xlink:href="#DejaVuSansMono-70"/>
       <use x="361.230469" xlink:href="#DejaVuSansMono-61"/>
       <use x="421.435547" xlink:href="#DejaVuSansMono-63"/>
       <use x="481.640625" xlink:href="#DejaVuSansMono-6b"/>
       <use x="541.845703" xlink:href="#DejaVuSansMono-65"/>
       <use x="602.050781" xlink:href="#DejaVuSansMono-74"/>
       <use x="662.255859" xlink:href="#DejaVuSansMono-73"/>
      </g>
     </g>
    </g>
    <g id="xtick_6">
     <g id="line2d_11">
      <path clip-path="url(#p3bbc978881)" d="M 1061.983409 471.411 
L 1061.983409 27.891 
" style="fill:none;stroke:#b0b0b0;stroke-linecap:square;stroke-width:0.8;"/>
     </g>
     <g id="line2d_12">
      <g>
       <use style="stroke:#000000;stroke-width:0.8;" x="1061.983409" xlink:href="#m1b07adcf34" y="471.411"/>
      </g>
     </g>
     <g id="text_6">
      <!-- 100.0 -->
      <g transform="translate(1037.902159 490.6535)scale(0.16 -0.16)">
       <use xlink:href="#DejaVuSansMono-31"/>
       <use x="60.205078" xlink:href="#DejaVuSansMono-30"/>
       <use x="120.410156" xlink:href="#DejaVuSansMono-30"/>
       <use x="180.615234" xlink:href="#DejaVuSansMono-2e"/>
       <use x="240.820312" xlink:href="#DejaVuSansMono-30"/>
      </g>
      <!-- 10000 packets -->
      <g transform="translate(999.372159 508.672)scale(0.16 -0.16)">
       <use xlink:href="#DejaVuSansMono-31"/>
       <use x="60.205078" xlink:href="#DejaVuSansMono-30"/>
       <use x="120.410156" xlink:href="#DejaVuSansMono-30"/>
       <use x="180.615234" xlink:href="#DejaVuSansMono-30"/>
       <use x="240.820312" xlink:href="#DejaVuSansMono-30"/>
       <use x="301.025391" xlink:href="#DejaVuSansMono-20"/>
       <use x="361.230469" xlink:href="#DejaVuSansMono-70"/>
       <use x="421.435547" xlink:href="#DejaVuSansMono-61"/>
       <use x="481.640625" xlink:href="#DejaVuSansMono-63"/>
       <use x="541.845703" xlink:href="#DejaVuSansMono-6b"/>
       <use x="602.050781" xlink:href="#DejaVuSansMono-65"/>
       <use x="662.255859" xlink:href="#DejaVuSansMono-74"/>
       <use x="722.460938" xlink:href="#DejaVuSansMono-73"/>
      </g>
     </g>
    </g>
    <g id="xtick_7">
     <g id="line2d_13">
      <path clip-path="url(#p3bbc978881)" d="M 87.187673 471.411 
L 87.187673 27.891 
" style="fill:none;stroke:#dddddd;stroke-dasharray:0.8,1.32;stroke-dashoffset:0;stroke-width:0.8;"/>
     </g>
     <g id="line2d_14">
      <defs>
       <path d="M 0 0 
L 0 2 
" id="mb2f544a216" style="stroke:#000000;stroke-width:0.6;"/>
      </defs>
      <g>
       <use style="stroke:#000000;stroke-width:0.6;" x="87.187673" xlink:href="#mb2f544a216" y="471.411"/>
      </g>
     </g>
    </g>
    <g id="xtick_8">
     <g id="line2d_15">
      <path clip-path="url(#p3bbc978881)" d="M 99.685056 471.411 
L 99.685056 27.891 
" style="fill:none;stroke:#dddddd;stroke-dasharray:0.8,1.32;stroke-dashoffset:0;stroke-width:0.8;"/>
     </g>
     <g id="line2d_16">
      <g>
       <use style="stroke:#000000;stroke-width:0.6;" x="99.685056" xlink:href="#mb2f544a216" y="471.411"/>
      </g>
     </g>
    </g>
    <g id="xtick_9">
     <g id="line2d_17">
      <path clip-path="url(#p3bbc978881)" d="M 110.510782 471.411 
L 110.510782 27.891 
" style="fill:none;stroke:#dddddd;stroke-dasharray:0.8,1.32;stroke-dashoffset:0;stroke-width:0.8;"/>
     </g>
     <g id="line2d_18">
      <g>
       <use style="stroke:#000000;stroke-width:0.6;" x="110.510782" xlink:href="#mb2f544a216" y="471.411"/>
      </g>
     </g>
    </g>
    <g id="xtick_10">
     <g id="line2d_19">
      <path clip-path="url(#p3bbc978881)" d="M 120.059749 471.411 
L 120.059749 27.891 
" style="fill:none;stroke:#dddddd;stroke-dasharray:0.8,1.32;stroke-dashoffset:0;stroke-width:0.8;"/>
     </g>
     <g id="line2d_20">
      <g>
       <use style="stroke:#000000;stroke-width:0.6;" x="120.059749" xlink:href="#mb2f544a216" y="471.411"/>
      </g>
     </g>
    </g>
    <g id="xtick_11">
     <g id="line2d_21">
      <path clip-path="url(#p3bbc978881)" d="M 184.796776 471.411 
L 184.796776 27.891 
" style="fill:none;stroke:#dddddd;stroke-dasharray:0.8,1.32;stroke-dashoffset:0;stroke-width:0.8;"/>
     </g>
     <g id="line2d_22">
      <g>
       <use style="stroke:#000000;stroke-width:0.6;" x="184.796776" xlink:href="#mb2f544a216" y="471.411"/>
      </g>
     </g>
    </g>
    <g id="xtick_12">
     <g id="line2d_23">
      <path clip-path="url(#p3bbc978881)" d="M 217.668852 471.411 
L 217.668852 27.891 
" style="fill:none;stroke:#dddddd;stroke-dasharray:0.8,1.32;stroke-dashoffset:0;stroke-width:0.8;"/>
     </g>
     <g id="line2d_24">
      <g>
       <use style="stroke:#000000;stroke-width:0.6;" x="217.668852" xlink:href="#mb2f544a216" y="471.411"/>
      </g>
     </g>
    </g>
    <g id="xtick_13">
     <g id="line2d_25">
      <path clip-path="url(#p3bbc978881)" d="M 240.991961 471.411 
L 240.991961 27.891 
" style="fill:none;stroke:#dddddd;stroke-dasharray:0.8,1.32;stroke-dashoffset:0;stroke-width:0.8;"/>
     </g>
     <g id="line2d_26">
      <g>
       <use style="stroke:#000000;stroke-width:0.6;" x="240.991961" xlink:href="#mb2f544a216" y="471.411"/>
      </g>
     </g>
    </g>
    <g id="xtick_14">
     <g id="line2d_27">
      <path clip-path="url(#p3bbc978881)" d="M 259.08277 471.411 
L 259.08277 27.891 
" style="fill:none;stroke:#dddddd;stroke-dasharray:0.8,1.32;stroke-dashoffset:0;stroke-width:0.8;"/>
     </g>
     <g id="line2d_28">
      <g>
       <use style="stroke:#000000;stroke-width:0.6;" x="259.08277" xlink:href="#mb2f544a216" y="471.411"/>
      </g>
     </g>
    </g>
    <g id="xtick_15">
     <g id="line2d_29">
      <path clip-path="url(#p3bbc978881)" d="M 273.864037 471.411 
L 273.864037 27.891 
" style="fill:none;stroke:#dddddd;stroke-dasharray:0.8,1.32;stroke-dashoffset:0;stroke-width:0.8;"/>
     </g>
     <g id="line2d_30">
      <g>
       <use style="stroke:#000000;stroke-width:0.6;" x="273.864037" xlink:href="#mb2f544a216" y="471.411"/>
      </g>
     </g>
    </g>
    <g id="xtick_16">
     <g id="line2d_31">
      <path clip-path="url(#p3bbc978881)" d="M 286.36142 471.411 
L 286.36142 27.891 
" style="fill:none;stroke:#dddddd;stroke-dasharray:0.8,1.32;stroke-dashoffset:0;stroke-width:0.8;"/>
     </g>
     <g id="line2d_32">
      <g>
       <use style="stroke:#000000;stroke-width:0.6;" x="286.36142" xlink:href="#mb2f544a216" y="471.411"/>
      </g>
     </g>
    </g>
    <g id="xtick_17">
     <g id="line2d_33">
      <path clip-path="url(#p3bbc978881)" d="M 297.187146 471.411 
L 297.187146 27.891 
" style="fill:none;stroke:#dddddd;stroke-dasharray:0.8,1.32;stroke-dashoffset:0;stroke-width:0.8;"/>
     </g>
     <g id="line2d_34">
      <g>
       <use style="stroke:#000000;stroke-width:0.6;" x="297.187146" xlink:href="#mb2f544a216" y="471.411"/>
      </g>
     </g>
    </g>
    <g id="xtick_18">
     <g id="line2d_35">
      <path clip-path="url(#p3bbc978881)" d="M 306.736113 471.411 
L 306.736113 27.891 
" style="fill:none;stroke:#dddddd;stroke-dasharray:0.8,1.32;stroke-dashoffset:0;stroke-width:0.8;"/>
     </g>
     <g id="line2d_36">
      <g>
       <use style="stroke:#000000;stroke-width:0.6;" x="306.736113" xlink:href="#mb2f544a216" y="471.411"/>
      </g>
     </g>
    </g>
    <g id="xtick_19">
     <g id="line2d_37">
      <path clip-path="url(#p3bbc978881)" d="M 371.473139 471.411 
L 371.473139 27.891 
" style="fill:none;stroke:#dddddd;stroke-dasharray:0.8,1.32;stroke-dashoffset:0;stroke-width:0.8;"/>
     </g>
     <g id="line2d_38">
      <g>
       <use style="stroke:#000000;stroke-width:0.6;" x="371.473139" xlink:href="#mb2f544a216" y="471.411"/>
      </g>
     </g>
    </g>
    <g id="xtick_20">
     <g id="line2d_39">
      <path clip-path="url(#p3bbc978881)" d="M 404.345215 471.411 
L 404.345215 27.891 
" style="fill:none;stroke:#dddddd;stroke-dasharray:0.8,1.32;stroke-dashoffset:0;stroke-width:0.8;"/>
     </g>
     <g id="line2d_40">
      <g>
       <use style="stroke:#000000;stroke-width:0.6;" x="404.345215" xlink:href="#mb2f544a216" y="471.411"/>
      </g>
     </g>
    </g>
    <g id="xtick_21">
     <g id="line2d_41">
      <path clip-path="url(#p3bbc978881)" d="M 427.668324 471.411 
L 427.668324 27.891 
" style="fill:none;stroke:#dddddd;stroke-dasharray:0.8,1.32;stroke-dashoffset:0;stroke-width:0.8;"/>
     </g>
     <g id="line2d_42">
      <g>
       <use style="stroke:#000000;stroke-width:0.6;" x="427.668324" xlink:href="#mb2f544a216" y="471.411"/>
      </g>
     </g>
    </g>
    <g id="xtick_22">
     <g id="line2d_43">
      <path clip-path="url(#p3bbc978881)" d="M 445.759133 471.411 
L 445.759133 27.891 
" style="fill:none;stroke:#dddddd;stroke-dasharray:0.8,1.32;stroke-dashoffset:0;stroke-width:0.8;"/>
     </g>
     <g id="line2d_44">
      <g>
       <use style="stroke:#000000;stroke-width:0.6;" x="445.759133" xlink:href="#mb2f544a216" y="471.411"/>
      </g>
     </g>
    </g>
    <g id="xtick_23">
     <g id="line2d_45">
      <path clip-path="url(#p3bbc978881)" d="M 460.5404 471.411 
L 460.5404 27.891 
" style="fill:none;stroke:#dddddd;stroke-dasharray:0.8,1.32;stroke-dashoffset:0;stroke-width:0.8;"/>
     </g>
     <g id="line2d_46">
      <g>
       <use style="stroke:#000000;stroke-width:0.6;" x="460.5404" xlink:href="#mb2f544a216" y="471.411"/>
      </g>
     </g>
    </g>
    <g id="xtick_24">
     <g id="line2d_47">
      <path clip-path="url(#p3bbc978881)" d="M 473.037784 471.411 
L 473.037784 27.891 
" style="fill:none;stroke:#dddddd;stroke-dasharray:0.8,1.32;stroke-dashoffset:0;stroke-width:0.8;"/>
     </g>
     <g id="line2d_48">
      <g>
       <use style="stroke:#000000;stroke-width:0.6;" x="473.037784" xlink:href="#mb2f544a216" y="471.411"/>
      </g>
     </g>
    </g>
    <g id="xtick_25">
     <g id="line2d_49">
      <path clip-path="url(#p3bbc978881)" d="M 483.863509 471.411 
L 483.863509 27.891 
" style="fill:none;stroke:#dddddd;stroke-dasharray:0.8,1.32;stroke-dashoffset:0;stroke-width:0.8;"/>
     </g>
     <g id="line2d_50">
      <g>
       <use style="stroke:#000000;stroke-width:0.6;" x="483.863509" xlink:href="#mb2f544a216" y="471.411"/>
      </g>
     </g>
    </g>
    <g id="xtick_26">
     <g id="line2d_51">
      <path clip-path="url(#p3bbc978881)" d="M 493.412476 471.411 
L 493.412476 27.891 
" style="fill:none;stroke:#dddddd;stroke-dasharray:0.8,1.32;stroke-dashoffset:0;stroke-width:0.8;"/>
     </g>
     <g id="line2d_52">
      <g>
       <use style="stroke:#000000;stroke-width:0.6;" x="493.412476" xlink:href="#mb2f544a216" y="471.411"/>
      </g>
     </g>
    </g>
    <g id="xtick_27">
     <g id="line2d_53">
      <path clip-path="url(#p3bbc978881)" d="M 558.149503 471.411 
L 558.149503 27.891 
" style="fill:none;stroke:#dddddd;stroke-dasharray:0.8,1.32;stroke-dashoffset:0;stroke-width:0.8;"/>
     </g>
     <g id="line2d_54">
      <g>
       <use style="stroke:#000000;stroke-width:0.6;" x="558.149503" xlink:href="#mb2f544a216" y="471.411"/>
      </g>
     </g>
    </g>
    <g id="xtick_28">
     <g id="line2d_55">
      <path clip-path="url(#p3bbc978881)" d="M 591.021579 471.411 
L 591.021579 27.891 
" style="fill:none;stroke:#dddddd;stroke-dasharray:0.8,1.32;stroke-dashoffset:0;stroke-width:0.8;"/>
     </g>
     <g id="line2d_56">
      <g>
       <use style="stroke:#000000;stroke-width:0.6;" x="591.021579" xlink:href="#mb2f544a216" y="471.411"/>
      </g>
     </g>
    </g>
    <g id="xtick_29">
     <g id="line2d_57">
      <path clip-path="url(#p3bbc978881)" d="M 614.344688 471.411 
L 614.344688 27.891 
" style="fill:none;stroke:#dddddd;stroke-dasharray:0.8,1.32;stroke-dashoffset:0;stroke-width:0.8;"/>
     </g>
     <g id="line2d_58">
      <g>
       <use style="stroke:#000000;stroke-width:0.6;" x="614.344688" xlink:href="#mb2f544a216" y="471.411"/>
      </g>
     </g>
    </g>
    <g id="xtick_30">
     <g id="line2d_59">
      <path clip-path="url(#p3bbc978881)" d="M 632.435497 471.411 
L 632.435497 27.891 
" style="fill:none;stroke:#dddddd;stroke-dasharray:0.8,1.32;stroke-dashoffset:0;stroke-width:0.8;"/>
     </g>
     <g id="line2d_60">
      <g>
       <use style="stroke:#000000;stroke-width:0.6;" x="632.435497" xlink:href="#mb2f544a216" y="471.411"/>
      </g>
     </g>
    </g>
    <g id="xtick_31">
     <g id="line2d_61">
      <path clip-path="url(#p3bbc978881)" d="M 647.216764 471.411 
L 647.216764 27.891 
" style="fill:none;stroke:#dddddd;stroke-dasharray:0.8,1.32;stroke-dashoffset:0;stroke-width:0.8;"/>
     </g>
     <g id="line2d_62">
      <g>
       <use style="stroke:#000000;stroke-width:0.6;" x="647.216764" xlink:href="#mb2f544a216" y="471.411"/>
      </g>
     </g>
    </g>
    <g id="xtick_32">
     <g id="line2d_63">
      <path clip-path="url(#p3bbc978881)" d="M 659.714147 471.411 
L 659.714147 27.891 
" style="fill:none;stroke:#dddddd;stroke-dasharray:0.8,1.32;stroke-dashoffset:0;stroke-width:0.8;"/>
     </g>
     <g id="line2d_64">
      <g>
       <use style="stroke:#000000;stroke-width:0.6;" x="659.714147" xlink:href="#mb2f544a216" y="471.411"/>
      </g>
     </g>
    </g>
    <g id="xtick_33">
     <g id="line2d_65">
      <path clip-path="url(#p3bbc978881)" d="M 670.539873 471.411 
L 670.539873 27.891 
" style="fill:none;stroke:#dddddd;stroke-dasharray:0.8,1.32;stroke-dashoffset:0;stroke-width:0.8;"/>
     </g>
     <g id="line2d_66">
      <g>
       <use style="stroke:#000000;stroke-width:0.6;" x="670.539873" xlink:href="#mb2f544a216" y="471.411"/>
      </g>
     </g>
    </g>
    <g id="xtick_34">
     <g id="line2d_67">
      <path clip-path="url(#p3bbc978881)" d="M 680.08884 471.411 
L 680.08884 27.891 
" style="fill:none;stroke:#dddddd;stroke-dasharray:0.8,1.32;stroke-dashoffset:0;stroke-width:0.8;"/>
     </g>
     <g id="line2d_68">
      <g>
       <use style="stroke:#000000;stroke-width:0.6;" x="680.08884" xlink:href="#mb2f544a216" y="471.411"/>
      </g>
     </g>
    </g>
    <g id="xtick_35">
     <g id="line2d_69">
      <path clip-path="url(#p3bbc978881)" d="M 744.825867 471.411 
L 744.825867 27.891 
" style="fill:none;stroke:#dddddd;stroke-dasharray:0.8,1.32;stroke-dashoffset:0;stroke-width:0.8;"/>
     </g>
     <g id="line2d_70">
      <g>
       <use style="stroke:#000000;stroke-width:0.6;" x="744.825867" xlink:href="#mb2f544a216" y="471.411"/>
      </g>
     </g>
    </g>
    <g id="xtick_36">
     <g id="line2d_71">
      <path clip-path="url(#p3bbc978881)" d="M 777.697943 471.411 
L 777.697943 27.891 
" style="fill:none;stroke:#dddddd;stroke-dasharray:0.8,1.32;stroke-dashoffset:0;stroke-width:0.8;"/>
     </g>
     <g id="line2d_72">
      <g>
       <use style="stroke:#000000;stroke-width:0.6;" x="777.697943" xlink:href="#mb2f544a216" y="471.411"/>
      </g>
     </g>
    </g>
    <g id="xtick_37">
     <g id="line2d_73">
      <path clip-path="url(#p3bbc978881)" d="M 801.021052 471.411 
L 801.021052 27.891 
" style="fill:none;stroke:#dddddd;stroke-dasharray:0.8,1.32;stroke-dashoffset:0;stroke-width:0.8;"/>
     </g>
     <g id="line2d_74">
      <g>
       <use style="stroke:#000000;stroke-width:0.6;" x="801.021052" xlink:href="#mb2f544a216" y="471.411"/>
      </g>
     </g>
    </g>
    <g id="xtick_38">
     <g id="line2d_75">
      <path clip-path="url(#p3bbc978881)" d="M 819.111861 471.411 
L 819.111861 27.891 
" style="fill:none;stroke:#dddddd;stroke-dasharray:0.8,1.32;stroke-dashoffset:0;stroke-width:0.8;"/>
     </g>
     <g id="line2d_76">
      <g>
       <use style="stroke:#000000;stroke-width:0.6;" x="819.111861" xlink:href="#mb2f544a216" y="471.411"/>
      </g>
     </g>
    </g>
    <g id="xtick_39">
     <g id="line2d_77">
      <path clip-path="url(#p3bbc978881)" d="M 833.893128 471.411 
L 833.893128 27.891 
" style="fill:none;stroke:#dddddd;stroke-dasharray:0.8,1.32;stroke-dashoffset:0;stroke-width:0.8;"/>
     </g>
     <g id="line2d_78">
      <g>
       <use style="stroke:#000000;stroke-width:0.6;" x="833.893128" xlink:href="#mb2f544a216" y="471.411"/>
      </g>
     </g>
    </g>
    <g id="xtick_40">
     <g id="line2d_79">
      <path clip-path="url(#p3bbc978881)" d="M 846.390511 471.411 
L 846.390511 27.891 
" style="fill:none;stroke:#dddddd;stroke-dasharray:0.8,1.32;stroke-dashoffset:0;stroke-width:0.8;"/>
     </g>
     <g id="line2d_80">
      <g>
       <use style="stroke:#000000;stroke-width:0.6;" x="846.390511" xlink:href="#mb2f544a216" y="471.411"/>
      </g>
     </g>
    </g>
    <g id="xtick_41">
     <g id="line2d_81">
      <path clip-path="url(#p3bbc978881)" d="M 857.216237 471.411 
L 857.216237 27.891 
" style="fill:none;stroke:#dddddd;stroke-dasharray:0.8,1.32;stroke-dashoffset:0;stroke-width:0.8;"/>
     </g>
     <g id="line2d_82">
      <g>
       <use style="stroke:#000000;stroke-width:0.6;" x="857.216237" xlink:href="#mb2f544a216" y="471.411"/>
      </g>
     </g>
    </g>
    <g id="xtick_42">
     <g id="line2d_83">
      <path clip-path="url(#p3bbc978881)" d="M 866.765204 471.411 
L 866.765204 27.891 
" style="fill:none;stroke:#dddddd;stroke-dasharray:0.8,1.32;stroke-dashoffset:0;stroke-width:0.8;"/>
     </g>
     <g id="line2d_84">
      <g>
       <use style="stroke:#000000;stroke-width:0.6;" x="866.765204" xlink:href="#mb2f544a216" y="471.411"/>
      </g>
     </g>
    </g>
    <g id="xtick_43">
     <g id="line2d_85">
      <path clip-path="url(#p3bbc978881)" d="M 931.50223 471.411 
L 931.50223 27.891 
" style="fill:none;stroke:#dddddd;stroke-dasharray:0.8,1.32;stroke-dashoffset:0;stroke-width:0.8;"/>
     </g>
     <g id="line2d_86">
      <g>
       <use style="stroke:#000000;stroke-width:0.6;" x="931.50223" xlink:href="#mb2f544a216" y="471.411"/>
      </g>
     </g>
    </g>
    <g id="xtick_44">
     <g id="line2d_87">
      <path clip-path="url(#p3bbc978881)" d="M 964.374306 471.411 
L 964.374306 27.891 
" style="fill:none;stroke:#dddddd;stroke-dasharray:0.8,1.32;stroke-dashoffset:0;stroke-width:0.8;"/>
     </g>
     <g id="line2d_88">
      <g>
       <use style="stroke:#000000;stroke-width:0.6;" x="964.374306" xlink:href="#mb2f544a216" y="471.411"/>
      </g>
     </g>
    </g>
    <g id="xtick_45">
     <g id="line2d_89">
      <path clip-path="url(#p3bbc978881)" d="M 987.697415 471.411 
L 987.697415 27.891 
" style="fill:none;stroke:#dddddd;stroke-dasharray:0.8,1.32;stroke-dashoffset:0;stroke-width:0.8;"/>
     </g>
     <g id="line2d_90">
      <g>
       <use style="stroke:#000000;stroke-width:0.6;" x="987.697415" xlink:href="#mb2f544a216" y="471.411"/>
      </g>
     </g>
    </g>
    <g id="xtick_46">
     <g id="line2d_91">
      <path clip-path="url(#p3bbc978881)" d="M 1005.788224 471.411 
L 1005.788224 27.891 
" style="fill:none;stroke:#dddddd;stroke-dasharray:0.8,1.32;stroke-dashoffset:0;stroke-width:0.8;"/>
     </g>
     <g id="line2d_92">
      <g>
       <use style="stroke:#000000;stroke-width:0.6;" x="1005.788224" xlink:href="#mb2f544a216" y="471.411"/>
      </g>
     </g>
    </g>
    <g id="xtick_47">
     <g id="line2d_93">
      <path clip-path="url(#p3bbc978881)" d="M 1020.569491 471.411 
L 1020.569491 27.891 
" style="fill:none;stroke:#dddddd;stroke-dasharray:0.8,1.32;stroke-dashoffset:0;stroke-width:0.8;"/>
     </g>
     <g id="line2d_94">
      <g>
       <use style="stroke:#000000;stroke-width:0.6;" x="1020.569491" xlink:href="#mb2f544a216" y="471.411"/>
      </g>
     </g>
    </g>
    <g id="xtick_48">
     <g id="line2d_95">
      <path clip-path="url(#p3bbc978881)" d="M 1033.066874 471.411 
L 1033.066874 27.891 
" style="fill:none;stroke:#dddddd;stroke-dasharray:0.8,1.32;stroke-dashoffset:0;stroke-width:0.8;"/>
     </g>
     <g id="line2d_96">
      <g>
       <use style="stroke:#000000;stroke-width:0.6;" x="1033.066874" xlink:href="#mb2f544a216" y="471.411"/>
      </g>
     </g>
    </g>
    <g id="xtick_49">
     <g id="line2d_97">
      <path clip-path="url(#p3bbc978881)" d="M 1043.8926 471.411 
L 1043.8926 27.891 
" style="fill:none;stroke:#dddddd;stroke-dasharray:0.8,1.32;stroke-dashoffset:0;stroke-width:0.8;"/>
     </g>
     <g id="line2d_98">
      <g>
       <use style="stroke:#000000;stroke-width:0.6;" x="1043.8926" xlink:href="#mb2f544a216" y="471.411"/>
      </g>
     </g>
    </g>
    <g id="xtick_50">
     <g id="line2d_99">
      <path clip-path="url(#p3bbc978881)" d="M 1053.441567 471.411 
L 1053.441567 27.891 
" style="fill:none;stroke:#dddddd;stroke-dasharray:0.8,1.32;stroke-dashoffset:0;stroke-width:0.8;"/>
     </g>
     <g id="line2d_100">
      <g>
       <use style="stroke:#000000;stroke-width:0.6;" x="1053.441567" xlink:href="#mb2f544a216" y="471.411"/>
      </g>
     </g>
    </g>
    <g id="text_7">
     <!-- Slowest percentile -->
     <g transform="translate(508.6 528.242)scale(0.16 -0.16)">
      <defs>
       <path d="M 3163 4506 
L 3163 3866 
Q 2875 4050 2586 4144 
Q 2297 4238 2003 4238 
Q 1556 4238 1297 4030 
Q 1038 3822 1038 3469 
Q 1038 3159 1208 2996 
Q 1378 2834 1844 2725 
L 2175 2650 
Q 2831 2497 3131 2169 
Q 3431 1841 3431 1275 
Q 3431 609 3018 259 
Q 2606 -91 1819 -91 
Q 1491 -91 1159 -20 
Q 828 50 494 191 
L 494 863 
Q 853 634 1173 528 
Q 1494 422 1819 422 
Q 2297 422 2562 636 
Q 2828 850 2828 1234 
Q 2828 1584 2645 1768 
Q 2463 1953 2009 2053 
L 1672 2131 
Q 1022 2278 728 2575 
Q 434 2872 434 3372 
Q 434 3997 854 4373 
Q 1275 4750 1972 4750 
Q 2241 4750 2537 4689 
Q 2834 4628 3163 4506 
z
" id="DejaVuSansMono-53" transform="scale(0.015625)"/>
       <path d="M 1997 1269 
Q 1997 881 2139 684 
Q 2281 488 2559 488 
L 3231 488 
L 3231 0 
L 2503 0 
Q 1988 0 1705 331 
Q 1422 663 1422 1269 
L 1422 4447 
L 500 4447 
L 500 4897 
L 1997 4897 
L 1997 1269 
z
" id="DejaVuSansMono-6c" transform="scale(0.015625)"/>
       <path d="M 1925 3097 
Q 1488 3097 1263 2756 
Q 1038 2416 1038 1747 
Q 1038 1081 1263 739 
Q 1488 397 1925 397 
Q 2366 397 2591 739 
Q 2816 1081 2816 1747 
Q 2816 2416 2591 2756 
Q 2366 3097 1925 3097 
z
M 1925 3584 
Q 2653 3584 3039 3112 
Q 3425 2641 3425 1747 
Q 3425 850 3040 379 
Q 2656 -91 1925 -91 
Q 1197 -91 812 379 
Q 428 850 428 1747 
Q 428 2641 812 3112 
Q 1197 3584 1925 3584 
z
" id="DejaVuSansMono-6f" transform="scale(0.015625)"/>
       <path d="M 0 3500 
L 569 3500 
L 1178 672 
L 1678 2478 
L 2169 2478 
L 2675 672 
L 3284 3500 
L 3853 3500 
L 3034 0 
L 2484 0 
L 1925 1919 
L 1369 0 
L 819 0 
L 0 3500 
z
" id="DejaVuSansMono-77" transform="scale(0.015625)"/>
       <path d="M 3609 2778 
Q 3425 2922 3234 2987 
Q 3044 3053 2816 3053 
Q 2278 3053 1993 2715 
Q 1709 2378 1709 1741 
L 1709 0 
L 1131 0 
L 1131 3500 
L 1709 3500 
L 1709 2816 
Q 1853 3188 2151 3386 
Q 2450 3584 2859 3584 
Q 3072 3584 3256 3531 
Q 3441 3478 3609 3366 
L 3609 2778 
z
" id="DejaVuSansMono-72" transform="scale(0.015625)"/>
       <path d="M 3284 2169 
L 3284 0 
L 2706 0 
L 2706 2169 
Q 2706 2641 2540 2862 
Q 2375 3084 2022 3084 
Q 1619 3084 1401 2798 
Q 1184 2513 1184 1978 
L 1184 0 
L 609 0 
L 609 3500 
L 1184 3500 
L 1184 2975 
Q 1338 3275 1600 3429 
Q 1863 3584 2222 3584 
Q 2756 3584 3020 3232 
Q 3284 2881 3284 2169 
z
" id="DejaVuSansMono-6e" transform="scale(0.015625)"/>
       <path d="M 800 3500 
L 2272 3500 
L 2272 447 
L 3413 447 
L 3413 0 
L 556 0 
L 556 447 
L 1697 447 
L 1697 3053 
L 800 3053 
L 800 3500 
z
M 1697 4863 
L 2272 4863 
L 2272 4134 
L 1697 4134 
L 1697 4863 
z
" id="DejaVuSansMono-69" transform="scale(0.015625)"/>
      </defs>
      <use xlink:href="#DejaVuSansMono-53"/>
      <use x="60.205078" xlink:href="#DejaVuSansMono-6c"/>
      <use x="120.410156" xlink:href="#DejaVuSansMono-6f"/>
      <use x="180.615234" xlink:href="#DejaVuSansMono-77"/>
      <use x="240.820312" xlink:href="#DejaVuSansMono-65"/>
      <use x="301.025391" xlink:href="#DejaVuSansMono-73"/>
      <use x="361.230469" xlink:href="#DejaVuSansMono-74"/>
      <use x="421.435547" xlink:href="#DejaVuSansMono-20"/>
      <use x="481.640625" xlink:href="#DejaVuSansMono-70"/>
      <use x="541.845703" xlink:href="#DejaVuSansMono-65"/>
      <use x="602.050781" xlink:href="#DejaVuSansMono-72"/>
      <use x="662.255859" xlink:href="#DejaVuSansMono-63"/>
      <use x="722.460938" xlink:href="#DejaVuSansMono-65"/>
      <use x="782.666016" xlink:href="#DejaVuSansMono-6e"/>
      <use x="842.871094" xlink:href="#DejaVuSansMono-74"/>
      <use x="903.076172" xlink:href="#DejaVuSansMono-69"/>
      <use x="963.28125" xlink:href="#DejaVuSansMono-6c"/>
      <use x="1023.486328" xlink:href="#DejaVuSansMono-65"/>
     </g>
    </g>
   </g>
   <g id="matplotlib.axis_2">
    <g id="ytick_1">
     <g id="line2d_101">
      <path clip-path="url(#p3bbc978881)" d="M 81.9325 259.972282 
L 1108.6525 259.972282 
" style="fill:none;stroke:#b0b0b0;stroke-linecap:square;stroke-width:0.8;"/>
     </g>
     <g id="line2d_102">
      <defs>
       <path d="M 0 0 
L -3.5 0 
" id="m21618d630c" style="stroke:#000000;stroke-width:0.8;"/>
      </defs>
      <g>
       <use style="stroke:#000000;stroke-width:0.8;" x="81.9325" xlink:href="#m21618d630c" y="259.972282"/>
      </g>
     </g>
     <g id="text_8">
      <!-- 100.0 -->
      <g transform="translate(26.77 266.093532)scale(0.16 -0.16)">
       <use xlink:href="#DejaVuSansMono-31"/>
       <use x="60.205078" xlink:href="#DejaVuSansMono-30"/>
       <use x="120.410156" xlink:href="#DejaVuSansMono-30"/>
       <use x="180.615234" xlink:href="#DejaVuSansMono-2e"/>
       <use x="240.820312" xlink:href="#DejaVuSansMono-30"/>
      </g>
     </g>
    </g>
    <g id="ytick_2">
     <g id="line2d_103">
      <path clip-path="url(#p3bbc978881)" d="M 81.9325 449.696294 
L 1108.6525 449.696294 
" style="fill:none;stroke:#dddddd;stroke-dasharray:0.8,1.32;stroke-dashoffset:0;stroke-width:0.8;"/>
     </g>
     <g id="line2d_104">
      <defs>
       <path d="M 0 0 
L -2 0 
" id="mad365780fd" style="stroke:#000000;stroke-width:0.6;"/>
      </defs>
      <g>
       <use style="stroke:#000000;stroke-width:0.6;" x="81.9325" xlink:href="#mad365780fd" y="449.696294"/>
      </g>
     </g>
    </g>
    <g id="ytick_3">
     <g id="line2d_105">
      <path clip-path="url(#p3bbc978881)" d="M 81.9325 401.899193 
L 1108.6525 401.899193 
" style="fill:none;stroke:#dddddd;stroke-dasharray:0.8,1.32;stroke-dashoffset:0;stroke-width:0.8;"/>
     </g>
     <g id="line2d_106">
      <g>
       <use style="stroke:#000000;stroke-width:0.6;" x="81.9325" xlink:href="#mad365780fd" y="401.899193"/>
      </g>
     </g>
    </g>
    <g id="ytick_4">
     <g id="line2d_107">
      <path clip-path="url(#p3bbc978881)" d="M 81.9325 367.98661 
L 1108.6525 367.98661 
" style="fill:none;stroke:#dddddd;stroke-dasharray:0.8,1.32;stroke-dashoffset:0;stroke-width:0.8;"/>
     </g>
     <g id="line2d_108">
      <g>
       <use style="stroke:#000000;stroke-width:0.6;" x="81.9325" xlink:href="#mad365780fd" y="367.98661"/>
      </g>
     </g>
    </g>
    <g id="ytick_5">
     <g id="line2d_109">
      <path clip-path="url(#p3bbc978881)" d="M 81.9325 341.681967 
L 1108.6525 341.681967 
" style="fill:none;stroke:#dddddd;stroke-dasharray:0.8,1.32;stroke-dashoffset:0;stroke-width:0.8;"/>
     </g>
     <g id="line2d_110">
      <g>
       <use style="stroke:#000000;stroke-width:0.6;" x="81.9325" xlink:href="#mad365780fd" y="341.681967"/>
      </g>
     </g>
    </g>
    <g id="ytick_6">
     <g id="line2d_111">
      <path clip-path="url(#p3bbc978881)" d="M 81.9325 320.189508 
L 1108.6525 320.189508 
" style="fill:none;stroke:#dddddd;stroke-dasharray:0.8,1.32;stroke-dashoffset:0;stroke-width:0.8;"/>
     </g>
     <g id="line2d_112">
      <g>
       <use style="stroke:#000000;stroke-width:0.6;" x="81.9325" xlink:href="#mad365780fd" y="320.189508"/>
      </g>
     </g>
    </g>
    <g id="ytick_7">
     <g id="line2d_113">
      <path clip-path="url(#p3bbc978881)" d="M 81.9325 302.017894 
L 1108.6525 302.017894 
" style="fill:none;stroke:#dddddd;stroke-dasharray:0.8,1.32;stroke-dashoffset:0;stroke-width:0.8;"/>
     </g>
     <g id="line2d_114">
      <g>
       <use style="stroke:#000000;stroke-width:0.6;" x="81.9325" xlink:href="#mad365780fd" y="302.017894"/>
      </g>
     </g>
    </g>
    <g id="ytick_8">
     <g id="line2d_115">
      <path clip-path="url(#p3bbc978881)" d="M 81.9325 286.276925 
L 1108.6525 286.276925 
" style="fill:none;stroke:#dddddd;stroke-dasharray:0.8,1.32;stroke-dashoffset:0;stroke-width:0.8;"/>
     </g>
     <g id="line2d_116">
      <g>
       <use style="stroke:#000000;stroke-width:0.6;" x="81.9325" xlink:href="#mad365780fd" y="286.276925"/>
      </g>
     </g>
    </g>
    <g id="ytick_9">
     <g id="line2d_117">
      <path clip-path="url(#p3bbc978881)" d="M 81.9325 272.392407 
L 1108.6525 272.392407 
" style="fill:none;stroke:#dddddd;stroke-dasharray:0.8,1.32;stroke-dashoffset:0;stroke-width:0.8;"/>
     </g>
     <g id="line2d_118">
      <g>
       <use style="stroke:#000000;stroke-width:0.6;" x="81.9325" xlink:href="#mad365780fd" y="272.392407"/>
      </g>
     </g>
    </g>
    <g id="ytick_10">
     <g id="line2d_119">
      <path clip-path="url(#p3bbc978881)" d="M 81.9325 178.262598 
L 1108.6525 178.262598 
" style="fill:none;stroke:#dddddd;stroke-dasharray:0.8,1.32;stroke-dashoffset:0;stroke-width:0.8;"/>
     </g>
     <g id="line2d_120">
      <g>
       <use style="stroke:#000000;stroke-width:0.6;" x="81.9325" xlink:href="#mad365780fd" y="178.262598"/>
      </g>
     </g>
    </g>
    <g id="ytick_11">
     <g id="line2d_121">
      <path clip-path="url(#p3bbc978881)" d="M 81.9325 130.465496 
L 1108.6525 130.465496 
" style="fill:none;stroke:#dddddd;stroke-dasharray:0.8,1.32;stroke-dashoffset:0;stroke-width:0.8;"/>
     </g>
     <g id="line2d_122">
      <g>
       <use style="stroke:#000000;stroke-width:0.6;" x="81.9325" xlink:href="#mad365780fd" y="130.465496"/>
      </g>
     </g>
    </g>
    <g id="ytick_12">
     <g id="line2d_123">
      <path clip-path="url(#p3bbc978881)" d="M 81.9325 96.552913 
L 1108.6525 96.552913 
" style="fill:none;stroke:#dddddd;stroke-dasharray:0.8,1.32;stroke-dashoffset:0;stroke-width:0.8;"/>
     </g>
     <g id="line2d_124">
      <g>
       <use style="stroke:#000000;stroke-width:0.6;" x="81.9325" xlink:href="#mad365780fd" y="96.552913"/>
      </g>
     </g>
    </g>
    <g id="ytick_13">
     <g id="line2d_125">
      <path clip-path="url(#p3bbc978881)" d="M 81.9325 70.24827 
L 1108.6525 70.24827 
" style="fill:none;stroke:#dddddd;stroke-dasharray:0.8,1.32;stroke-dashoffset:0;stroke-width:0.8;"/>
     </g>
     <g id="line2d_126">
      <g>
       <use style="stroke:#000000;stroke-width:0.6;" x="81.9325" xlink:href="#mad365780fd" y="70.24827"/>
      </g>
     </g>
    </g>
    <g id="ytick_14">
     <g id="line2d_127">
      <path clip-path="url(#p3bbc978881)" d="M 81.9325 48.755812 
L 1108.6525 48.755812 
" style="fill:none;stroke:#dddddd;stroke-dasharray:0.8,1.32;stroke-dashoffset:0;stroke-width:0.8;"/>
     </g>
     <g id="line2d_128">
      <g>
       <use style="stroke:#000000;stroke-width:0.6;" x="81.9325" xlink:href="#mad365780fd" y="48.755812"/>
      </g>
     </g>
    </g>
    <g id="ytick_15">
     <g id="line2d_129">
      <path clip-path="url(#p3bbc978881)" d="M 81.9325 30.584197 
L 1108.6525 30.584197 
" style="fill:none;stroke:#dddddd;stroke-dasharray:0.8,1.32;stroke-dashoffset:0;stroke-width:0.8;"/>
     </g>
     <g id="line2d_130">
      <g>
       <use style="stroke:#000000;stroke-width:0.6;" x="81.9325" xlink:href="#mad365780fd" y="30.584197"/>
      </g>
     </g>
    </g>
    <g id="text_9">
     <!-- Response time [ms] -->
     <g transform="translate(19.4425 336.3435)rotate(-90)scale(0.16 -0.16)">
      <defs>
       <path d="M 2375 2203 
Q 2619 2141 2791 1967 
Q 2963 1794 3219 1275 
L 3853 0 
L 3175 0 
L 2619 1178 
Q 2378 1681 2186 1826 
Q 1994 1972 1684 1972 
L 1081 1972 
L 1081 0 
L 447 0 
L 447 4666 
L 1747 4666 
Q 2516 4666 2925 4319 
Q 3334 3972 3334 3316 
Q 3334 2853 3082 2561 
Q 2831 2269 2375 2203 
z
M 1081 4147 
L 1081 2491 
L 1772 2491 
Q 2225 2491 2447 2694 
Q 2669 2897 2669 3316 
Q 2669 3719 2433 3933 
Q 2197 4147 1747 4147 
L 1081 4147 
z
" id="DejaVuSansMono-52" transform="scale(0.015625)"/>
       <path d="M 2113 3144 
Q 2219 3369 2383 3476 
Q 2547 3584 2778 3584 
Q 3200 3584 3373 3257 
Q 3547 2931 3547 2028 
L 3547 0 
L 3022 0 
L 3022 2003 
Q 3022 2744 2939 2923 
Q 2856 3103 2638 3103 
Q 2388 3103 2295 2911 
Q 2203 2719 2203 2003 
L 2203 0 
L 1678 0 
L 1678 2003 
Q 1678 2753 1589 2928 
Q 1500 3103 1269 3103 
Q 1041 3103 952 2911 
Q 863 2719 863 2003 
L 863 0 
L 341 0 
L 341 3500 
L 863 3500 
L 863 3200 
Q 966 3388 1120 3486 
Q 1275 3584 1472 3584 
Q 1709 3584 1867 3475 
Q 2025 3366 2113 3144 
z
" id="DejaVuSansMono-6d" transform="scale(0.015625)"/>
       <path d="M 1447 4863 
L 2772 4863 
L 2772 4416 
L 2022 4416 
L 2022 -397 
L 2772 -397 
L 2772 -844 
L 1447 -844 
L 1447 4863 
z
" id="DejaVuSansMono-5b" transform="scale(0.015625)"/>
       <path d="M 2406 4863 
L 2406 -844 
L 1081 -844 
L 1081 -397 
L 1831 -397 
L 1831 4416 
L 1081 4416 
L 1081 4863 
L 2406 4863 
z
" id="DejaVuSansMono-5d" transform="scale(0.015625)"/>
      </defs>
      <use xlink:href="#DejaVuSansMono-52"/>
      <use x="60.205078" xlink:href="#DejaVuSansMono-65"/>
      <use x="120.410156" xlink:href="#DejaVuSansMono-73"/>
      <use x="180.615234" xlink:href="#DejaVuSansMono-70"/>
      <use x="240.820312" xlink:href="#DejaVuSansMono-6f"/>
      <use x="301.025391" xlink:href="#DejaVuSansMono-6e"/>
      <use x="361.230469" xlink:href="#DejaVuSansMono-73"/>
      <use x="421.435547" xlink:href="#DejaVuSansMono-65"/>
      <use x="481.640625" xlink:href="#DejaVuSansMono-20"/>
      <use x="541.845703" xlink:href="#DejaVuSansMono-74"/>
      <use x="602.050781" xlink:href="#DejaVuSansMono-69"/>
      <use x="662.255859" xlink:href="#DejaVuSansMono-6d"/>
      <use x="722.460938" xlink:href="#DejaVuSansMono-65"/>
      <use x="782.666016" xlink:href="#DejaVuSansMono-20"/>
      <use x="842.871094" xlink:href="#DejaVuSansMono-5b"/>
      <use x="903.076172" xlink:href="#DejaVuSansMono-6d"/>
      <use x="963.28125" xlink:href="#DejaVuSansMono-73"/>
      <use x="1023.486328" xlink:href="#DejaVuSansMono-5d"/>
     </g>
    </g>
   </g>
   <g id="line2d_131">
    <path clip-path="url(#p3bbc978881)" d="M 128.601591 48.051 
L 315.203277 48.051 
L 315.389972 50.638808 
L 371.398482 50.638808 
L 371.585177 53.324723 
L 404.256807 53.324723 
L 404.443502 56.198733 
L 427.593686 56.198733 
L 427.780382 57.692537 
L 445.703105 57.692537 
L 445.8898 69.122203 
L 460.452012 69.122203 
L 460.638707 72.267805 
L 472.96058 72.267805 
L 473.147275 75.416813 
L 483.788891 75.416813 
L 483.975586 76.009299 
L 493.403686 76.009299 
L 493.590381 80.45713 
L 501.89831 80.45713 
L 502.085005 85.783527 
L 509.646154 85.783527 
L 509.832849 86.300059 
L 516.647217 86.300059 
L 516.833912 96.997011 
L 523.181543 96.997011 
L 523.368238 99.054187 
L 529.155785 99.054187 
L 529.34248 103.602321 
L 534.756636 103.602321 
L 534.943331 104.843047 
L 539.984096 104.843047 
L 540.170791 108.302641 
L 544.931515 108.302641 
L 545.11821 109.495817 
L 549.598891 109.495817 
L 549.785586 110.681549 
L 553.986224 110.681549 
L 554.172919 111.703577 
L 558.093515 111.703577 
L 558.28021 113.888993 
L 562.01411 113.888993 
L 562.200805 116.131203 
L 565.841359 116.131203 
L 566.028054 120.371198 
L 569.388564 120.371198 
L 569.575259 125.594508 
L 572.842422 125.594508 
L 573.029117 128.68802 
L 576.202933 128.68802 
L 576.389628 130.68419 
L 579.376748 130.68419 
L 579.563443 133.108721 
L 582.457216 133.108721 
L 582.643912 144.626903 
L 585.350989 144.626903 
L 585.537685 147.375405 
L 588.244762 147.375405 
L 588.431458 151.141687 
L 590.95184 151.141687 
L 591.138536 155.971261 
L 593.658918 155.971261 
L 593.845613 157.610662 
L 598.699684 157.613021 
L 598.886379 162.700926 
L 601.12672 162.700926 
L 601.313415 163.361863 
L 605.794096 163.390473 
L 605.980791 163.637978 
L 607.941088 163.637978 
L 608.127784 163.955435 
L 616.342365 164.011956 
L 616.52906 164.285855 
L 620.169613 164.371884 
L 620.356308 164.472476 
L 625.583769 164.494981 
L 625.770464 166.339112 
L 627.357372 166.339112 
L 627.544067 170.855059 
L 630.717883 170.951831 
L 630.904578 171.427603 
L 640.145982 171.5206 
L 640.612719 171.548341 
L 653.681372 171.596803 
L 653.868067 180.895141 
L 654.894889 180.895141 
L 655.081584 183.104848 
L 658.535442 183.177348 
L 658.722138 185.254732 
L 659.655613 185.254732 
L 659.842308 186.674914 
L 660.775783 186.674914 
L 660.962478 191.000071 
L 661.989301 191.000071 
L 662.175996 191.458748 
L 666.376634 191.564887 
L 666.563329 201.493363 
L 667.403457 201.493363 
L 667.590152 201.663767 
L 668.430279 201.663767 
L 668.616974 206.29811 
L 669.457102 206.29811 
L 669.643797 208.796093 
L 670.483925 208.796093 
L 670.67062 209.36938 
L 671.510747 209.36938 
L 671.697442 209.599954 
L 678.231768 209.699171 
L 678.511811 209.742112 
L 683.552577 209.845491 
L 683.739272 211.027086 
L 684.392705 211.027086 
L 684.5794 214.382994 
L 685.232832 214.382994 
L 685.419527 236.522581 
L 686.07296 236.522581 
L 686.259655 245.43558 
L 686.913088 245.43558 
L 687.099783 249.824335 
L 687.753215 249.824335 
L 687.93991 250.878308 
L 688.593343 250.878308 
L 688.780038 251.1646 
L 689.43347 251.1646 
L 689.620165 251.372395 
L 690.180251 251.372395 
L 690.366946 251.653343 
L 691.020378 251.653343 
L 691.207073 251.786203 
L 691.767158 251.786203 
L 691.953853 251.923937 
L 694.100846 251.961219 
L 694.287541 252.045014 
L 696.341187 252.097844 
L 696.527882 252.173844 
L 698.48818 252.266741 
L 698.86157 252.296494 
L 701.288605 252.398186 
L 701.661995 252.436936 
L 703.34225 252.525292 
L 703.808988 252.554318 
L 706.702761 252.644875 
L 707.262846 252.667063 
L 712.957045 252.774627 
L 713.610477 252.794723 
L 741.428037 252.90558 
L 744.041768 252.921199 
L 766.071782 253.031115 
L 767.658689 253.051255 
L 769.432292 253.160232 
L 770.925852 253.549231 
L 771.112547 253.761276 
L 771.205895 253.761276 
L 771.39259 254.873816 
L 771.485938 254.873816 
L 771.672633 281.076964 
L 771.76598 281.076964 
L 771.952675 284.375326 
L 772.046023 284.375326 
L 772.232718 287.671904 
L 772.326065 287.671904 
L 772.51276 288.807485 
L 772.88615 288.876781 
L 773.072845 289.1119 
L 774.099668 289.208384 
L 775.499881 289.347488 
L 778.020264 289.44597 
L 787.821753 289.556453 
L 798.743412 289.677527 
L 798.930107 302.053344 
L 799.116802 302.725569 
L 799.396845 311.286405 
L 799.58354 311.286405 
L 799.770235 312.505821 
L 799.95693 313.374451 
L 800.143625 313.567369 
L 800.33032 313.591727 
L 800.517015 314.595671 
L 800.610363 314.595671 
L 800.797058 315.664121 
L 801.0771 316.223512 
L 801.170448 316.223512 
L 801.45049 316.920809 
L 801.82388 316.923088 
L 802.010575 317.048906 
L 802.944051 317.390111 
L 803.597483 317.539785 
L 804.437611 317.77452 
L 805.091043 317.836031 
L 805.464434 317.949499 
L 807.984817 318.209923 
L 808.824944 318.324212 
L 814.892533 318.434459 
L 823.480504 318.494469 
L 853.258362 318.604875 
L 856.33883 318.618279 
L 877.061979 318.728801 
L 880.889227 318.849153 
L 881.075922 415.103883 
L 881.169269 415.116458 
L 881.355965 416.482551 
L 881.729355 428.287357 
L 881.91605 429.770883 
L 882.102745 430.499405 
L 882.66283 430.695398 
L 882.849525 430.836618 
L 883.222915 432.474148 
L 884.716475 436.383812 
L 884.996518 436.626315 
L 885.183213 436.938659 
L 885.27656 436.9601 
L 885.556603 438.102092 
L 885.743298 438.380071 
L 885.836645 438.487357 
L 886.02334 439.133134 
L 886.210035 439.246252 
L 887.050163 440.182347 
L 887.236858 440.688994 
L 887.516901 440.892263 
L 887.796943 441.082821 
L 887.983638 441.445208 
L 888.170333 441.615666 
L 888.357028 441.803455 
L 888.543723 441.953375 
L 888.637071 442.012607 
L 888.823766 442.223449 
L 888.917113 442.282817 
L 889.103808 442.506042 
L 889.197156 442.527198 
L 889.477198 442.93386 
L 889.570546 442.96571 
L 889.757241 443.171618 
L 889.943936 443.267388 
L 890.223979 443.496487 
L 890.504021 443.636563 
L 890.690716 443.685963 
L 890.877411 444.017612 
L 892.184276 444.637939 
L 892.464319 444.705271 
L 892.651014 444.790163 
L 893.117752 444.880512 
L 893.304447 445.045207 
L 894.051227 445.180374 
L 894.517964 445.248016 
L 895.171397 445.391545 
L 896.291567 445.543389 
L 897.31839 445.623457 
L 897.785127 445.687278 
L 898.625255 445.817745 
L 900.025468 445.914329 
L 900.6789 446.006906 
L 901.612376 446.171819 
L 902.079113 446.234574 
L 904.132759 446.458581 
L 905.066234 446.618651 
L 906.373099 446.784423 
L 907.026532 446.922973 
L 908.053354 447.079552 
L 909.266872 447.256985 
L 912.534035 447.633366 
L 917.014716 447.99987 
L 918.134886 448.091328 
L 921.308702 448.430062 
L 923.268999 448.826951 
L 925.415992 449.055943 
L 926.909553 449.213984 
L 928.216418 449.285381 
L 930.643453 449.396063 
L 934.190659 449.501236 
L 975.730304 450.014425 
L 993.372984 450.121563 
L 995.333282 450.132846 
L 1013.256005 450.240091 
L 1015.309651 450.257034 
L 1032.578941 450.364392 
L 1034.632587 450.381352 
L 1046.394374 450.488824 
L 1048.634714 450.518537 
L 1055.822473 450.626134 
L 1059.463026 450.738082 
L 1061.423324 450.875683 
L 1061.890062 450.976503 
L 1061.983409 451.131451 
L 1061.983409 451.131451 
" style="fill:none;stroke:#1f77b4;stroke-linecap:square;stroke-width:2;"/>
   </g>
   <g id="line2d_132">
    <path clip-path="url(#p3bbc978881)" d="M 128.601591 66.512748 
L 315.203277 66.512748 
L 315.389972 78.19516 
L 371.398482 78.19516 
L 371.585177 79.335078 
L 404.256807 79.335078 
L 404.443502 79.717229 
L 427.593686 79.717229 
L 427.780382 86.726582 
L 445.703105 86.726582 
L 445.8898 88.522354 
L 460.452012 88.522354 
L 460.638707 90.290593 
L 472.96058 90.290593 
L 473.147275 90.599485 
L 483.788891 90.599485 
L 483.975586 100.223794 
L 493.403686 100.223794 
L 493.590381 102.027557 
L 501.89831 102.027557 
L 502.085005 104.214003 
L 509.646154 104.214003 
L 509.832849 106.583446 
L 516.647217 106.583446 
L 516.833912 108.780318 
L 523.181543 108.780318 
L 523.368238 110.189889 
L 529.155785 110.189889 
L 529.34248 110.678222 
L 539.984096 110.711098 
L 540.170791 112.403093 
L 544.931515 112.403093 
L 545.11821 114.672329 
L 549.598891 114.672329 
L 549.785586 115.058559 
L 553.986224 115.058559 
L 554.172919 119.293025 
L 558.093515 119.293025 
L 558.28021 119.807725 
L 562.01411 119.807725 
L 562.200805 121.742263 
L 565.841359 121.742263 
L 566.028054 124.677677 
L 569.388564 124.677677 
L 569.575259 125.069719 
L 572.842422 125.069719 
L 573.029117 127.317596 
L 576.202933 127.317596 
L 576.389628 129.56082 
L 579.376748 129.56082 
L 579.563443 134.970247 
L 585.350989 135.026227 
L 585.537685 140.746973 
L 588.244762 140.746973 
L 588.431458 141.159753 
L 590.95184 141.159753 
L 591.138536 146.266631 
L 593.658918 146.266631 
L 593.845613 155.926838 
L 596.179301 155.926838 
L 596.365996 157.499847 
L 610.181429 157.594269 
L 610.368124 159.195816 
L 612.235074 159.195816 
L 612.421769 163.178103 
L 614.28872 163.178103 
L 614.475415 167.91896 
L 616.342365 167.91896 
L 616.52906 169.356758 
L 618.209315 169.356758 
L 618.39601 169.66271 
L 620.169613 169.66271 
L 620.356308 169.828347 
L 623.810166 169.857394 
L 623.996861 169.947457 
L 627.357372 169.985833 
L 627.544067 170.121756 
L 629.037627 170.121756 
L 629.224322 170.494152 
L 630.717883 170.494152 
L 630.904578 170.703525 
L 632.398138 170.703525 
L 632.584833 170.968077 
L 638.652421 170.998992 
L 638.839116 171.149318 
L 647.147045 171.252026 
L 647.520436 171.285928 
L 680.938846 171.394853 
L 683.085839 171.402145 
L 733.493498 171.51277 
L 738.347569 171.521131 
L 849.524461 171.630273 
L 849.711156 171.640369 
L 849.991199 173.990506 
L 850.084546 177.184199 
L 850.271242 191.409406 
L 850.737979 191.473837 
L 852.231539 191.589902 
L 852.324887 193.503583 
L 852.511582 202.456336 
L 852.698277 205.288524 
L 852.791624 205.339612 
L 852.978319 205.757275 
L 853.071667 205.775021 
L 853.258362 207.010431 
L 853.35171 207.086495 
L 853.538405 207.661425 
L 854.005142 208.169244 
L 854.09849 208.173771 
L 854.378532 208.939655 
L 854.658575 209.072076 
L 861.006206 209.483786 
L 885.183213 209.610587 
L 904.972886 209.719906 
L 914.58768 209.837776 
L 923.829085 209.929473 
L 923.922432 209.960361 
L 924.109127 418.663317 
L 924.38917 431.219242 
L 925.322645 434.219749 
L 925.50934 434.260424 
L 926.162772 436.263374 
L 926.25612 436.383812 
L 926.909553 438.932872 
L 927.096248 439.136988 
L 927.843028 441.616978 
L 928.029723 441.758778 
L 928.216418 442.029724 
L 928.403113 442.871511 
L 928.776503 443.272711 
L 928.963198 443.545828 
L 929.149893 443.831613 
L 929.709978 444.660828 
L 930.176716 445.095201 
L 930.456758 445.429488 
L 930.830148 445.52711 
L 931.296886 445.628887 
L 931.856971 445.755212 
L 932.417056 445.880312 
L 932.883794 445.949718 
L 935.310829 446.200464 
L 957.714233 449.037775 
L 959.674531 449.173404 
L 961.261439 449.254577 
L 1024.457707 450.091949 
L 1035.566062 450.199157 
L 1038.553182 450.227386 
L 1047.514544 450.334717 
L 1050.034927 450.377112 
L 1054.328913 450.464775 
L 1058.529551 450.572323 
L 1061.703367 450.816083 
L 1061.890062 450.911173 
L 1061.983409 451.101583 
L 1061.983409 451.101583 
" style="fill:none;stroke:#808080;stroke-linecap:square;stroke-width:2;"/>
   </g>
   <g id="line2d_133">
    <path clip-path="url(#p3bbc978881)" d="M 128.601591 155.730504 
L 315.203277 155.730504 
L 315.389972 156.287362 
L 371.398482 156.287362 
L 371.585177 156.998242 
L 427.593686 157.068663 
L 427.780382 157.169202 
L 501.89831 157.279589 
L 502.551742 157.296879 
L 534.756636 157.376777 
L 535.130026 157.41233 
L 588.244762 157.52212 
L 591.325231 157.52707 
L 605.794096 157.578468 
L 605.980791 190.432028 
L 610.181429 190.513856 
L 610.368124 190.699856 
L 612.235074 190.699856 
L 612.421769 190.903043 
L 614.28872 190.903043 
L 614.475415 191.037025 
L 623.810166 191.146704 
L 624.463599 191.163164 
L 641.546194 191.27296 
L 642.012932 191.300582 
L 649.854123 191.408621 
L 650.134166 191.452775 
L 651.160989 191.452775 
L 651.347684 203.963933 
L 652.374506 203.963933 
L 652.561201 208.912861 
L 653.681372 208.912861 
L 653.868067 209.430138 
L 661.989301 209.533061 
L 663.202818 209.542955 
L 676.364818 209.652945 
L 676.551513 409.611906 
L 677.298293 409.611906 
L 677.484988 413.293483 
L 678.231768 413.293483 
L 678.418464 414.179091 
L 679.165244 414.179091 
L 679.351939 414.349725 
L 680.005371 414.349725 
L 680.192066 425.787471 
L 680.938846 425.787471 
L 681.125541 427.045861 
L 682.712449 427.079494 
L 682.899144 427.992412 
L 684.392705 428.066079 
L 684.5794 429.364537 
L 686.913088 429.437884 
L 687.099783 429.661755 
L 687.753215 429.661755 
L 687.93991 430.535233 
L 689.43347 430.626046 
L 689.620165 430.931259 
L 690.180251 430.931259 
L 690.366946 431.284135 
L 691.020378 431.284135 
L 691.207073 432.108013 
L 691.767158 432.108013 
L 691.953853 432.292151 
L 692.513939 432.292151 
L 692.700634 432.520299 
L 693.354066 432.520299 
L 693.540761 432.945003 
L 694.100846 432.945003 
L 694.287541 433.103595 
L 694.847626 433.103595 
L 695.034321 433.426315 
L 696.341187 433.492435 
L 696.527882 433.610073 
L 697.087967 433.610073 
L 697.274662 434.250562 
L 697.741399 434.250562 
L 697.928094 434.410921 
L 699.23496 434.509711 
L 699.421655 434.581387 
L 699.888392 434.581387 
L 700.075087 435.754131 
L 700.635172 435.754131 
L 700.821867 435.86905 
L 701.288605 435.86905 
L 701.4753 437.298628 
L 702.035385 437.298628 
L 702.22208 437.759982 
L 702.688818 437.759982 
L 702.875513 438.262678 
L 703.34225 438.262678 
L 703.528945 438.380071 
L 703.995683 438.380071 
L 704.182378 438.740633 
L 704.742463 438.740633 
L 704.929158 438.86363 
L 705.395896 438.86363 
L 705.582591 439.374927 
L 706.049328 439.374927 
L 706.236023 439.526945 
L 707.356194 439.548862 
L 707.542889 439.699814 
L 708.569711 439.715307 
L 708.756406 439.813478 
L 709.223144 439.813478 
L 709.409839 439.986767 
L 710.436662 440.046313 
L 710.716704 440.111072 
L 711.090094 440.111072 
L 711.276789 440.318538 
L 712.303612 440.35618 
L 712.490307 440.695503 
L 712.957045 440.695503 
L 713.14374 441.082821 
L 715.290733 441.159915 
L 715.477428 441.247523 
L 715.850818 441.247523 
L 716.037513 441.407216 
L 716.970988 441.517294 
L 718.091158 441.533028 
L 719.304676 441.599921 
L 719.491371 441.819227 
L 720.891584 441.863926 
L 721.078279 441.934953 
L 722.011754 442.012607 
L 722.198449 442.100851 
L 723.038576 442.211579 
L 723.318619 442.266983 
L 725.652307 442.377867 
L 730.506378 442.54439 
L 733.960236 442.638328 
L 734.240278 442.682015 
L 737.134051 442.761487 
L 737.507441 442.79329 
L 741.428037 442.899365 
L 742.45486 442.928552 
L 746.375456 443.033421 
L 747.122236 443.061313 
L 751.416221 443.1663 
L 752.349697 443.178266 
L 755.430165 443.283357 
L 756.550335 443.316633 
L 761.871143 443.419183 
L 762.711271 443.451165 
L 768.218774 443.557833 
L 769.338945 443.580513 
L 775.219838 443.664599 
L 775.686576 443.697983 
L 781.100732 443.803538 
L 782.314249 443.848996 
L 788.475186 443.950672 
L 789.688703 443.978782 
L 792.769171 444.045738 
L 799.303497 444.152946 
L 800.423668 444.174399 
L 805.091043 444.281725 
L 807.891469 444.332738 
L 815.919355 444.434832 
L 817.039526 444.457681 
L 824.974065 444.56392 
L 827.587795 444.608326 
L 835.615681 444.716047 
L 838.322759 444.761859 
L 846.070603 444.86972 
L 848.684334 444.914242 
L 855.498702 445.022244 
L 858.392475 445.078984 
L 864.460064 445.185784 
L 867.353837 445.242603 
L 874.168206 445.350906 
L 876.688589 445.386126 
L 883.222915 445.561026 
L 886.210035 445.669622 
L 887.516901 445.715806 
L 889.290503 445.823184 
L 894.517964 446.234574 
L 898.625255 446.613175 
L 900.30551 446.722745 
L 910.200347 447.193684 
L 914.681028 447.361644 
L 915.894546 447.39747 
L 923.455695 447.622319 
L 928.776503 447.732832 
L 932.790446 447.860049 
L 937.364474 447.970785 
L 950.526474 448.446746 
L 956.31402 448.640177 
L 960.794701 448.797661 
L 964.528602 448.907885 
L 974.610134 449.167808 
L 979.464204 449.278379 
L 984.785013 449.38485 
L 987.398743 449.43111 
L 1060.583196 450.636049 
L 1061.890062 450.827433 
L 1061.983409 450.970821 
L 1061.983409 450.970821 
" style="fill:none;stroke:#000000;stroke-linecap:square;stroke-width:2;"/>
   </g>
   <g id="line2d_134">
    <path clip-path="url(#p3bbc978881)" d="M 128.601591 157.316172 
L 315.203277 157.316172 
L 315.389972 157.579411 
L 558.093515 157.631776 
L 558.28021 171.51768 
L 585.350989 171.594147 
L 585.537685 191.496161 
L 598.699684 191.581406 
L 598.886379 209.229862 
L 601.12672 209.229862 
L 601.313415 209.526832 
L 612.235074 209.633689 
L 612.421769 209.83153 
L 620.169613 209.887015 
L 620.356308 289.436587 
L 622.036563 289.436587 
L 622.223259 318.421076 
L 625.583769 318.461691 
L 625.770464 318.746383 
L 627.357372 318.746383 
L 627.544067 393.413366 
L 629.037627 393.413366 
L 629.224322 393.571262 
L 630.717883 393.571262 
L 630.904578 404.730449 
L 632.398138 404.730449 
L 632.584833 406.090362 
L 635.571953 406.193307 
L 635.758648 406.331355 
L 638.652421 406.416987 
L 638.839116 406.559195 
L 641.546194 406.575765 
L 641.732889 408.19815 
L 643.039755 408.19815 
L 643.22645 418.908735 
L 644.439967 418.908735 
L 644.626663 419.208904 
L 645.84018 419.208904 
L 646.026875 420.462233 
L 647.147045 420.462233 
L 647.33374 420.715824 
L 648.547258 420.715824 
L 648.733953 422.996143 
L 649.854123 422.996143 
L 650.040818 423.415937 
L 651.160989 423.415937 
L 651.347684 424.030357 
L 653.681372 424.124211 
L 653.868067 424.680952 
L 654.894889 424.680952 
L 655.081584 426.240373 
L 656.108407 426.240373 
L 656.295102 427.361697 
L 657.321925 427.361697 
L 657.50862 427.998256 
L 658.535442 427.998256 
L 658.722138 428.469139 
L 660.775783 428.470313 
L 660.962478 428.601841 
L 661.989301 428.601841 
L 662.175996 428.923057 
L 663.109471 428.923057 
L 663.296166 429.101103 
L 665.256464 429.175466 
L 665.443159 429.368085 
L 666.376634 429.368085 
L 666.563329 430.35978 
L 667.403457 430.35978 
L 667.590152 430.475526 
L 668.430279 430.475526 
L 668.616974 431.088362 
L 669.457102 431.088362 
L 669.643797 431.622398 
L 671.510747 431.636865 
L 671.697442 432.144333 
L 672.53757 432.144333 
L 672.724265 433.266067 
L 673.471045 433.266067 
L 673.65774 434.286315 
L 674.40452 434.286315 
L 674.591215 434.571498 
L 675.431343 434.571498 
L 675.618038 434.789244 
L 676.364818 434.789244 
L 676.551513 435.080612 
L 678.231768 435.11786 
L 678.418464 435.211032 
L 680.005371 435.320447 
L 680.192066 435.696713 
L 680.938846 435.696713 
L 681.125541 436.169367 
L 681.778974 436.169367 
L 681.965669 436.500603 
L 682.712449 436.500603 
L 682.899144 436.774827 
L 684.392705 436.864276 
L 684.5794 437.013088 
L 687.753215 437.112822 
L 688.033258 437.170934 
L 689.43347 437.250568 
L 689.620165 437.384678 
L 690.180251 437.384678 
L 690.366946 437.879417 
L 691.020378 437.879417 
L 691.207073 438.043519 
L 692.513939 438.123745 
L 692.793981 438.172162 
L 694.100846 438.274157 
L 694.380889 438.343054 
L 696.341187 438.440088 
L 696.527882 438.567886 
L 697.087967 438.567886 
L 697.274662 438.848248 
L 699.888392 438.954679 
L 700.168435 439.003438 
L 702.035385 439.099733 
L 702.315428 439.143413 
L 703.995683 439.212819 
L 704.275726 439.261686 
L 707.356194 439.337597 
L 707.636236 439.380077 
L 709.223144 439.477969 
L 709.409839 439.579811 
L 711.090094 439.683032 
L 711.370137 439.748883 
L 712.957045 439.85613 
L 713.14374 439.927251 
L 713.51713 439.927251 
L 713.703825 440.068327 
L 714.730647 440.085164 
L 714.917342 440.291287 
L 715.290733 440.291287 
L 715.477428 440.465281 
L 715.850818 440.465281 
L 716.037513 440.586189 
L 716.410903 440.586189 
L 716.597598 440.760619 
L 718.184506 440.808828 
L 718.371201 441.159915 
L 719.304676 441.225288 
L 719.491371 441.323416 
L 720.331498 441.401977 
L 720.518193 441.555322 
L 720.891584 441.555322 
L 721.078279 441.698361 
L 722.011754 441.748269 
L 722.198449 441.836316 
L 723.038576 441.896804 
L 723.225271 442.062648 
L 724.625484 442.152248 
L 724.812179 442.255108 
L 725.652307 442.322412 
L 725.839002 442.471672 
L 726.67913 442.506042 
L 726.865825 442.666127 
L 727.705952 442.744263 
L 727.892647 442.838361 
L 730.132988 442.937841 
L 730.319683 443.066627 
L 732.093286 443.171618 
L 733.213456 443.268719 
L 734.426973 443.351251 
L 734.800364 443.389874 
L 736.200576 443.485822 
L 736.480619 443.536492 
L 737.974179 443.608535 
L 738.254222 443.66994 
L 738.907654 443.73672 
L 739.187697 443.799528 
L 741.428037 443.910526 
L 741.988122 443.938627 
L 744.415158 444.045738 
L 744.6952 444.091289 
L 745.628675 444.130156 
L 745.81537 444.203904 
L 746.748846 444.287093 
L 747.122236 444.321997 
L 748.335753 444.411988 
L 748.802491 444.467091 
L 750.296051 444.56392 
L 751.602916 444.705271 
L 755.056775 444.807688 
L 755.803555 444.868372 
L 758.884023 444.977681 
L 759.444108 445.010089 
L 763.551399 445.112771 
L 764.578221 445.135752 
L 769.992377 445.242603 
L 771.112547 445.281851 
L 774.939796 445.384771 
L 776.153313 445.441686 
L 781.380774 445.548815 
L 783.341072 445.584094 
L 791.275611 445.692711 
L 793.515951 445.714447 
L 799.303497 445.817745 
L 799.863583 445.840864 
L 808.171512 445.948356 
L 810.598547 445.983755 
L 817.599611 446.091378 
L 820.306689 446.143182 
L 824.880717 446.252315 
L 828.054533 446.3315 
L 832.721908 446.440809 
L 835.428986 446.492766 
L 840.18971 446.596748 
L 841.403227 446.63645 
L 844.483695 446.739189 
L 845.697213 446.774826 
L 847.564164 446.883175 
L 848.777681 446.918855 
L 871.36778 447.807486 
L 874.728291 447.918172 
L 877.808759 447.994329 
L 881.169269 448.103805 
L 882.009397 448.149565 
L 885.929993 448.331395 
L 888.637071 448.441184 
L 892.184276 448.594226 
L 909.920305 449.278379 
L 913.934248 449.38485 
L 917.108063 449.466168 
L 922.988957 449.572808 
L 925.415992 449.607908 
L 932.697099 449.718893 
L 958.180971 449.991883 
L 973.209921 450.098999 
L 976.103694 450.120152 
L 987.772133 450.186456 
L 1004.668034 450.29375 
L 1007.468459 450.3107 
L 1023.337537 450.418108 
L 1026.23131 450.442146 
L 1038.086445 450.548258 
L 1040.233438 450.572323 
L 1048.261324 450.679969 
L 1051.901877 450.738082 
L 1057.035991 450.845879 
L 1061.983409 451.251 
L 1061.983409 451.251 
" style="fill:none;stroke:#ffa500;stroke-linecap:square;stroke-width:2;"/>
   </g>
   <g id="line2d_135">
    <path clip-path="url(#p3bbc978881)" d="M 128.601591 101.168213 
L 315.203277 101.168213 
L 315.389972 106.966586 
L 371.398482 106.966586 
L 371.585177 125.992141 
L 404.256807 125.992141 
L 404.443502 132.9296 
L 427.593686 132.9296 
L 427.780382 133.623474 
L 445.703105 133.623474 
L 445.8898 136.242621 
L 472.96058 136.311219 
L 473.147275 138.490381 
L 483.788891 138.490381 
L 483.975586 139.574204 
L 493.403686 139.574204 
L 493.590381 141.84369 
L 501.89831 141.84369 
L 502.085005 145.022882 
L 509.646154 145.022882 
L 509.832849 147.79246 
L 516.647217 147.79246 
L 516.833912 154.011231 
L 523.181543 154.011231 
L 523.368238 157.577878 
L 553.986224 157.615616 
L 554.172919 160.967376 
L 558.093515 160.967376 
L 558.28021 170.051874 
L 562.01411 170.051874 
L 562.200805 171.548341 
L 569.388564 171.553385 
L 569.575259 186.276702 
L 572.842422 186.276702 
L 573.029117 186.55846 
L 576.202933 186.55846 
L 576.389628 191.518016 
L 588.244762 191.562212 
L 588.431458 199.916322 
L 593.658918 199.971384 
L 593.845613 202.391306 
L 596.179301 202.391306 
L 596.365996 204.675608 
L 598.699684 204.675608 
L 598.886379 204.984929 
L 603.460408 205.03518 
L 603.647103 205.94178 
L 605.794096 205.94178 
L 605.980791 206.343575 
L 607.941088 206.343575 
L 608.127784 207.265006 
L 616.342365 207.374329 
L 616.809103 207.402935 
L 623.810166 207.47313 
L 624.090209 207.536522 
L 630.717883 207.641049 
L 631.277968 207.660703 
L 638.652421 207.727263 
L 638.839116 207.830876 
L 641.546194 207.921025 
L 641.732889 208.032586 
L 645.84018 208.118363 
L 646.026875 208.266539 
L 652.374506 208.35938 
L 652.561201 208.436137 
L 658.535442 208.521482 
L 658.908833 208.558726 
L 667.403457 208.658708 
L 667.776847 208.689264 
L 674.40452 208.773154 
L 674.77791 208.803741 
L 681.778974 208.910674 
L 682.339059 208.930541 
L 687.753215 209.04069 
L 688.406648 209.058389 
L 694.100846 209.168476 
L 694.940974 209.185281 
L 709.223144 209.289635 
L 710.343314 209.299692 
L 741.894775 209.409272 
L 749.455924 209.433067 
L 804.157568 209.543871 
L 829.081355 209.579973 
L 924.202475 209.690732 
L 973.956701 209.873233 
L 987.772133 209.941055 
L 987.865481 210.063011 
L 988.052176 284.042202 
L 988.425566 286.73781 
L 988.518914 286.905105 
L 988.798956 287.922441 
L 989.078999 288.626718 
L 989.359041 288.88576 
L 991.225992 289.228194 
L 998.693793 289.494339 
L 1012.602573 289.598725 
L 1021.190544 289.720203 
L 1021.283892 289.749145 
L 1021.470587 313.504503 
L 1021.657282 316.137941 
L 1021.937324 317.422593 
L 1022.310715 317.837868 
L 1025.85792 318.469077 
L 1029.125083 318.567908 
L 1043.780643 318.828314 
L 1043.967338 439.347894 
L 1044.247381 446.320575 
L 1044.434076 447.038327 
L 1045.460899 448.622073 
L 1046.394374 449.272778 
L 1047.514544 449.595271 
L 1053.488785 450.292338 
L 1056.475906 450.447803 
L 1061.049934 450.762186 
L 1061.890062 450.9694 
L 1061.983409 451.196903 
L 1061.983409 451.196903 
" style="fill:none;stroke:#008000;stroke-linecap:square;stroke-width:2;"/>
   </g>
   <g id="patch_3">
    <path d="M 81.9325 471.411 
L 81.9325 27.891 
" style="fill:none;stroke:#000000;stroke-linecap:square;stroke-linejoin:miter;stroke-width:0.8;"/>
   </g>
   <g id="patch_4">
    <path d="M 1108.6525 471.411 
L 1108.6525 27.891 
" style="fill:none;stroke:#000000;stroke-linecap:square;stroke-linejoin:miter;stroke-width:0.8;"/>
   </g>
   <g id="patch_5">
    <path d="M 81.9325 471.411 
L 1108.6525 471.411 
" style="fill:none;stroke:#000000;stroke-linecap:square;stroke-linejoin:miter;stroke-width:0.8;"/>
   </g>
   <g id="patch_6">
    <path d="M 81.9325 27.891 
L 1108.6525 27.891 
" style="fill:none;stroke:#000000;stroke-linecap:square;stroke-linejoin:miter;stroke-width:0.8;"/>
   </g>
   <g id="text_10">
    <!-- Resolver Response Time - cz_zone_from_taiwan -->
    <g transform="translate(340.9945 21.891)scale(0.192 -0.192)">
     <defs>
      <path d="M 313 3500 
L 909 3500 
L 1925 563 
L 2944 3500 
L 3541 3500 
L 2297 0 
L 1556 0 
L 313 3500 
z
" id="DejaVuSansMono-76" transform="scale(0.015625)"/>
      <path d="M 147 4666 
L 3706 4666 
L 3706 4134 
L 2247 4134 
L 2247 0 
L 1613 0 
L 1613 4134 
L 147 4134 
L 147 4666 
z
" id="DejaVuSansMono-54" transform="scale(0.015625)"/>
      <path d="M 1113 2009 
L 2741 2009 
L 2741 1497 
L 1113 1497 
L 1113 2009 
z
" id="DejaVuSansMono-2d" transform="scale(0.015625)"/>
      <path d="M 709 3506 
L 3250 3506 
L 3250 2981 
L 1241 469 
L 3250 469 
L 3250 0 
L 634 0 
L 634 531 
L 2644 3047 
L 709 3047 
L 709 3506 
z
" id="DejaVuSansMono-7a" transform="scale(0.015625)"/>
      <path d="M 3853 -1259 
L 3853 -1509 
L 0 -1509 
L 0 -1259 
L 3853 -1259 
z
" id="DejaVuSansMono-5f" transform="scale(0.015625)"/>
      <path d="M 3322 4863 
L 3322 4384 
L 2669 4384 
Q 2359 4384 2239 4257 
Q 2119 4131 2119 3809 
L 2119 3500 
L 3322 3500 
L 3322 3053 
L 2119 3053 
L 2119 0 
L 1544 0 
L 1544 3053 
L 609 3053 
L 609 3500 
L 1544 3500 
L 1544 3744 
Q 1544 4319 1808 4591 
Q 2072 4863 2631 4863 
L 3322 4863 
z
" id="DejaVuSansMono-66" transform="scale(0.015625)"/>
     </defs>
     <use xlink:href="#DejaVuSansMono-52"/>
     <use x="60.205078" xlink:href="#DejaVuSansMono-65"/>
     <use x="120.410156" xlink:href="#DejaVuSansMono-73"/>
     <use x="180.615234" xlink:href="#DejaVuSansMono-6f"/>
     <use x="240.820312" xlink:href="#DejaVuSansMono-6c"/>
     <use x="301.025391" xlink:href="#DejaVuSansMono-76"/>
     <use x="361.230469" xlink:href="#DejaVuSansMono-65"/>
     <use x="421.435547" xlink:href="#DejaVuSansMono-72"/>
     <use x="481.640625" xlink:href="#DejaVuSansMono-20"/>
     <use x="541.845703" xlink:href="#DejaVuSansMono-52"/>
     <use x="602.050781" xlink:href="#DejaVuSansMono-65"/>
     <use x="662.255859" xlink:href="#DejaVuSansMono-73"/>
     <use x="722.460938" xlink:href="#DejaVuSansMono-70"/>
     <use x="782.666016" xlink:href="#DejaVuSansMono-6f"/>
     <use x="842.871094" xlink:href="#DejaVuSansMono-6e"/>
     <use x="903.076172" xlink:href="#DejaVuSansMono-73"/>
     <use x="963.28125" xlink:href="#DejaVuSansMono-65"/>
     <use x="1023.486328" xlink:href="#DejaVuSansMono-20"/>
     <use x="1083.691406" xlink:href="#DejaVuSansMono-54"/>
     <use x="1143.896484" xlink:href="#DejaVuSansMono-69"/>
     <use x="1204.101562" xlink:href="#DejaVuSansMono-6d"/>
     <use x="1264.306641" xlink:href="#DejaVuSansMono-65"/>
     <use x="1324.511719" xlink:href="#DejaVuSansMono-20"/>
     <use x="1384.716797" xlink:href="#DejaVuSansMono-2d"/>
     <use x="1444.921875" xlink:href="#DejaVuSansMono-20"/>
     <use x="1505.126953" xlink:href="#DejaVuSansMono-63"/>
     <use x="1565.332031" xlink:href="#DejaVuSansMono-7a"/>
     <use x="1625.537109" xlink:href="#DejaVuSansMono-5f"/>
     <use x="1685.742188" xlink:href="#DejaVuSansMono-7a"/>
     <use x="1745.947266" xlink:href="#DejaVuSansMono-6f"/>
     <use x="1806.152344" xlink:href="#DejaVuSansMono-6e"/>
     <use x="1866.357422" xlink:href="#DejaVuSansMono-65"/>
     <use x="1926.5625" xlink:href="#DejaVuSansMono-5f"/>
     <use x="1986.767578" xlink:href="#DejaVuSansMono-66"/>
     <use x="2046.972656" xlink:href="#DejaVuSansMono-72"/>
     <use x="2107.177734" xlink:href="#DejaVuSansMono-6f"/>
     <use x="2167.382812" xlink:href="#DejaVuSansMono-6d"/>
     <use x="2227.587891" xlink:href="#DejaVuSansMono-5f"/>
     <use x="2287.792969" xlink:href="#DejaVuSansMono-74"/>
     <use x="2347.998047" xlink:href="#DejaVuSansMono-61"/>
     <use x="2408.203125" xlink:href="#DejaVuSansMono-69"/>
     <use x="2468.408203" xlink:href="#DejaVuSansMono-77"/>
     <use x="2528.613281" xlink:href="#DejaVuSansMono-61"/>
     <use x="2588.818359" xlink:href="#DejaVuSansMono-6e"/>
    </g>
   </g>
   <g id="legend_1">
    <g id="patch_7">
     <path d="M 940.295 158.541 
L 1097.4525 158.541 
Q 1100.6525 158.541 1100.6525 155.341 
L 1100.6525 39.091 
Q 1100.6525 35.891 1097.4525 35.891 
L 940.295 35.891 
Q 937.095 35.891 937.095 39.091 
L 937.095 155.341 
Q 937.095 158.541 940.295 158.541 
z
" style="fill:#ffffff;opacity:0.8;stroke:#cccccc;stroke-linejoin:miter;"/>
    </g>
    <g id="line2d_136">
     <path d="M 943.495 48.9335 
L 975.495 48.9335 
" style="fill:none;stroke:#1f77b4;stroke-linecap:square;stroke-width:2;"/>
    </g>
    <g id="line2d_137"/>
    <g id="text_11">
     <!-- kresd-5.4.2 -->
     <g transform="translate(988.295 54.5335)scale(0.16 -0.16)">
      <defs>
       <path d="M 2681 3053 
L 2681 4863 
L 3256 4863 
L 3256 0 
L 2681 0 
L 2681 441 
Q 2538 181 2298 45 
Q 2059 -91 1747 -91 
Q 1113 -91 748 401 
Q 384 894 384 1759 
Q 384 2613 750 3098 
Q 1116 3584 1747 3584 
Q 2063 3584 2303 3448 
Q 2544 3313 2681 3053 
z
M 991 1747 
Q 991 1078 1203 737 
Q 1416 397 1831 397 
Q 2247 397 2464 740 
Q 2681 1084 2681 1747 
Q 2681 2413 2464 2755 
Q 2247 3097 1831 3097 
Q 1416 3097 1203 2756 
Q 991 2416 991 1747 
z
" id="DejaVuSansMono-64" transform="scale(0.015625)"/>
       <path d="M 647 4666 
L 3009 4666 
L 3009 4134 
L 1222 4134 
L 1222 2988 
Q 1356 3038 1492 3061 
Q 1628 3084 1766 3084 
Q 2491 3084 2916 2656 
Q 3341 2228 3341 1497 
Q 3341 759 2895 334 
Q 2450 -91 1678 -91 
Q 1306 -91 998 -41 
Q 691 9 447 109 
L 447 750 
Q 734 594 1025 517 
Q 1316 441 1619 441 
Q 2141 441 2423 716 
Q 2706 991 2706 1497 
Q 2706 1997 2414 2275 
Q 2122 2553 1600 2553 
Q 1347 2553 1106 2495 
Q 866 2438 647 2322 
L 647 4666 
z
" id="DejaVuSansMono-35" transform="scale(0.015625)"/>
       <path d="M 2297 4091 
L 825 1625 
L 2297 1625 
L 2297 4091 
z
M 2194 4666 
L 2925 4666 
L 2925 1625 
L 3547 1625 
L 3547 1113 
L 2925 1113 
L 2925 0 
L 2297 0 
L 2297 1113 
L 319 1113 
L 319 1709 
L 2194 4666 
z
" id="DejaVuSansMono-34" transform="scale(0.015625)"/>
       <path d="M 1166 531 
L 3309 531 
L 3309 0 
L 475 0 
L 475 531 
Q 1059 1147 1496 1619 
Q 1934 2091 2100 2284 
Q 2413 2666 2522 2902 
Q 2631 3138 2631 3384 
Q 2631 3775 2401 3997 
Q 2172 4219 1772 4219 
Q 1488 4219 1175 4116 
Q 863 4013 513 3803 
L 513 4441 
Q 834 4594 1145 4672 
Q 1456 4750 1759 4750 
Q 2444 4750 2861 4386 
Q 3278 4022 3278 3431 
Q 3278 3131 3139 2831 
Q 3000 2531 2688 2169 
Q 2513 1966 2180 1606 
Q 1847 1247 1166 531 
z
" id="DejaVuSansMono-32" transform="scale(0.015625)"/>
      </defs>
      <use xlink:href="#DejaVuSansMono-6b"/>
      <use x="60.205078" xlink:href="#DejaVuSansMono-72"/>
      <use x="120.410156" xlink:href="#DejaVuSansMono-65"/>
      <use x="180.615234" xlink:href="#DejaVuSansMono-73"/>
      <use x="240.820312" xlink:href="#DejaVuSansMono-64"/>
      <use x="301.025391" xlink:href="#DejaVuSansMono-2d"/>
      <use x="361.230469" xlink:href="#DejaVuSansMono-35"/>
      <use x="421.435547" xlink:href="#DejaVuSansMono-2e"/>
      <use x="481.640625" xlink:href="#DejaVuSansMono-34"/>
      <use x="541.845703" xlink:href="#DejaVuSansMono-2e"/>
      <use x="602.050781" xlink:href="#DejaVuSansMono-32"/>
     </g>
    </g>
    <g id="line2d_138">
     <path d="M 943.495 72.5035 
L 975.495 72.5035 
" style="fill:none;stroke:#808080;stroke-linecap:square;stroke-width:2;"/>
    </g>
    <g id="line2d_139"/>
    <g id="text_12">
     <!-- kresd-5.2.1 -->
     <g transform="translate(988.295 78.1035)scale(0.16 -0.16)">
      <use xlink:href="#DejaVuSansMono-6b"/>
      <use x="60.205078" xlink:href="#DejaVuSansMono-72"/>
      <use x="120.410156" xlink:href="#DejaVuSansMono-65"/>
      <use x="180.615234" xlink:href="#DejaVuSansMono-73"/>
      <use x="240.820312" xlink:href="#DejaVuSansMono-64"/>
      <use x="301.025391" xlink:href="#DejaVuSansMono-2d"/>
      <use x="361.230469" xlink:href="#DejaVuSansMono-35"/>
      <use x="421.435547" xlink:href="#DejaVuSansMono-2e"/>
      <use x="481.640625" xlink:href="#DejaVuSansMono-32"/>
      <use x="541.845703" xlink:href="#DejaVuSansMono-2e"/>
      <use x="602.050781" xlink:href="#DejaVuSansMono-31"/>
     </g>
    </g>
    <g id="line2d_140">
     <path d="M 943.495 96.0735 
L 975.495 96.0735 
" style="fill:none;stroke:#000000;stroke-linecap:square;stroke-width:2;"/>
    </g>
    <g id="line2d_141"/>
    <g id="text_13">
     <!-- bind -->
     <g transform="translate(988.295 101.6735)scale(0.16 -0.16)">
      <defs>
       <path d="M 2869 1747 
Q 2869 2416 2656 2756 
Q 2444 3097 2028 3097 
Q 1609 3097 1393 2755 
Q 1178 2413 1178 1747 
Q 1178 1084 1393 740 
Q 1609 397 2028 397 
Q 2444 397 2656 737 
Q 2869 1078 2869 1747 
z
M 1178 3053 
Q 1316 3309 1558 3446 
Q 1800 3584 2119 3584 
Q 2750 3584 3112 3098 
Q 3475 2613 3475 1759 
Q 3475 894 3111 401 
Q 2747 -91 2113 -91 
Q 1800 -91 1561 45 
Q 1322 181 1178 441 
L 1178 0 
L 603 0 
L 603 4863 
L 1178 4863 
L 1178 3053 
z
" id="DejaVuSansMono-62" transform="scale(0.015625)"/>
      </defs>
      <use xlink:href="#DejaVuSansMono-62"/>
      <use x="60.205078" xlink:href="#DejaVuSansMono-69"/>
      <use x="120.410156" xlink:href="#DejaVuSansMono-6e"/>
      <use x="180.615234" xlink:href="#DejaVuSansMono-64"/>
     </g>
    </g>
    <g id="line2d_142">
     <path d="M 943.495 119.6435 
L 975.495 119.6435 
" style="fill:none;stroke:#ffa500;stroke-linecap:square;stroke-width:2;"/>
    </g>
    <g id="line2d_143"/>
    <g id="text_14">
     <!-- pdns -->
     <g transform="translate(988.295 125.2435)scale(0.16 -0.16)">
      <use xlink:href="#DejaVuSansMono-70"/>
      <use x="60.205078" xlink:href="#DejaVuSansMono-64"/>
      <use x="120.410156" xlink:href="#DejaVuSansMono-6e"/>
      <use x="180.615234" xlink:href="#DejaVuSansMono-73"/>
     </g>
    </g>
    <g id="line2d_144">
     <path d="M 943.495 143.2135 
L 975.495 143.2135 
" style="fill:none;stroke:#008000;stroke-linecap:square;stroke-width:2;"/>
    </g>
    <g id="line2d_145"/>
    <g id="text_15">
     <!-- unbound -->
     <g transform="translate(988.295 148.8135)scale(0.16 -0.16)">
      <defs>
       <path d="M 609 1325 
L 609 3494 
L 1184 3494 
L 1184 1325 
Q 1184 853 1351 631 
Q 1519 409 1869 409 
Q 2275 409 2490 695 
Q 2706 981 2706 1516 
L 2706 3494 
L 3284 3494 
L 3284 0 
L 2706 0 
L 2706 525 
Q 2553 222 2289 65 
Q 2025 -91 1672 -91 
Q 1134 -91 871 261 
Q 609 613 609 1325 
z
" id="DejaVuSansMono-75" transform="scale(0.015625)"/>
      </defs>
      <use xlink:href="#DejaVuSansMono-75"/>
      <use x="60.205078" xlink:href="#DejaVuSansMono-6e"/>
      <use x="120.410156" xlink:href="#DejaVuSansMono-62"/>
      <use x="180.615234" xlink:href="#DejaVuSansMono-6f"/>
      <use x="240.820312" xlink:href="#DejaVuSansMono-75"/>
      <use x="301.025391" xlink:href="#DejaVuSansMono-6e"/>
      <use x="361.230469" xlink:href="#DejaVuSansMono-64"/>
     </g>
    </g>
   </g>
  </g>
 </g>
 <defs>
  <clipPath id="p3bbc978881">
   <rect height="443.52" width="1026.72" x="81.9325" y="27.891"/>
  </clipPath>
 </defs>
</svg>
