<?xml version="1.0" encoding="utf-8" standalone="no"?>
<!DOCTYPE svg PUBLIC "-//W3C//DTD SVG 1.1//EN"
  "http://www.w3.org/Graphics/SVG/1.1/DTD/svg11.dtd">
<svg height="520.7835pt" version="1.1" viewBox="0 0 1096.6125 520.7835" width="1096.6125pt" xmlns="http://www.w3.org/2000/svg" xmlns:xlink="http://www.w3.org/1999/xlink">
 <metadata>
  <rdf:RDF xmlns:cc="http://creativecommons.org/ns#" xmlns:dc="http://purl.org/dc/elements/1.1/" xmlns:rdf="http://www.w3.org/1999/02/22-rdf-syntax-ns#">
   <cc:Work>
    <dc:type rdf:resource="http://purl.org/dc/dcmitype/StillImage"/>
    <dc:date>2021-11-08T22:37:21.327399</dc:date>
    <dc:format>image/svg+xml</dc:format>
    <dc:creator>
     <cc:Agent>
      <dc:title>Matplotlib v3.4.3, https://matplotlib.org/</dc:title>
     </cc:Agent>
    </dc:creator>
   </cc:Work>
  </rdf:RDF>
 </metadata>
 <defs>
  <style type="text/css">*{stroke-linecap:butt;stroke-linejoin:round;}</style>
 </defs>
 <g id="figure_1">
  <g id="patch_1">
   <path d="M 0 520.7835 
L 1096.6125 520.7835 
L 1096.6125 0 
L 0 0 
z
" style="fill:#ffffff;"/>
  </g>
  <g id="axes_1">
   <g id="patch_2">
    <path d="M 62.6925 471.411 
L 1089.4125 471.411 
L 1089.4125 27.891 
L 62.6925 27.891 
z
" style="fill:#ffffff;"/>
   </g>
   <g id="matplotlib.axis_1">
    <g id="xtick_1">
     <g id="line2d_1">
      <defs>
       <path d="M 0 0 
L 0 3.5 
" id="m3c57dc0912" style="stroke:#000000;stroke-width:0.8;"/>
      </defs>
      <g>
       <use style="stroke:#000000;stroke-width:0.8;" x="109.361591" xlink:href="#m3c57dc0912" y="471.411"/>
      </g>
     </g>
     <g id="text_1">
      <!-- 0 -->
      <g transform="translate(104.545341 490.6535)scale(0.16 -0.16)">
       <defs>
        <path d="M 1509 2344 
Q 1509 2516 1629 2641 
Q 1750 2766 1919 2766 
Q 2094 2766 2219 2641 
Q 2344 2516 2344 2344 
Q 2344 2169 2220 2047 
Q 2097 1925 1919 1925 
Q 1744 1925 1626 2044 
Q 1509 2163 1509 2344 
z
M 1925 4250 
Q 1484 4250 1267 3775 
Q 1050 3300 1050 2328 
Q 1050 1359 1267 884 
Q 1484 409 1925 409 
Q 2369 409 2586 884 
Q 2803 1359 2803 2328 
Q 2803 3300 2586 3775 
Q 2369 4250 1925 4250 
z
M 1925 4750 
Q 2672 4750 3055 4137 
Q 3438 3525 3438 2328 
Q 3438 1134 3055 521 
Q 2672 -91 1925 -91 
Q 1178 -91 797 521 
Q 416 1134 416 2328 
Q 416 3525 797 4137 
Q 1178 4750 1925 4750 
z
" id="DejaVuSansMono-30" transform="scale(0.015625)"/>
       </defs>
       <use xlink:href="#DejaVuSansMono-30"/>
      </g>
     </g>
    </g>
    <g id="xtick_2">
     <g id="line2d_2">
      <g>
       <use style="stroke:#000000;stroke-width:0.8;" x="317.010494" xlink:href="#m3c57dc0912" y="471.411"/>
      </g>
     </g>
     <g id="text_2">
      <!-- 200 -->
      <g transform="translate(302.561744 490.6535)scale(0.16 -0.16)">
       <defs>
        <path d="M 1166 531 
L 3309 531 
L 3309 0 
L 475 0 
L 475 531 
Q 1059 1147 1496 1619 
Q 1934 2091 2100 2284 
Q 2413 2666 2522 2902 
Q 2631 3138 2631 3384 
Q 2631 3775 2401 3997 
Q 2172 4219 1772 4219 
Q 1488 4219 1175 4116 
Q 863 4013 513 3803 
L 513 4441 
Q 834 4594 1145 4672 
Q 1456 4750 1759 4750 
Q 2444 4750 2861 4386 
Q 3278 4022 3278 3431 
Q 3278 3131 3139 2831 
Q 3000 2531 2688 2169 
Q 2513 1966 2180 1606 
Q 1847 1247 1166 531 
z
" id="DejaVuSansMono-32" transform="scale(0.015625)"/>
       </defs>
       <use xlink:href="#DejaVuSansMono-32"/>
       <use x="60.205078" xlink:href="#DejaVuSansMono-30"/>
       <use x="120.410156" xlink:href="#DejaVuSansMono-30"/>
      </g>
     </g>
    </g>
    <g id="xtick_3">
     <g id="line2d_3">
      <g>
       <use style="stroke:#000000;stroke-width:0.8;" x="524.659397" xlink:href="#m3c57dc0912" y="471.411"/>
      </g>
     </g>
     <g id="text_3">
      <!-- 400 -->
      <g transform="translate(510.210647 490.6535)scale(0.16 -0.16)">
       <defs>
        <path d="M 2297 4091 
L 825 1625 
L 2297 1625 
L 2297 4091 
z
M 2194 4666 
L 2925 4666 
L 2925 1625 
L 3547 1625 
L 3547 1113 
L 2925 1113 
L 2925 0 
L 2297 0 
L 2297 1113 
L 319 1113 
L 319 1709 
L 2194 4666 
z
" id="DejaVuSansMono-34" transform="scale(0.015625)"/>
       </defs>
       <use xlink:href="#DejaVuSansMono-34"/>
       <use x="60.205078" xlink:href="#DejaVuSansMono-30"/>
       <use x="120.410156" xlink:href="#DejaVuSansMono-30"/>
      </g>
     </g>
    </g>
    <g id="xtick_4">
     <g id="line2d_4">
      <g>
       <use style="stroke:#000000;stroke-width:0.8;" x="732.308299" xlink:href="#m3c57dc0912" y="471.411"/>
      </g>
     </g>
     <g id="text_4">
      <!-- 600 -->
      <g transform="translate(717.859549 490.6535)scale(0.16 -0.16)">
       <defs>
        <path d="M 3097 4563 
L 3097 3981 
Q 2900 4097 2678 4158 
Q 2456 4219 2216 4219 
Q 1616 4219 1306 3767 
Q 997 3316 997 2438 
Q 1147 2750 1412 2917 
Q 1678 3084 2022 3084 
Q 2697 3084 3067 2670 
Q 3438 2256 3438 1497 
Q 3438 741 3056 325 
Q 2675 -91 1984 -91 
Q 1172 -91 794 492 
Q 416 1075 416 2328 
Q 416 3509 870 4129 
Q 1325 4750 2188 4750 
Q 2419 4750 2650 4701 
Q 2881 4653 3097 4563 
z
M 1972 2591 
Q 1569 2591 1337 2300 
Q 1106 2009 1106 1497 
Q 1106 984 1337 693 
Q 1569 403 1972 403 
Q 2391 403 2603 679 
Q 2816 956 2816 1497 
Q 2816 2041 2603 2316 
Q 2391 2591 1972 2591 
z
" id="DejaVuSansMono-36" transform="scale(0.015625)"/>
       </defs>
       <use xlink:href="#DejaVuSansMono-36"/>
       <use x="60.205078" xlink:href="#DejaVuSansMono-30"/>
       <use x="120.410156" xlink:href="#DejaVuSansMono-30"/>
      </g>
     </g>
    </g>
    <g id="xtick_5">
     <g id="line2d_5">
      <g>
       <use style="stroke:#000000;stroke-width:0.8;" x="939.957202" xlink:href="#m3c57dc0912" y="471.411"/>
      </g>
     </g>
     <g id="text_5">
      <!-- 800 -->
      <g transform="translate(925.508452 490.6535)scale(0.16 -0.16)">
       <defs>
        <path d="M 1925 2216 
Q 1503 2216 1273 1980 
Q 1044 1744 1044 1313 
Q 1044 881 1276 642 
Q 1509 403 1925 403 
Q 2350 403 2579 639 
Q 2809 875 2809 1313 
Q 2809 1741 2576 1978 
Q 2344 2216 1925 2216 
z
M 1375 2478 
Q 972 2581 745 2862 
Q 519 3144 519 3541 
Q 519 4097 897 4423 
Q 1275 4750 1925 4750 
Q 2578 4750 2956 4423 
Q 3334 4097 3334 3541 
Q 3334 3144 3107 2862 
Q 2881 2581 2478 2478 
Q 2947 2375 3195 2062 
Q 3444 1750 3444 1253 
Q 3444 622 3041 265 
Q 2638 -91 1925 -91 
Q 1213 -91 811 264 
Q 409 619 409 1247 
Q 409 1747 657 2061 
Q 906 2375 1375 2478 
z
M 1147 3481 
Q 1147 3106 1347 2909 
Q 1547 2713 1925 2713 
Q 2306 2713 2506 2909 
Q 2706 3106 2706 3481 
Q 2706 3863 2507 4063 
Q 2309 4263 1925 4263 
Q 1547 4263 1347 4061 
Q 1147 3859 1147 3481 
z
" id="DejaVuSansMono-38" transform="scale(0.015625)"/>
       </defs>
       <use xlink:href="#DejaVuSansMono-38"/>
       <use x="60.205078" xlink:href="#DejaVuSansMono-30"/>
       <use x="120.410156" xlink:href="#DejaVuSansMono-30"/>
      </g>
     </g>
    </g>
    <g id="text_6">
     <!-- Client query number -->
     <g transform="translate(484.54375 510.2235)scale(0.16 -0.16)">
      <defs>
       <path d="M 3353 166 
Q 3113 38 2859 -26 
Q 2606 -91 2322 -91 
Q 1425 -91 929 543 
Q 434 1178 434 2328 
Q 434 3472 932 4111 
Q 1431 4750 2322 4750 
Q 2606 4750 2859 4686 
Q 3113 4622 3353 4494 
L 3353 3847 
Q 3122 4038 2856 4138 
Q 2591 4238 2322 4238 
Q 1706 4238 1400 3763 
Q 1094 3288 1094 2328 
Q 1094 1372 1400 897 
Q 1706 422 2322 422 
Q 2597 422 2861 522 
Q 3125 622 3353 813 
L 3353 166 
z
" id="DejaVuSansMono-43" transform="scale(0.015625)"/>
       <path d="M 1997 1269 
Q 1997 881 2139 684 
Q 2281 488 2559 488 
L 3231 488 
L 3231 0 
L 2503 0 
Q 1988 0 1705 331 
Q 1422 663 1422 1269 
L 1422 4447 
L 500 4447 
L 500 4897 
L 1997 4897 
L 1997 1269 
z
" id="DejaVuSansMono-6c" transform="scale(0.015625)"/>
       <path d="M 800 3500 
L 2272 3500 
L 2272 447 
L 3413 447 
L 3413 0 
L 556 0 
L 556 447 
L 1697 447 
L 1697 3053 
L 800 3053 
L 800 3500 
z
M 1697 4863 
L 2272 4863 
L 2272 4134 
L 1697 4134 
L 1697 4863 
z
" id="DejaVuSansMono-69" transform="scale(0.015625)"/>
       <path d="M 3475 1894 
L 3475 1613 
L 984 1613 
L 984 1594 
Q 984 1022 1282 709 
Q 1581 397 2125 397 
Q 2400 397 2700 484 
Q 3000 572 3341 750 
L 3341 178 
Q 3013 44 2708 -23 
Q 2403 -91 2119 -91 
Q 1303 -91 843 398 
Q 384 888 384 1747 
Q 384 2584 834 3084 
Q 1284 3584 2034 3584 
Q 2703 3584 3089 3131 
Q 3475 2678 3475 1894 
z
M 2900 2063 
Q 2888 2569 2661 2833 
Q 2434 3097 2009 3097 
Q 1594 3097 1325 2822 
Q 1056 2547 1006 2059 
L 2900 2063 
z
" id="DejaVuSansMono-65" transform="scale(0.015625)"/>
       <path d="M 3284 2169 
L 3284 0 
L 2706 0 
L 2706 2169 
Q 2706 2641 2540 2862 
Q 2375 3084 2022 3084 
Q 1619 3084 1401 2798 
Q 1184 2513 1184 1978 
L 1184 0 
L 609 0 
L 609 3500 
L 1184 3500 
L 1184 2975 
Q 1338 3275 1600 3429 
Q 1863 3584 2222 3584 
Q 2756 3584 3020 3232 
Q 3284 2881 3284 2169 
z
" id="DejaVuSansMono-6e" transform="scale(0.015625)"/>
       <path d="M 1919 4494 
L 1919 3500 
L 3225 3500 
L 3225 3053 
L 1919 3053 
L 1919 1153 
Q 1919 766 2066 612 
Q 2213 459 2578 459 
L 3225 459 
L 3225 0 
L 2522 0 
Q 1875 0 1609 259 
Q 1344 519 1344 1153 
L 1344 3053 
L 409 3053 
L 409 3500 
L 1344 3500 
L 1344 4494 
L 1919 4494 
z
" id="DejaVuSansMono-74" transform="scale(0.015625)"/>
       <path id="DejaVuSansMono-20" transform="scale(0.015625)"/>
       <path d="M 1038 1734 
Q 1038 1066 1248 725 
Q 1459 384 1875 384 
Q 2291 384 2505 726 
Q 2719 1069 2719 1734 
Q 2719 2400 2505 2742 
Q 2291 3084 1875 3084 
Q 1459 3084 1248 2743 
Q 1038 2403 1038 1734 
z
M 2719 434 
Q 2578 175 2339 36 
Q 2100 -103 1784 -103 
Q 1156 -103 792 383 
Q 428 869 428 1722 
Q 428 2591 790 3081 
Q 1153 3572 1784 3572 
Q 2097 3572 2336 3436 
Q 2575 3300 2719 3041 
L 2719 3488 
L 3297 3488 
L 3297 -1344 
L 2719 -1344 
L 2719 434 
z
" id="DejaVuSansMono-71" transform="scale(0.015625)"/>
       <path d="M 609 1325 
L 609 3494 
L 1184 3494 
L 1184 1325 
Q 1184 853 1351 631 
Q 1519 409 1869 409 
Q 2275 409 2490 695 
Q 2706 981 2706 1516 
L 2706 3494 
L 3284 3494 
L 3284 0 
L 2706 0 
L 2706 525 
Q 2553 222 2289 65 
Q 2025 -91 1672 -91 
Q 1134 -91 871 261 
Q 609 613 609 1325 
z
" id="DejaVuSansMono-75" transform="scale(0.015625)"/>
       <path d="M 3609 2778 
Q 3425 2922 3234 2987 
Q 3044 3053 2816 3053 
Q 2278 3053 1993 2715 
Q 1709 2378 1709 1741 
L 1709 0 
L 1131 0 
L 1131 3500 
L 1709 3500 
L 1709 2816 
Q 1853 3188 2151 3386 
Q 2450 3584 2859 3584 
Q 3072 3584 3256 3531 
Q 3441 3478 3609 3366 
L 3609 2778 
z
" id="DejaVuSansMono-72" transform="scale(0.015625)"/>
       <path d="M 2681 1125 
Q 2538 759 2316 163 
Q 2006 -663 1900 -844 
Q 1756 -1088 1540 -1209 
Q 1325 -1331 1038 -1331 
L 575 -1331 
L 575 -850 
L 916 -850 
Q 1169 -850 1312 -703 
Q 1456 -556 1678 56 
L 325 3500 
L 934 3500 
L 1972 763 
L 2994 3500 
L 3603 3500 
L 2681 1125 
z
" id="DejaVuSansMono-79" transform="scale(0.015625)"/>
       <path d="M 2113 3144 
Q 2219 3369 2383 3476 
Q 2547 3584 2778 3584 
Q 3200 3584 3373 3257 
Q 3547 2931 3547 2028 
L 3547 0 
L 3022 0 
L 3022 2003 
Q 3022 2744 2939 2923 
Q 2856 3103 2638 3103 
Q 2388 3103 2295 2911 
Q 2203 2719 2203 2003 
L 2203 0 
L 1678 0 
L 1678 2003 
Q 1678 2753 1589 2928 
Q 1500 3103 1269 3103 
Q 1041 3103 952 2911 
Q 863 2719 863 2003 
L 863 0 
L 341 0 
L 341 3500 
L 863 3500 
L 863 3200 
Q 966 3388 1120 3486 
Q 1275 3584 1472 3584 
Q 1709 3584 1867 3475 
Q 2025 3366 2113 3144 
z
" id="DejaVuSansMono-6d" transform="scale(0.015625)"/>
       <path d="M 2869 1747 
Q 2869 2416 2656 2756 
Q 2444 3097 2028 3097 
Q 1609 3097 1393 2755 
Q 1178 2413 1178 1747 
Q 1178 1084 1393 740 
Q 1609 397 2028 397 
Q 2444 397 2656 737 
Q 2869 1078 2869 1747 
z
M 1178 3053 
Q 1316 3309 1558 3446 
Q 1800 3584 2119 3584 
Q 2750 3584 3112 3098 
Q 3475 2613 3475 1759 
Q 3475 894 3111 401 
Q 2747 -91 2113 -91 
Q 1800 -91 1561 45 
Q 1322 181 1178 441 
L 1178 0 
L 603 0 
L 603 4863 
L 1178 4863 
L 1178 3053 
z
" id="DejaVuSansMono-62" transform="scale(0.015625)"/>
      </defs>
      <use xlink:href="#DejaVuSansMono-43"/>
      <use x="60.205078" xlink:href="#DejaVuSansMono-6c"/>
      <use x="120.410156" xlink:href="#DejaVuSansMono-69"/>
      <use x="180.615234" xlink:href="#DejaVuSansMono-65"/>
      <use x="240.820312" xlink:href="#DejaVuSansMono-6e"/>
      <use x="301.025391" xlink:href="#DejaVuSansMono-74"/>
      <use x="361.230469" xlink:href="#DejaVuSansMono-20"/>
      <use x="421.435547" xlink:href="#DejaVuSansMono-71"/>
      <use x="481.640625" xlink:href="#DejaVuSansMono-75"/>
      <use x="541.845703" xlink:href="#DejaVuSansMono-65"/>
      <use x="602.050781" xlink:href="#DejaVuSansMono-72"/>
      <use x="662.255859" xlink:href="#DejaVuSansMono-79"/>
      <use x="722.460938" xlink:href="#DejaVuSansMono-20"/>
      <use x="782.666016" xlink:href="#DejaVuSansMono-6e"/>
      <use x="842.871094" xlink:href="#DejaVuSansMono-75"/>
      <use x="903.076172" xlink:href="#DejaVuSansMono-6d"/>
      <use x="963.28125" xlink:href="#DejaVuSansMono-62"/>
      <use x="1023.486328" xlink:href="#DejaVuSansMono-65"/>
      <use x="1083.691406" xlink:href="#DejaVuSansMono-72"/>
     </g>
    </g>
   </g>
   <g id="matplotlib.axis_2">
    <g id="ytick_1">
     <g id="line2d_6">
      <defs>
       <path d="M 0 0 
L -3.5 0 
" id="m0c06af86b0" style="stroke:#000000;stroke-width:0.8;"/>
      </defs>
      <g>
       <use style="stroke:#000000;stroke-width:0.8;" x="62.6925" xlink:href="#m0c06af86b0" y="471.411"/>
      </g>
     </g>
     <g id="text_7">
      <!-- 0 -->
      <g transform="translate(46.06 477.53225)scale(0.16 -0.16)">
       <use xlink:href="#DejaVuSansMono-30"/>
      </g>
     </g>
    </g>
    <g id="ytick_2">
     <g id="line2d_7">
      <g>
       <use style="stroke:#000000;stroke-width:0.8;" x="62.6925" xlink:href="#m0c06af86b0" y="375.267851"/>
      </g>
     </g>
     <g id="text_8">
      <!-- 50 -->
      <g transform="translate(36.4275 381.389101)scale(0.16 -0.16)">
       <defs>
        <path d="M 647 4666 
L 3009 4666 
L 3009 4134 
L 1222 4134 
L 1222 2988 
Q 1356 3038 1492 3061 
Q 1628 3084 1766 3084 
Q 2491 3084 2916 2656 
Q 3341 2228 3341 1497 
Q 3341 759 2895 334 
Q 2450 -91 1678 -91 
Q 1306 -91 998 -41 
Q 691 9 447 109 
L 447 750 
Q 734 594 1025 517 
Q 1316 441 1619 441 
Q 2141 441 2423 716 
Q 2706 991 2706 1497 
Q 2706 1997 2414 2275 
Q 2122 2553 1600 2553 
Q 1347 2553 1106 2495 
Q 866 2438 647 2322 
L 647 4666 
z
" id="DejaVuSansMono-35" transform="scale(0.015625)"/>
       </defs>
       <use xlink:href="#DejaVuSansMono-35"/>
       <use x="60.205078" xlink:href="#DejaVuSansMono-30"/>
      </g>
     </g>
    </g>
    <g id="ytick_3">
     <g id="line2d_8">
      <g>
       <use style="stroke:#000000;stroke-width:0.8;" x="62.6925" xlink:href="#m0c06af86b0" y="279.124702"/>
      </g>
     </g>
     <g id="text_9">
      <!-- 100 -->
      <g transform="translate(26.795 285.245952)scale(0.16 -0.16)">
       <defs>
        <path d="M 844 531 
L 1825 531 
L 1825 4097 
L 769 3859 
L 769 4434 
L 1819 4666 
L 2450 4666 
L 2450 531 
L 3419 531 
L 3419 0 
L 844 0 
L 844 531 
z
" id="DejaVuSansMono-31" transform="scale(0.015625)"/>
       </defs>
       <use xlink:href="#DejaVuSansMono-31"/>
       <use x="60.205078" xlink:href="#DejaVuSansMono-30"/>
       <use x="120.410156" xlink:href="#DejaVuSansMono-30"/>
      </g>
     </g>
    </g>
    <g id="ytick_4">
     <g id="line2d_9">
      <g>
       <use style="stroke:#000000;stroke-width:0.8;" x="62.6925" xlink:href="#m0c06af86b0" y="182.981554"/>
      </g>
     </g>
     <g id="text_10">
      <!-- 150 -->
      <g transform="translate(26.795 189.102804)scale(0.16 -0.16)">
       <use xlink:href="#DejaVuSansMono-31"/>
       <use x="60.205078" xlink:href="#DejaVuSansMono-35"/>
       <use x="120.410156" xlink:href="#DejaVuSansMono-30"/>
      </g>
     </g>
    </g>
    <g id="ytick_5">
     <g id="line2d_10">
      <g>
       <use style="stroke:#000000;stroke-width:0.8;" x="62.6925" xlink:href="#m0c06af86b0" y="86.838405"/>
      </g>
     </g>
     <g id="text_11">
      <!-- 200 -->
      <g transform="translate(26.795 92.959655)scale(0.16 -0.16)">
       <use xlink:href="#DejaVuSansMono-32"/>
       <use x="60.205078" xlink:href="#DejaVuSansMono-30"/>
       <use x="120.410156" xlink:href="#DejaVuSansMono-30"/>
      </g>
     </g>
    </g>
    <g id="text_12">
     <!-- Average response time over the window [ms] -->
     <g transform="translate(19.3575 451.9335)rotate(-90)scale(0.16 -0.16)">
      <defs>
       <path d="M 1925 4109 
L 1259 1722 
L 2591 1722 
L 1925 4109 
z
M 1544 4666 
L 2309 4666 
L 3738 0 
L 3084 0 
L 2741 1216 
L 1106 1216 
L 769 0 
L 116 0 
L 1544 4666 
z
" id="DejaVuSansMono-41" transform="scale(0.015625)"/>
       <path d="M 313 3500 
L 909 3500 
L 1925 563 
L 2944 3500 
L 3541 3500 
L 2297 0 
L 1556 0 
L 313 3500 
z
" id="DejaVuSansMono-76" transform="scale(0.015625)"/>
       <path d="M 2194 1759 
L 2003 1759 
Q 1500 1759 1245 1582 
Q 991 1406 991 1056 
Q 991 741 1181 566 
Q 1372 391 1709 391 
Q 2184 391 2456 720 
Q 2728 1050 2731 1631 
L 2731 1759 
L 2194 1759 
z
M 3309 1997 
L 3309 0 
L 2731 0 
L 2731 519 
Q 2547 206 2267 57 
Q 1988 -91 1588 -91 
Q 1053 -91 734 211 
Q 416 513 416 1019 
Q 416 1603 808 1906 
Q 1200 2209 1959 2209 
L 2731 2209 
L 2731 2300 
Q 2728 2719 2518 2908 
Q 2309 3097 1850 3097 
Q 1556 3097 1256 3012 
Q 956 2928 672 2766 
L 672 3341 
Q 991 3463 1283 3523 
Q 1575 3584 1850 3584 
Q 2284 3584 2592 3456 
Q 2900 3328 3091 3072 
Q 3209 2916 3259 2686 
Q 3309 2456 3309 1997 
z
" id="DejaVuSansMono-61" transform="scale(0.015625)"/>
       <path d="M 2681 1778 
Q 2681 2425 2470 2761 
Q 2259 3097 1856 3097 
Q 1434 3097 1212 2761 
Q 991 2425 991 1778 
Q 991 1131 1214 792 
Q 1438 453 1863 453 
Q 2259 453 2470 793 
Q 2681 1134 2681 1778 
z
M 3256 225 
Q 3256 -563 2884 -969 
Q 2513 -1375 1791 -1375 
Q 1553 -1375 1293 -1331 
Q 1034 -1288 775 -1203 
L 775 -634 
Q 1081 -778 1331 -847 
Q 1581 -916 1791 -916 
Q 2256 -916 2468 -662 
Q 2681 -409 2681 141 
L 2681 166 
L 2681 556 
Q 2544 263 2306 119 
Q 2069 -25 1728 -25 
Q 1116 -25 750 465 
Q 384 956 384 1778 
Q 384 2603 750 3093 
Q 1116 3584 1728 3584 
Q 2066 3584 2300 3450 
Q 2534 3316 2681 3034 
L 2681 3488 
L 3256 3488 
L 3256 225 
z
" id="DejaVuSansMono-67" transform="scale(0.015625)"/>
       <path d="M 3041 3378 
L 3041 2816 
Q 2794 2959 2544 3031 
Q 2294 3103 2034 3103 
Q 1644 3103 1451 2976 
Q 1259 2850 1259 2591 
Q 1259 2356 1403 2240 
Q 1547 2125 2119 2016 
L 2350 1972 
Q 2778 1891 2998 1647 
Q 3219 1403 3219 1013 
Q 3219 494 2850 201 
Q 2481 -91 1825 -91 
Q 1566 -91 1281 -36 
Q 997 19 666 128 
L 666 722 
Q 988 556 1281 473 
Q 1575 391 1838 391 
Q 2219 391 2428 545 
Q 2638 700 2638 978 
Q 2638 1378 1872 1531 
L 1847 1538 
L 1631 1581 
Q 1134 1678 906 1908 
Q 678 2138 678 2534 
Q 678 3038 1018 3311 
Q 1359 3584 1991 3584 
Q 2272 3584 2531 3532 
Q 2791 3481 3041 3378 
z
" id="DejaVuSansMono-73" transform="scale(0.015625)"/>
       <path d="M 1172 441 
L 1172 -1331 
L 594 -1331 
L 594 3500 
L 1172 3500 
L 1172 3053 
Q 1316 3313 1555 3448 
Q 1794 3584 2106 3584 
Q 2741 3584 3102 3093 
Q 3463 2603 3463 1734 
Q 3463 881 3100 395 
Q 2738 -91 2106 -91 
Q 1788 -91 1548 45 
Q 1309 181 1172 441 
z
M 2859 1747 
Q 2859 2416 2648 2756 
Q 2438 3097 2022 3097 
Q 1603 3097 1387 2755 
Q 1172 2413 1172 1747 
Q 1172 1084 1387 740 
Q 1603 397 2022 397 
Q 2438 397 2648 737 
Q 2859 1078 2859 1747 
z
" id="DejaVuSansMono-70" transform="scale(0.015625)"/>
       <path d="M 1925 3097 
Q 1488 3097 1263 2756 
Q 1038 2416 1038 1747 
Q 1038 1081 1263 739 
Q 1488 397 1925 397 
Q 2366 397 2591 739 
Q 2816 1081 2816 1747 
Q 2816 2416 2591 2756 
Q 2366 3097 1925 3097 
z
M 1925 3584 
Q 2653 3584 3039 3112 
Q 3425 2641 3425 1747 
Q 3425 850 3040 379 
Q 2656 -91 1925 -91 
Q 1197 -91 812 379 
Q 428 850 428 1747 
Q 428 2641 812 3112 
Q 1197 3584 1925 3584 
z
" id="DejaVuSansMono-6f" transform="scale(0.015625)"/>
       <path d="M 3284 2169 
L 3284 0 
L 2706 0 
L 2706 2169 
Q 2706 2641 2540 2862 
Q 2375 3084 2022 3084 
Q 1619 3084 1401 2798 
Q 1184 2513 1184 1978 
L 1184 0 
L 609 0 
L 609 4863 
L 1184 4863 
L 1184 2975 
Q 1338 3275 1600 3429 
Q 1863 3584 2222 3584 
Q 2756 3584 3020 3232 
Q 3284 2881 3284 2169 
z
" id="DejaVuSansMono-68" transform="scale(0.015625)"/>
       <path d="M 0 3500 
L 569 3500 
L 1178 672 
L 1678 2478 
L 2169 2478 
L 2675 672 
L 3284 3500 
L 3853 3500 
L 3034 0 
L 2484 0 
L 1925 1919 
L 1369 0 
L 819 0 
L 0 3500 
z
" id="DejaVuSansMono-77" transform="scale(0.015625)"/>
       <path d="M 2681 3053 
L 2681 4863 
L 3256 4863 
L 3256 0 
L 2681 0 
L 2681 441 
Q 2538 181 2298 45 
Q 2059 -91 1747 -91 
Q 1113 -91 748 401 
Q 384 894 384 1759 
Q 384 2613 750 3098 
Q 1116 3584 1747 3584 
Q 2063 3584 2303 3448 
Q 2544 3313 2681 3053 
z
M 991 1747 
Q 991 1078 1203 737 
Q 1416 397 1831 397 
Q 2247 397 2464 740 
Q 2681 1084 2681 1747 
Q 2681 2413 2464 2755 
Q 2247 3097 1831 3097 
Q 1416 3097 1203 2756 
Q 991 2416 991 1747 
z
" id="DejaVuSansMono-64" transform="scale(0.015625)"/>
       <path d="M 1447 4863 
L 2772 4863 
L 2772 4416 
L 2022 4416 
L 2022 -397 
L 2772 -397 
L 2772 -844 
L 1447 -844 
L 1447 4863 
z
" id="DejaVuSansMono-5b" transform="scale(0.015625)"/>
       <path d="M 2406 4863 
L 2406 -844 
L 1081 -844 
L 1081 -397 
L 1831 -397 
L 1831 4416 
L 1081 4416 
L 1081 4863 
L 2406 4863 
z
" id="DejaVuSansMono-5d" transform="scale(0.015625)"/>
      </defs>
      <use xlink:href="#DejaVuSansMono-41"/>
      <use x="60.205078" xlink:href="#DejaVuSansMono-76"/>
      <use x="120.410156" xlink:href="#DejaVuSansMono-65"/>
      <use x="180.615234" xlink:href="#DejaVuSansMono-72"/>
      <use x="240.820312" xlink:href="#DejaVuSansMono-61"/>
      <use x="301.025391" xlink:href="#DejaVuSansMono-67"/>
      <use x="361.230469" xlink:href="#DejaVuSansMono-65"/>
      <use x="421.435547" xlink:href="#DejaVuSansMono-20"/>
      <use x="481.640625" xlink:href="#DejaVuSansMono-72"/>
      <use x="541.845703" xlink:href="#DejaVuSansMono-65"/>
      <use x="602.050781" xlink:href="#DejaVuSansMono-73"/>
      <use x="662.255859" xlink:href="#DejaVuSansMono-70"/>
      <use x="722.460938" xlink:href="#DejaVuSansMono-6f"/>
      <use x="782.666016" xlink:href="#DejaVuSansMono-6e"/>
      <use x="842.871094" xlink:href="#DejaVuSansMono-73"/>
      <use x="903.076172" xlink:href="#DejaVuSansMono-65"/>
      <use x="963.28125" xlink:href="#DejaVuSansMono-20"/>
      <use x="1023.486328" xlink:href="#DejaVuSansMono-74"/>
      <use x="1083.691406" xlink:href="#DejaVuSansMono-69"/>
      <use x="1143.896484" xlink:href="#DejaVuSansMono-6d"/>
      <use x="1204.101562" xlink:href="#DejaVuSansMono-65"/>
      <use x="1264.306641" xlink:href="#DejaVuSansMono-20"/>
      <use x="1324.511719" xlink:href="#DejaVuSansMono-6f"/>
      <use x="1384.716797" xlink:href="#DejaVuSansMono-76"/>
      <use x="1444.921875" xlink:href="#DejaVuSansMono-65"/>
      <use x="1505.126953" xlink:href="#DejaVuSansMono-72"/>
      <use x="1565.332031" xlink:href="#DejaVuSansMono-20"/>
      <use x="1625.537109" xlink:href="#DejaVuSansMono-74"/>
      <use x="1685.742188" xlink:href="#DejaVuSansMono-68"/>
      <use x="1745.947266" xlink:href="#DejaVuSansMono-65"/>
      <use x="1806.152344" xlink:href="#DejaVuSansMono-20"/>
      <use x="1866.357422" xlink:href="#DejaVuSansMono-77"/>
      <use x="1926.5625" xlink:href="#DejaVuSansMono-69"/>
      <use x="1986.767578" xlink:href="#DejaVuSansMono-6e"/>
      <use x="2046.972656" xlink:href="#DejaVuSansMono-64"/>
      <use x="2107.177734" xlink:href="#DejaVuSansMono-6f"/>
      <use x="2167.382812" xlink:href="#DejaVuSansMono-77"/>
      <use x="2227.587891" xlink:href="#DejaVuSansMono-20"/>
      <use x="2287.792969" xlink:href="#DejaVuSansMono-5b"/>
      <use x="2347.998047" xlink:href="#DejaVuSansMono-6d"/>
      <use x="2408.203125" xlink:href="#DejaVuSansMono-73"/>
      <use x="2468.408203" xlink:href="#DejaVuSansMono-5d"/>
     </g>
    </g>
   </g>
   <g id="line2d_11">
    <path clip-path="url(#p3e5b7cc318)" d="M 109.361591 165.874054 
L 110.399835 168.95479 
L 111.43808 168.947001 
L 112.476324 170.391047 
L 113.514569 172.329926 
L 114.552813 175.415045 
L 115.591058 175.413541 
L 116.629303 177.355057 
L 117.667547 180.433578 
L 118.705792 180.440556 
L 119.744036 184.869756 
L 120.782281 193.215344 
L 121.820525 199.368527 
L 122.85877 201.211165 
L 124.935259 212.40617 
L 125.973503 220.115329 
L 127.011748 225.660329 
L 128.049992 230.576381 
L 129.088237 237.899587 
L 132.20297 252.974502 
L 133.241215 257.73426 
L 134.279459 261.883758 
L 136.355948 274.874484 
L 139.470682 287.25659 
L 140.508926 291.10901 
L 141.547171 292.194698 
L 142.585415 296.058923 
L 145.700149 310.761542 
L 146.738393 308.840735 
L 152.967861 308.823209 
L 167.503284 293.129539 
L 172.694506 306.00028 
L 173.732751 306.186162 
L 179.962218 321.615125 
L 182.038707 319.397336 
L 183.076951 319.398876 
L 184.115196 318.288593 
L 186.191685 318.294112 
L 192.421152 325.002731 
L 193.459397 323.260575 
L 194.497641 324.37482 
L 195.535886 323.030568 
L 199.688864 327.482691 
L 200.727108 327.807675 
L 222.530243 351.180732 
L 223.568487 353.753716 
L 249.5246 381.532373 
L 250.562845 384.58138 
L 260.94529 395.69888 
L 261.983534 395.115727 
L 267.174757 400.702775 
L 268.213002 400.709716 
L 274.442469 407.434288 
L 275.480713 406.851796 
L 283.786669 415.78723 
L 284.824914 415.198199 
L 285.863158 416.317826 
L 286.901403 416.322126 
L 290.016136 419.673662 
L 296.245603 419.64836 
L 297.283848 422.50487 
L 298.322092 422.505773 
L 299.360337 424.964228 
L 303.513315 424.970224 
L 304.55156 425.752678 
L 308.704538 425.749716 
L 309.742782 424.964975 
L 347.119585 424.971751 
L 348.157829 423.272648 
L 355.425541 423.282661 
L 356.463785 422.499749 
L 364.769741 422.48827 
L 365.807986 424.187276 
L 370.999208 424.181513 
L 372.037453 425.29231 
L 377.228676 425.297115 
L 378.26692 423.606787 
L 379.305165 425.310346 
L 387.611121 425.359509 
L 388.649365 427.068258 
L 397.993566 427.081782 
L 399.03181 426.299155 
L 412.528989 426.318533 
L 413.567234 427.103522 
L 420.834945 427.106602 
L 421.87319 425.993742 
L 424.987923 425.985032 
L 426.026168 424.311717 
L 450.944036 424.249157 
L 451.982281 425.949837 
L 459.249992 425.947114 
L 460.288237 426.731392 
L 467.555948 426.749651 
L 468.594193 425.10106 
L 473.785415 425.116868 
L 474.82366 424.329651 
L 481.053127 424.270723 
L 482.091371 425.953376 
L 501.818017 425.78922 
L 502.856262 426.570174 
L 509.085729 426.574044 
L 510.123973 424.918975 
L 524.659397 424.928364 
L 525.697641 426.039509 
L 528.812375 426.056701 
L 529.850619 427.731208 
L 545.424287 427.800873 
L 546.462531 427.806677 
L 547.500776 426.160245 
L 560.997955 426.175448 
L 562.036199 424.523533 
L 571.3804 424.568511 
L 572.418644 426.2275 
L 577.609867 426.24084 
L 578.648111 427.030711 
L 581.762845 427.047664 
L 582.801089 425.937633 
L 611.871936 425.950213 
L 612.91018 425.1623 
L 613.948425 426.821119 
L 614.986669 426.828119 
L 616.024914 425.176342 
L 635.75156 425.337169 
L 650.286983 425.423724 
L 651.325227 427.085789 
L 664.822406 427.103522 
L 665.86065 428.754666 
L 680.396074 428.647504 
L 685.587296 428.597978 
L 686.625541 429.706139 
L 708.428676 429.840253 
L 715.696387 429.847189 
L 716.734632 430.628373 
L 718.811121 430.609815 
L 719.849365 432.261881 
L 737.499522 432.066606 
L 738.537766 430.394061 
L 743.728989 430.381371 
L 744.767234 429.587943 
L 770.723346 429.433978 
L 775.914569 429.493429 
L 776.952813 428.721612 
L 790.449992 428.840244 
L 801.870682 428.833331 
L 802.908926 428.036739 
L 830.941528 427.856153 
L 833.018017 427.859866 
L 834.056262 426.21244 
L 841.323973 426.208006 
L 842.362218 427.879359 
L 847.55344 427.87538 
L 848.591685 428.660116 
L 851.706418 428.661239 
L 852.744663 427.013671 
L 856.897641 427.013015 
L 857.935886 426.228238 
L 866.241842 426.219403 
L 867.280086 425.107006 
L 868.318331 425.102949 
L 869.356575 423.994302 
L 879.73902 423.889845 
L 880.777265 424.66097 
L 893.236199 424.521048 
L 894.274444 422.85229 
L 903.618644 422.847407 
L 904.656889 422.056244 
L 905.695133 422.055877 
L 906.733378 422.834387 
L 912.962845 422.833998 
L 914.001089 421.163241 
L 929.574757 421.163122 
L 930.613002 420.051898 
L 936.842469 420.052086 
L 937.880713 421.703323 
L 955.53087 421.717938 
L 956.569114 423.367373 
L 960.722092 423.377353 
L 961.760337 424.165381 
L 970.066293 424.176397 
L 971.104538 425.294447 
L 972.142782 425.304216 
L 973.181027 424.762718 
L 1002.251873 425.125161 
L 1003.290118 423.477363 
L 1007.443096 423.489338 
L 1008.48134 424.28256 
L 1016.787296 424.388461 
L 1017.825541 426.070793 
L 1021.978519 426.110793 
L 1033.399208 426.210959 
L 1034.437453 427.320683 
L 1041.705165 427.393072 
L 1042.743409 425.744623 
L 1042.743409 425.744623 
" style="fill:none;stroke:#1f77b4;stroke-linecap:square;stroke-width:4;"/>
   </g>
   <g id="line2d_12">
    <path clip-path="url(#p3e5b7cc318)" d="M 109.361591 27.891 
L 110.399835 29.532146 
L 111.43808 29.544836 
L 112.476324 32.601384 
L 113.514569 28.957309 
L 114.552813 32.008375 
L 115.591058 34.578915 
L 116.629303 38.781946 
L 117.667547 41.33904 
L 119.744036 49.737784 
L 122.85877 57.431741 
L 123.897014 61.631123 
L 124.935259 64.68696 
L 128.049992 72.382815 
L 130.126481 78.48871 
L 131.164726 81.055541 
L 132.20297 85.259805 
L 134.279459 90.391772 
L 135.317704 99.894253 
L 137.394193 116.247292 
L 138.432437 120.544529 
L 140.508926 138.428137 
L 141.547171 141.715559 
L 144.661904 167.201921 
L 146.738393 177.747056 
L 148.814882 193.571415 
L 149.853127 200.14768 
L 150.891371 202.909782 
L 151.929616 207.832605 
L 154.006105 220.077627 
L 155.04435 220.573148 
L 156.082594 227.540522 
L 157.120839 231.470355 
L 159.197328 242.433254 
L 160.235572 248.881269 
L 161.273817 249.710791 
L 162.312061 254.737787 
L 163.350306 255.315952 
L 164.38855 261.228102 
L 165.426795 264.128893 
L 166.465039 266.121787 
L 167.503284 268.767512 
L 168.541528 274.192261 
L 170.618017 278.840993 
L 171.656262 285.859081 
L 172.694506 297.56436 
L 173.732751 306.901608 
L 174.770995 318.34991 
L 176.847484 331.241377 
L 177.885729 342.304474 
L 178.923973 348.430792 
L 179.962218 351.868676 
L 182.038707 363.484898 
L 186.191685 375.695073 
L 187.229929 375.06172 
L 188.268174 375.064604 
L 189.306418 378.117897 
L 190.344663 378.607921 
L 191.382908 378.610342 
L 192.421152 377.969434 
L 193.459397 377.970493 
L 194.497641 375.407778 
L 197.612375 375.411854 
L 199.688864 370.308361 
L 205.918331 370.312286 
L 206.956575 374.149825 
L 207.99482 371.597168 
L 209.033064 375.285492 
L 213.186042 375.283603 
L 214.224287 377.84299 
L 216.300776 377.844122 
L 217.33902 381.5335 
L 218.377265 378.96798 
L 220.453754 378.954749 
L 222.530243 373.840548 
L 226.683221 373.850193 
L 227.721466 370.162163 
L 228.75971 370.161104 
L 229.797955 366.474499 
L 234.989177 366.466517 
L 236.027422 362.77989 
L 241.218644 362.771028 
L 242.256889 366.453828 
L 243.295133 366.452099 
L 244.333378 363.888404 
L 245.371622 362.765013 
L 249.5246 362.760342 
L 250.562845 359.073641 
L 251.601089 359.075153 
L 252.639334 355.387701 
L 253.677578 352.817509 
L 254.715823 353.946208 
L 255.754067 356.502917 
L 257.830556 356.51607 
L 258.868801 360.204068 
L 264.060024 360.202147 
L 265.098268 359.07652 
L 266.136513 359.07927 
L 267.174757 361.639101 
L 268.213002 361.638739 
L 269.251246 357.951419 
L 270.289491 361.637433 
L 271.327735 359.071931 
L 272.36598 355.385184 
L 277.557202 355.37855 
L 278.595447 352.818971 
L 279.633691 352.817665 
L 280.671936 349.129442 
L 282.748425 349.130225 
L 283.786669 351.693729 
L 287.939647 351.695695 
L 288.977892 349.136039 
L 290.016136 349.136965 
L 291.054381 352.824321 
L 293.13087 352.82422 
L 294.169114 351.700206 
L 295.207359 351.700307 
L 296.245603 355.395416 
L 297.283848 355.394376 
L 298.322092 357.958883 
L 301.436826 350.283351 
L 303.513315 355.401266 
L 310.781027 355.418453 
L 311.819271 357.983763 
L 312.857516 357.984744 
L 313.89576 354.298579 
L 314.934005 357.987173 
L 321.163472 357.995027 
L 322.201716 360.563261 
L 323.239961 356.8749 
L 325.31645 356.885866 
L 326.354694 355.760706 
L 330.507672 355.761137 
L 331.545917 359.44992 
L 337.775384 359.451038 
L 338.813629 355.764543 
L 339.851873 359.438674 
L 346.08134 359.44964 
L 347.119585 356.892752 
L 348.157829 356.89156 
L 349.196074 360.578743 
L 353.349052 360.574259 
L 354.387296 364.262253 
L 355.425541 364.261849 
L 356.463785 367.948358 
L 357.50203 367.958783 
L 358.540274 370.517206 
L 360.616763 370.51938 
L 361.655008 366.832403 
L 362.693252 366.830982 
L 363.731497 364.273168 
L 364.769741 364.273962 
L 365.807986 360.586564 
L 366.84623 360.586353 
L 367.884475 358.024271 
L 372.037453 358.031634 
L 373.075697 361.72026 
L 374.113942 361.721663 
L 375.152187 364.285354 
L 376.190431 367.972426 
L 377.228676 367.97029 
L 378.26692 365.412343 
L 381.381654 365.417725 
L 382.419898 367.968177 
L 383.458143 367.967466 
L 384.496387 369.098169 
L 389.68761 369.093447 
L 390.725854 365.402528 
L 391.764099 365.403339 
L 392.802343 367.963821 
L 396.955321 367.960676 
L 397.993566 371.649555 
L 402.146544 371.643352 
L 405.261277 379.321323 
L 410.4525 379.322176 
L 411.490745 376.755211 
L 416.681967 376.730868 
L 417.720212 380.4095 
L 419.796701 380.30607 
L 424.987923 380.279489 
L 426.026168 376.589281 
L 427.064412 380.273314 
L 428.102657 380.259831 
L 429.140901 382.818562 
L 430.179146 386.50094 
L 432.255635 386.486577 
L 433.293879 382.797139 
L 436.408613 382.760344 
L 437.446857 386.446472 
L 438.485102 386.442066 
L 439.523346 383.880003 
L 449.905792 383.878233 
L 451.982281 388.998642 
L 455.097014 388.995493 
L 456.135259 386.43524 
L 460.288237 386.434263 
L 461.326481 388.987039 
L 464.441215 388.98102 
L 465.479459 392.666345 
L 467.555948 392.661252 
L 468.594193 390.095287 
L 469.632437 393.784679 
L 470.670682 393.785275 
L 471.708926 392.661454 
L 472.747171 396.349085 
L 480.014882 396.345404 
L 481.053127 392.660697 
L 482.091371 395.21974 
L 486.24435 395.230522 
L 487.282594 392.666368 
L 488.320839 395.226676 
L 493.512061 395.233021 
L 494.550306 398.924476 
L 495.58855 395.236367 
L 497.665039 395.237569 
L 498.703284 392.674198 
L 499.741528 392.67551 
L 500.779773 388.989707 
L 512.200462 388.982134 
L 514.276951 381.608855 
L 516.35344 381.614137 
L 517.391685 379.054617 
L 519.468174 379.06181 
L 520.506418 375.382706 
L 521.544663 375.389184 
L 522.582908 372.929092 
L 528.812375 372.939132 
L 529.850619 376.623413 
L 534.003597 376.640265 
L 535.041842 372.961614 
L 536.080086 372.965209 
L 537.118331 376.655146 
L 542.309553 376.699574 
L 543.347798 379.262807 
L 545.424287 379.26879 
L 546.462531 382.957746 
L 547.500776 382.960607 
L 548.53902 380.397792 
L 549.577265 380.399043 
L 550.615509 376.714144 
L 553.730243 376.72136 
L 554.768487 373.034407 
L 557.883221 373.039367 
L 558.921466 370.479958 
L 559.95971 373.03983 
L 563.074444 373.042118 
L 564.112688 369.356544 
L 570.342155 369.372727 
L 572.418644 374.486618 
L 573.456889 371.92427 
L 574.495133 371.915692 
L 575.533378 375.602994 
L 583.839334 375.598762 
L 584.877578 376.72158 
L 590.068801 376.717335 
L 591.107045 379.282662 
L 598.374757 379.280608 
L 599.413002 382.967887 
L 600.451246 379.280237 
L 601.489491 379.279751 
L 602.527735 381.834736 
L 603.56598 381.833984 
L 604.604224 385.52019 
L 608.757202 385.507556 
L 609.795447 381.820676 
L 612.91018 381.820428 
L 613.948425 379.262156 
L 614.986669 379.254656 
L 616.024914 375.567006 
L 617.063158 375.567065 
L 618.101403 379.253005 
L 619.139647 381.816972 
L 620.177892 381.815899 
L 621.216136 384.374978 
L 623.292625 384.372213 
L 624.33087 388.059492 
L 637.828049 388.080099 
L 638.866293 391.769175 
L 639.904538 391.771385 
L 640.942782 389.21319 
L 641.981027 389.211733 
L 643.019271 386.652956 
L 647.172249 386.651727 
L 648.210494 384.082783 
L 651.325227 384.077607 
L 652.363472 386.642288 
L 653.401716 384.078395 
L 654.439961 387.76489 
L 657.554694 387.762139 
L 658.592939 391.449092 
L 660.669428 391.446924 
L 661.707672 388.889358 
L 662.745917 391.450665 
L 666.898895 391.454236 
L 667.937139 395.139521 
L 675.204851 395.151885 
L 676.243096 392.588694 
L 677.28134 395.149758 
L 678.319585 391.46936 
L 684.549052 391.467595 
L 685.587296 388.902497 
L 687.663785 388.90809 
L 688.70203 391.47273 
L 698.04623 391.47278 
L 699.084475 387.78 
L 702.199208 387.777369 
L 703.237453 385.213595 
L 704.275697 388.90003 
L 705.313942 385.212059 
L 712.581654 385.233616 
L 713.619898 388.921765 
L 714.658143 385.236522 
L 716.734632 385.245833 
L 717.772876 387.805371 
L 718.811121 387.813604 
L 719.849365 388.93854 
L 720.88761 392.625264 
L 722.964099 392.624526 
L 724.002343 390.060945 
L 727.117077 390.069458 
L 729.193566 384.946298 
L 730.23181 387.455535 
L 732.308299 387.453055 
L 733.346544 384.887305 
L 734.384788 384.885458 
L 736.461277 377.515306 
L 738.537766 377.454988 
L 739.576011 373.767508 
L 743.728989 373.759031 
L 744.767234 376.316414 
L 745.805478 376.314259 
L 746.843723 378.869378 
L 750.996701 378.866434 
L 752.034945 381.434187 
L 754.111434 381.370546 
L 756.187923 381.368079 
L 757.226168 380.207188 
L 759.302657 380.204671 
L 760.340901 377.639536 
L 764.493879 377.627364 
L 765.532124 380.185178 
L 766.570368 377.627561 
L 767.608613 373.938838 
L 771.761591 373.939182 
L 772.799835 370.251862 
L 776.952813 370.249038 
L 777.991058 366.563488 
L 779.029303 366.561971 
L 780.067547 369.127949 
L 781.105792 369.125066 
L 782.144036 370.249653 
L 787.335259 370.244646 
L 788.373503 367.683128 
L 789.411748 366.559257 
L 790.449992 366.559027 
L 791.488237 363.995483 
L 792.526481 363.994346 
L 793.564726 361.430504 
L 801.870682 361.431274 
L 802.908926 362.558799 
L 803.947171 362.558896 
L 806.02366 355.179483 
L 807.061904 357.742446 
L 808.100149 357.741506 
L 809.138393 361.427941 
L 814.329616 361.36755 
L 815.367861 357.677983 
L 816.406105 357.67852 
L 817.44435 355.111821 
L 818.482594 358.799678 
L 821.597328 358.798642 
L 822.635572 355.111954 
L 823.673817 357.67559 
L 826.78855 357.677516 
L 827.826795 360.242944 
L 828.865039 360.2425 
L 829.903284 356.556216 
L 830.941528 356.555657 
L 833.018017 361.679183 
L 836.132751 361.738025 
L 837.170995 361.739771 
L 838.20924 358.051989 
L 839.247484 361.739327 
L 840.285729 362.870424 
L 842.362218 362.924277 
L 843.400462 366.610525 
L 855.859397 366.604588 
L 856.897641 366.666638 
L 857.935886 364.108925 
L 860.012375 364.111387 
L 861.050619 367.838225 
L 862.088864 367.839917 
L 863.127108 365.283217 
L 864.165353 364.163898 
L 869.356575 364.17888 
L 870.39482 366.737826 
L 871.433064 366.737808 
L 872.471309 364.173076 
L 875.586042 364.170674 
L 876.624287 367.856476 
L 880.777265 367.856412 
L 881.815509 371.544135 
L 884.930243 371.551406 
L 885.968487 374.117119 
L 891.15971 374.131106 
L 892.197955 376.696145 
L 893.236199 377.826825 
L 894.274444 377.826577 
L 895.312688 380.391025 
L 896.350933 380.391758 
L 897.389177 382.957911 
L 901.542155 382.960222 
L 902.5804 380.397241 
L 905.695133 380.401477 
L 906.733378 382.967442 
L 907.771622 382.969134 
L 908.809867 386.662533 
L 909.848111 387.793653 
L 910.886356 385.235807 
L 916.077578 385.248222 
L 917.115823 382.750056 
L 918.154067 382.752037 
L 919.192312 386.441493 
L 923.34529 386.436249 
L 924.383534 382.747714 
L 925.421779 382.747255 
L 926.460024 386.434305 
L 932.689491 386.429881 
L 933.727735 390.117146 
L 934.76598 390.11655 
L 935.804224 387.556389 
L 937.880713 387.557067 
L 938.918958 384.998543 
L 939.957202 381.309774 
L 940.995447 383.873933 
L 942.033691 387.553523 
L 943.071936 387.555022 
L 944.11018 390.115394 
L 956.569114 390.147577 
L 957.607359 387.58467 
L 960.722092 387.587471 
L 961.760337 390.146202 
L 962.798582 390.147453 
L 963.836826 387.589158 
L 964.875071 387.588562 
L 965.913315 385.030363 
L 966.95156 387.588003 
L 967.989804 388.710743 
L 974.219271 388.711389 
L 975.257516 392.397301 
L 976.29576 392.39809 
L 977.334005 388.711485 
L 978.372249 388.710949 
L 979.410494 385.024569 
L 982.525227 385.018801 
L 984.601716 379.896774 
L 988.754694 379.893487 
L 989.792939 376.203054 
L 996.022406 376.097286 
L 997.06065 378.654114 
L 1001.213629 378.649961 
L 1003.290118 373.5262 
L 1004.328362 369.838188 
L 1005.366607 367.271934 
L 1006.404851 369.834112 
L 1011.596074 369.830917 
L 1012.634318 367.266433 
L 1014.710807 372.383922 
L 1019.90203 372.347773 
L 1020.940274 371.218611 
L 1024.055008 371.209107 
L 1025.093252 373.781105 
L 1027.169741 373.777204 
L 1028.207986 374.903464 
L 1036.513942 374.901282 
L 1037.552187 371.214233 
L 1038.590431 371.213751 
L 1039.628676 373.774353 
L 1041.705165 373.773009 
L 1042.743409 376.332707 
L 1042.743409 376.332707 
" style="fill:none;stroke:#808080;stroke-linecap:square;stroke-width:4;"/>
   </g>
   <g id="line2d_13">
    <path clip-path="url(#p3e5b7cc318)" d="M 109.361591 131.923303 
L 118.705792 169.759106 
L 147.776638 287.3966 
L 175.80924 369.745962 
L 179.962218 369.733405 
L 204.880086 431.18367 
L 219.415509 431.19995 
L 239.142155 431.264811 
L 278.595447 431.274158 
L 362.693252 431.299025 
L 377.228676 431.455997 
L 394.878832 431.459572 
L 397.993566 431.424538 
L 417.720212 431.582963 
L 437.446857 431.642373 
L 463.40297 431.72107 
L 474.82366 431.744144 
L 509.085729 431.732871 
L 512.200462 431.716926 
L 515.315196 431.634103 
L 524.659397 431.628427 
L 569.303911 431.60848 
L 593.183534 431.308482 
L 606.680713 431.25103 
L 659.631183 431.072254 
L 663.784161 431.058175 
L 673.128362 431.034721 
L 684.549052 431.056098 
L 685.587296 431.193353 
L 833.018017 431.379546 
L 848.591685 431.291552 
L 860.012375 431.39125 
L 950.339647 433.032346 
L 962.798582 433.152486 
L 1004.328362 433.115609 
L 1042.743409 433.101388 
L 1042.743409 433.101388 
" style="fill:none;stroke:#000000;stroke-linecap:square;stroke-width:4;"/>
   </g>
   <g id="line2d_14">
    <path clip-path="url(#p3e5b7cc318)" d="M 109.361591 300.382764 
L 110.399835 304.586166 
L 111.43808 308.276832 
L 112.476324 312.476251 
L 113.514569 312.479881 
L 116.629303 320.187184 
L 117.667547 320.976821 
L 118.705792 323.537578 
L 121.820525 325.907722 
L 123.897014 334.309557 
L 124.935259 337.999068 
L 125.973503 339.114885 
L 127.011748 341.677347 
L 128.049992 345.368917 
L 129.088237 347.936188 
L 130.126481 349.052812 
L 133.241215 358.214599 
L 134.279459 360.77956 
L 135.317704 364.467339 
L 137.394193 366.700197 
L 138.432437 369.260738 
L 139.470682 373.462595 
L 141.547171 380.841334 
L 143.62366 386.94875 
L 146.738393 399.550168 
L 158.159083 432.954969 
L 203.841842 432.972386 
L 256.792312 432.991182 
L 258.868801 433.054159 
L 259.907045 433.054159 
L 260.94529 433.173955 
L 292.092625 433.150281 
L 330.507672 433.069517 
L 342.966607 433.044242 
L 469.632437 433.015117 
L 518.429929 433.045315 
L 636.789804 433.168495 
L 663.784161 433.092104 
L 748.920212 432.973568 
L 819.520839 432.982293 
L 822.635572 433.034693 
L 831.979773 433.039809 
L 833.018017 432.913686 
L 874.547798 432.909876 
L 876.624287 433.004137 
L 935.804224 432.985703 
L 936.842469 433.112459 
L 956.569114 433.056863 
L 1028.207986 432.956817 
L 1042.743409 432.993291 
L 1042.743409 432.993291 
" style="fill:none;stroke:#ffa500;stroke-linecap:square;stroke-width:4;"/>
   </g>
   <g id="line2d_15">
    <path clip-path="url(#p3e5b7cc318)" d="M 109.361591 260.010675 
L 110.399835 263.75172 
L 111.43808 266.715067 
L 112.476324 268.122529 
L 113.514569 270.009457 
L 114.552813 270.663059 
L 115.591058 273.731637 
L 116.629303 272.35998 
L 117.667547 275.185705 
L 118.705792 278.746631 
L 119.744036 280.198374 
L 122.85877 280.204298 
L 123.897014 281.329481 
L 124.935259 281.331557 
L 125.973503 280.546652 
L 129.088237 285.727071 
L 130.126481 288.628284 
L 131.164726 289.74262 
L 134.279459 297.453852 
L 135.317704 297.455548 
L 136.355948 295.685166 
L 137.394193 296.472602 
L 138.432437 295.033187 
L 139.470682 295.031784 
L 140.508926 292.468991 
L 143.62366 297.004203 
L 144.661904 297.002612 
L 145.700149 297.494364 
L 146.738393 300.057735 
L 147.776638 299.271458 
L 148.814882 299.269166 
L 149.853127 297.818981 
L 150.891371 299.26901 
L 151.929616 301.044962 
L 152.967861 300.259588 
L 154.006105 301.37397 
L 155.04435 301.376529 
L 156.082594 300.59198 
L 157.120839 298.035134 
L 158.159083 296.586027 
L 159.197328 298.359022 
L 160.235572 295.800575 
L 161.273817 298.363987 
L 162.312061 298.366448 
L 163.350306 299.816381 
L 164.38855 298.044871 
L 165.426795 298.044505 
L 166.465039 299.49496 
L 168.541528 299.502249 
L 169.579773 296.940149 
L 170.618017 295.827408 
L 171.656262 293.266348 
L 172.694506 293.262057 
L 173.732751 292.476088 
L 175.80924 289.579386 
L 176.847484 289.578515 
L 177.885729 288.79228 
L 178.923973 289.904787 
L 179.962218 289.905227 
L 181.000462 288.792307 
L 182.038707 291.356755 
L 183.076951 290.24257 
L 184.115196 292.019833 
L 186.191685 297.143841 
L 187.229929 298.589771 
L 188.268174 297.475013 
L 189.306418 297.801478 
L 190.344663 299.252776 
L 192.421152 297.680333 
L 193.459397 299.133062 
L 194.497641 296.567139 
L 195.535886 294.795239 
L 196.57413 295.582882 
L 197.612375 294.469655 
L 199.688864 294.511374 
L 200.727108 295.29865 
L 203.841842 295.293864 
L 204.880086 297.065859 
L 205.918331 297.065263 
L 206.956575 295.951078 
L 207.99482 297.724862 
L 210.071309 300.622866 
L 211.109553 298.064933 
L 212.147798 298.064717 
L 213.186042 297.735099 
L 214.224287 296.946961 
L 215.262531 298.059046 
L 217.33902 298.057813 
L 218.377265 300.622563 
L 219.415509 298.058941 
L 220.453754 300.62287 
L 223.568487 300.62414 
L 225.644976 304.171895 
L 226.683221 305.285484 
L 228.75971 305.290307 
L 229.797955 304.963857 
L 231.874444 301.409523 
L 232.912688 303.973663 
L 233.950933 303.974855 
L 234.989177 301.412737 
L 236.027422 302.526193 
L 237.065666 302.525867 
L 238.103911 302.851217 
L 239.142155 304.630672 
L 240.1804 306.07619 
L 241.218644 303.517624 
L 242.256889 306.077822 
L 243.295133 307.524967 
L 244.333378 310.089414 
L 246.409867 307.196811 
L 247.448111 308.647074 
L 248.486356 307.535314 
L 249.5246 307.53514 
L 250.562845 304.971462 
L 251.601089 303.200182 
L 252.639334 304.649661 
L 254.715823 304.65585 
L 255.754067 302.884166 
L 256.792312 302.557816 
L 257.830556 301.77065 
L 258.868801 299.211282 
L 259.907045 298.884089 
L 261.983534 298.884337 
L 263.021779 299.670696 
L 264.060024 299.670925 
L 265.098268 298.885355 
L 266.136513 296.324061 
L 267.174757 296.323506 
L 268.213002 298.093884 
L 269.251246 298.42027 
L 270.289491 299.531512 
L 271.327735 300.976429 
L 272.36598 303.539373 
L 273.404224 305.314637 
L 274.442469 305.313807 
L 276.518958 308.214346 
L 277.557202 309.000238 
L 278.595447 310.446058 
L 279.633691 312.221762 
L 280.671936 310.776676 
L 281.71018 309.004047 
L 282.748425 309.005317 
L 283.786669 307.559424 
L 284.824914 308.672398 
L 285.863158 308.672838 
L 286.901403 309.787793 
L 287.939647 309.461655 
L 288.977892 308.673182 
L 290.016136 308.672472 
L 291.054381 307.22198 
L 292.092625 308.334523 
L 295.207359 308.333418 
L 296.245603 306.556192 
L 298.322092 306.557086 
L 299.360337 308.002462 
L 300.398582 305.442264 
L 301.436826 305.441553 
L 302.475071 305.766825 
L 303.513315 307.217088 
L 304.55156 306.429597 
L 306.628049 306.42994 
L 307.666293 308.206704 
L 308.704538 308.993654 
L 309.742782 310.439612 
L 310.781027 308.987832 
L 311.819271 309.772596 
L 312.857516 310.100678 
L 313.89576 308.650242 
L 314.934005 308.644593 
L 315.972249 307.531642 
L 317.010494 307.533425 
L 318.048738 305.761599 
L 319.086983 303.204212 
L 321.163472 306.754392 
L 322.201716 304.195817 
L 323.239961 304.200067 
L 324.278205 303.087478 
L 325.31645 301.636926 
L 326.354694 301.636679 
L 327.392939 300.185916 
L 329.469428 296.637483 
L 330.507672 296.636593 
L 331.545917 299.194444 
L 332.584161 297.416974 
L 333.622406 295.971232 
L 334.66065 297.422535 
L 335.698895 299.200124 
L 336.737139 299.199354 
L 337.775384 298.871606 
L 338.813629 300.647773 
L 339.851873 300.648057 
L 340.890118 299.860089 
L 341.928362 298.082345 
L 342.966607 298.082556 
L 344.004851 296.632985 
L 345.043096 296.628259 
L 346.08134 294.063444 
L 347.119585 292.618188 
L 348.157829 290.059132 
L 349.196074 291.831164 
L 350.234318 294.39436 
L 352.310807 296.621299 
L 353.349052 298.397797 
L 354.387296 299.847445 
L 355.425541 299.847945 
L 356.463785 298.398104 
L 357.50203 298.393066 
L 358.540274 299.504019 
L 359.578519 299.503808 
L 360.616763 298.052853 
L 361.655008 296.281458 
L 362.693252 297.726875 
L 363.731497 296.281151 
L 366.84623 296.275677 
L 367.884475 298.046595 
L 368.922719 296.269735 
L 369.960964 296.271908 
L 370.999208 294.821045 
L 373.075697 291.273845 
L 374.113942 288.711786 
L 376.190431 288.711098 
L 377.228676 289.498007 
L 378.26692 289.499548 
L 379.305165 289.826764 
L 380.343409 288.376065 
L 381.381654 287.590692 
L 382.419898 287.59198 
L 383.458143 287.267405 
L 384.496387 289.039689 
L 385.534632 289.034326 
L 386.572876 287.9207 
L 387.611121 289.365787 
L 388.649365 286.806245 
L 389.68761 286.018428 
L 390.725854 283.45277 
L 391.764099 283.452023 
L 392.802343 281.680724 
L 393.840588 279.123524 
L 394.878832 279.129117 
L 395.917077 276.567022 
L 396.955321 274.790102 
L 397.993566 274.790735 
L 399.03181 273.018107 
L 400.070055 275.580711 
L 401.108299 274.130834 
L 402.146544 276.69607 
L 403.184788 275.250575 
L 404.223033 276.696491 
L 406.299522 276.699073 
L 407.337766 277.026114 
L 408.376011 277.813083 
L 409.414255 279.591868 
L 411.490745 278.9385 
L 412.528989 278.938693 
L 413.567234 279.26556 
L 414.605478 281.832717 
L 415.643723 281.046835 
L 416.681967 279.269627 
L 417.720212 279.27499 
L 418.758456 280.725711 
L 419.796701 280.722791 
L 420.834945 279.272107 
L 422.911434 279.271089 
L 424.987923 275.724352 
L 426.026168 277.167802 
L 427.064412 279.72623 
L 428.102657 280.052364 
L 429.140901 282.614987 
L 430.179146 280.837261 
L 431.21739 280.842895 
L 433.293879 283.738785 
L 434.332124 282.952183 
L 435.370368 280.387795 
L 437.446857 280.387387 
L 438.485102 280.68695 
L 439.523346 280.684158 
L 440.561591 279.570569 
L 441.599835 279.568217 
L 442.63808 277.794759 
L 443.676324 277.791784 
L 444.714569 277.453822 
L 445.752813 279.231933 
L 446.791058 279.230512 
L 447.829303 281.00606 
L 448.867547 282.454457 
L 450.944036 286.00141 
L 451.982281 287.446671 
L 453.020525 288.230105 
L 454.05877 287.441096 
L 455.097014 284.876557 
L 457.173503 284.875251 
L 458.211748 285.203026 
L 459.249992 286.973018 
L 460.288237 289.535155 
L 461.326481 290.985092 
L 462.364726 290.199389 
L 463.40297 291.644801 
L 464.441215 294.206172 
L 465.479459 294.204632 
L 466.517704 292.753737 
L 467.555948 292.753732 
L 468.594193 294.202633 
L 469.632437 296.763523 
L 470.670682 294.203275 
L 471.708926 292.431664 
L 472.747171 292.430592 
L 473.785415 293.875798 
L 474.82366 293.875591 
L 475.861904 295.648875 
L 476.900149 298.211934 
L 477.938393 299.988408 
L 478.976638 298.542932 
L 481.053127 293.423678 
L 482.091371 293.4236 
L 483.129616 293.096155 
L 484.167861 293.100116 
L 485.206105 293.885856 
L 486.24435 294.208914 
L 487.282594 292.762461 
L 488.320839 290.990007 
L 489.359083 292.768379 
L 490.397328 292.768499 
L 491.435572 291.324063 
L 492.473817 293.095985 
L 493.512061 293.095522 
L 494.550306 295.660236 
L 495.58855 294.214832 
L 496.626795 296.773045 
L 497.665039 298.217962 
L 498.703284 298.217178 
L 499.741528 299.667592 
L 500.779773 299.672401 
L 501.818017 299.998962 
L 502.856262 301.769243 
L 503.894506 299.211525 
L 504.932751 299.214913 
L 505.970995 298.099715 
L 507.00924 299.870368 
L 508.047484 298.423585 
L 509.085729 298.749416 
L 510.123973 296.977168 
L 511.162218 296.977035 
L 512.200462 294.413821 
L 513.238707 292.639694 
L 514.276951 292.639409 
L 515.315196 293.753686 
L 516.35344 292.639831 
L 517.391685 292.312844 
L 518.429929 291.524853 
L 519.468174 289.753435 
L 520.506418 292.317305 
L 521.544663 294.088741 
L 523.621152 294.744553 
L 524.659397 297.261391 
L 525.697641 299.032497 
L 526.735886 300.479028 
L 527.77413 303.038185 
L 529.850619 302.936603 
L 530.888864 302.149982 
L 531.927108 302.149198 
L 532.965353 301.363128 
L 534.003597 303.927346 
L 535.041842 303.926521 
L 536.080086 302.473701 
L 537.118331 303.586909 
L 538.156575 304.373456 
L 539.19482 306.938807 
L 540.233064 306.933328 
L 541.271309 308.710018 
L 542.309553 306.963865 
L 543.347798 306.638676 
L 544.386042 306.965181 
L 545.424287 308.081635 
L 546.462531 309.528152 
L 547.500776 308.417044 
L 548.53902 308.755143 
L 549.577265 308.427831 
L 550.615509 309.215703 
L 551.653754 309.215914 
L 552.691998 310.331194 
L 553.730243 308.560368 
L 554.768487 309.34311 
L 555.806732 307.89248 
L 556.844976 307.891307 
L 557.883221 308.678083 
L 558.921466 311.242159 
L 559.95971 308.676359 
L 563.074444 303.357942 
L 564.112688 302.245605 
L 565.150933 300.798419 
L 566.189177 299.020601 
L 567.227422 297.568399 
L 568.265666 296.784658 
L 569.303911 298.557171 
L 570.342155 301.117947 
L 571.3804 302.889653 
L 572.418644 304.005356 
L 573.456889 301.448546 
L 574.495133 303.222307 
L 575.533378 304.667494 
L 578.648111 304.673894 
L 579.686356 305.459442 
L 580.7246 302.900665 
L 582.801089 302.896393 
L 583.839334 304.341021 
L 584.877578 306.118362 
L 585.915823 307.232185 
L 586.954067 305.780863 
L 587.992312 308.339672 
L 589.030556 305.780666 
L 590.068801 304.011215 
L 591.107045 305.782711 
L 592.14529 307.228375 
L 593.183534 307.227454 
L 594.221779 305.781207 
L 595.260024 307.226527 
L 597.336513 303.673381 
L 598.374757 301.1103 
L 599.413002 302.556721 
L 600.451246 301.770774 
L 601.489491 300.326494 
L 602.527735 302.098934 
L 603.56598 302.426783 
L 604.604224 303.872658 
L 605.642469 303.873791 
L 606.680713 302.102685 
L 607.718958 303.54933 
L 608.757202 305.312922 
L 609.795447 303.867941 
L 610.833691 302.092466 
L 611.871936 304.652508 
L 612.91018 304.327249 
L 614.986669 304.328001 
L 616.024914 306.892082 
L 617.063158 306.893251 
L 618.101403 305.443969 
L 619.139647 302.879756 
L 620.177892 301.435146 
L 621.216136 301.76144 
L 622.254381 299.984965 
L 623.292625 299.983682 
L 624.33087 299.197038 
L 625.369114 299.198982 
L 626.407359 297.4221 
L 627.445603 297.095154 
L 628.483848 294.58357 
L 629.522092 295.371084 
L 630.560337 293.925035 
L 631.598582 292.812931 
L 632.636826 292.915192 
L 633.675071 291.470738 
L 634.713315 291.470028 
L 635.75156 291.145118 
L 636.789804 291.932357 
L 637.828049 290.818997 
L 638.866293 292.266005 
L 639.904538 294.045881 
L 641.981027 288.923753 
L 643.019271 287.810219 
L 644.057516 290.375973 
L 645.09576 291.1644 
L 646.134005 291.160535 
L 647.172249 291.48842 
L 648.210494 289.712652 
L 649.248738 288.600892 
L 650.286983 288.929351 
L 651.325227 288.929273 
L 652.363472 287.159102 
L 653.401716 288.27192 
L 654.439961 287.159042 
L 655.478205 285.38259 
L 656.51645 285.382893 
L 657.554694 287.941729 
L 658.592939 285.387917 
L 659.631183 287.952727 
L 660.669428 287.957289 
L 661.707672 287.173281 
L 662.745917 284.615165 
L 664.822406 284.617228 
L 665.86065 286.062585 
L 666.898895 287.83564 
L 667.937139 287.835658 
L 668.975384 289.610574 
L 671.051873 294.743967 
L 673.128362 291.200305 
L 674.166607 288.645646 
L 675.204851 288.320378 
L 676.243096 285.756934 
L 677.28134 285.7582 
L 678.319585 286.543381 
L 679.357829 287.655856 
L 680.396074 289.427466 
L 681.434318 287.975879 
L 682.472563 289.753568 
L 683.510807 287.194448 
L 684.549052 288.639076 
L 685.587296 288.638576 
L 686.625541 290.088821 
L 687.663785 288.641309 
L 688.70203 289.427471 
L 689.740274 286.855949 
L 690.778519 288.307138 
L 691.816763 285.749998 
L 692.855008 285.750287 
L 693.893252 287.521856 
L 694.931497 285.745185 
L 695.969741 284.298672 
L 697.007986 285.085645 
L 698.04623 285.0798 
L 699.084475 285.40626 
L 701.160964 285.407548 
L 702.199208 286.856504 
L 703.237453 286.85533 
L 704.275697 285.08339 
L 705.313942 285.083271 
L 707.390431 281.537909 
L 708.428676 280.086647 
L 709.46692 278.314518 
L 710.505165 280.087165 
L 711.543409 278.639996 
L 712.581654 279.436212 
L 713.619898 281.203692 
L 714.658143 281.202862 
L 715.696387 280.416549 
L 716.734632 280.41571 
L 717.772876 281.862007 
L 718.811121 281.861122 
L 719.849365 279.29612 
L 722.964099 286.980349 
L 724.002343 286.975521 
L 725.040588 287.763393 
L 726.078832 287.763334 
L 727.117077 289.209383 
L 728.155321 287.431923 
L 730.23181 287.430117 
L 731.270055 288.544205 
L 732.308299 288.545741 
L 733.346544 285.982311 
L 734.384788 287.42942 
L 735.423033 287.429704 
L 736.461277 289.203694 
L 737.499522 291.762044 
L 738.537766 291.436827 
L 739.576011 291.436524 
L 740.614255 290.649785 
L 741.6525 289.199348 
L 742.690745 289.198252 
L 743.728989 287.424895 
L 744.767234 287.424569 
L 745.805478 289.195699 
L 746.843723 289.52324 
L 748.920212 287.294398 
L 750.996701 287.296998 
L 752.034945 288.746779 
L 753.07319 288.743185 
L 754.111434 286.925656 
L 755.149679 287.251983 
L 756.187923 289.809352 
L 757.226168 288.69684 
L 758.264412 289.021017 
L 759.302657 289.024859 
L 760.340901 287.911293 
L 761.379146 285.346267 
L 762.41739 287.903733 
L 763.455635 285.343654 
L 764.493879 284.555434 
L 765.532124 284.228314 
L 766.570368 285.673112 
L 767.608613 288.235015 
L 768.646857 288.239847 
L 769.685102 286.794128 
L 770.723346 287.580757 
L 771.761591 287.907391 
L 772.799835 287.907341 
L 774.876324 286.331496 
L 775.914569 288.889883 
L 776.952813 290.334777 
L 777.991058 290.334199 
L 779.029303 291.44738 
L 780.067547 291.445822 
L 781.105792 293.216896 
L 782.144036 290.659009 
L 783.182281 290.660063 
L 784.220525 290.333814 
L 785.25877 292.111614 
L 786.297014 290.334383 
L 787.335259 291.780244 
L 788.373503 292.107598 
L 789.411748 290.33143 
L 790.449992 290.659105 
L 791.488237 290.654589 
L 792.526481 289.540982 
L 793.564726 289.552572 
L 794.60297 289.877747 
L 795.641215 289.870522 
L 796.679459 291.316572 
L 797.717704 292.102793 
L 799.794193 294.997955 
L 800.832437 294.211811 
L 801.870682 295.990344 
L 804.985415 296.001081 
L 807.061904 296.656164 
L 808.100149 298.426619 
L 809.138393 299.87177 
L 810.176638 302.428695 
L 811.214882 304.201346 
L 812.253127 306.766197 
L 813.291371 308.204632 
L 814.329616 308.991142 
L 816.406105 308.987342 
L 817.44435 309.778849 
L 818.482594 311.555672 
L 819.520839 309.782214 
L 820.559083 309.782828 
L 821.597328 310.893841 
L 822.635572 311.680732 
L 823.673817 313.45888 
L 824.712061 313.461186 
L 825.750306 310.895262 
L 826.78855 309.779459 
L 827.826795 312.342018 
L 828.865039 309.782397 
L 829.903284 311.558547 
L 830.941528 311.885222 
L 831.979773 311.889765 
L 833.018017 311.562164 
L 834.056262 313.014499 
L 835.094506 310.449496 
L 836.132751 310.44896 
L 837.170995 312.225971 
L 839.247484 309.335655 
L 840.285729 307.558085 
L 841.323973 306.771575 
L 842.362218 307.098002 
L 843.400462 308.211261 
L 844.438707 308.999156 
L 845.476951 308.999541 
L 846.515196 309.326913 
L 847.55344 309.327605 
L 848.591685 310.779559 
L 849.629929 309.009104 
L 850.668174 309.79517 
L 851.706418 308.345888 
L 852.744663 308.346425 
L 853.782908 310.906576 
L 854.821152 310.580071 
L 855.859397 310.906824 
L 856.897641 312.022701 
L 860.012375 312.063236 
L 861.050619 310.613533 
L 862.088864 310.289838 
L 863.127108 312.848789 
L 864.165353 311.402606 
L 865.203597 311.408914 
L 866.241842 308.847373 
L 867.280086 311.406205 
L 868.318331 311.405994 
L 870.39482 308.514972 
L 873.509553 308.513143 
L 874.547798 307.727073 
L 875.586042 307.400939 
L 876.624287 305.627916 
L 877.662531 305.62815 
L 878.700776 305.302048 
L 879.73902 304.19021 
L 880.777265 302.745298 
L 881.815509 304.518371 
L 882.853754 301.954368 
L 883.891998 301.960635 
L 884.930243 300.190102 
L 885.968487 301.636536 
L 887.006732 299.0723 
L 888.044976 299.071951 
L 889.083221 299.859516 
L 890.121466 301.310778 
L 891.15971 302.42423 
L 892.197955 300.647503 
L 893.236199 302.424784 
L 894.274444 300.653192 
L 895.312688 302.105376 
L 896.350933 302.105816 
L 897.389177 304.666013 
L 898.427422 302.89046 
L 899.465666 305.456288 
L 900.503911 305.4556 
L 901.542155 302.897484 
L 902.5804 301.453818 
L 903.618644 302.568581 
L 904.656889 300.795911 
L 905.695133 300.470332 
L 906.733378 298.698263 
L 908.809867 301.589555 
L 910.886356 298.039003 
L 911.9246 298.040965 
L 912.962845 296.59482 
L 914.001089 295.481941 
L 915.039334 293.704641 
L 916.077578 291.146177 
L 917.115823 291.479485 
L 918.154067 288.915923 
L 919.192312 288.916303 
L 920.230556 288.130412 
L 921.268801 285.57235 
L 922.307045 286.359975 
L 923.34529 286.355954 
L 924.383534 287.468269 
L 925.421779 286.356775 
L 926.460024 286.357719 
L 927.498268 284.586342 
L 928.536513 282.021835 
L 929.574757 282.028868 
L 930.613002 283.145327 
L 931.651246 280.583364 
L 932.689491 283.14325 
L 933.727735 283.143754 
L 934.76598 283.930608 
L 935.804224 285.376942 
L 936.842469 285.704447 
L 938.918958 285.709261 
L 939.957202 288.267207 
L 940.995447 286.489119 
L 942.033691 286.483315 
L 943.071936 287.928617 
L 944.11018 287.932963 
L 946.186669 284.37934 
L 947.224914 284.379899 
L 948.263158 283.264674 
L 949.301403 283.270771 
L 950.339647 281.494141 
L 951.377892 283.266943 
L 954.492625 283.257041 
L 955.53087 285.033094 
L 956.569114 283.579851 
L 957.607359 283.578797 
L 958.645603 282.126246 
L 959.683848 280.347136 
L 960.722092 277.785691 
L 961.760337 280.337985 
L 962.798582 281.123684 
L 963.836826 280.008614 
L 964.875071 282.571251 
L 965.913315 281.120067 
L 966.95156 278.555601 
L 967.989804 278.551484 
L 969.028049 280.324168 
L 970.066293 280.322531 
L 971.104538 279.538019 
L 976.29576 279.52527 
L 977.334005 282.071462 
L 978.372249 282.070962 
L 979.410494 283.183185 
L 980.448738 284.628547 
L 981.486983 284.301904 
L 982.525227 284.301886 
L 983.563472 284.62785 
L 984.601716 284.623027 
L 985.639961 282.850917 
L 987.71645 282.845915 
L 988.754694 284.291429 
L 989.792939 284.617663 
L 990.831183 287.182712 
L 991.869428 287.511197 
L 992.907672 286.398324 
L 993.945917 287.509533 
L 994.984161 284.944526 
L 996.022406 287.495647 
L 997.06065 288.281273 
L 998.098895 290.052846 
L 1000.175384 287.160477 
L 1002.251873 287.162897 
L 1003.290118 284.604126 
L 1004.328362 284.604511 
L 1005.366607 286.048768 
L 1006.404851 286.043495 
L 1007.443096 283.481895 
L 1008.48134 283.482431 
L 1009.519585 284.594847 
L 1010.557829 287.154329 
L 1012.634318 289.378353 
L 1013.672563 291.150275 
L 1014.710807 291.155025 
L 1015.749052 290.827176 
L 1016.787296 290.821409 
L 1017.825541 291.935002 
L 1019.90203 291.927286 
L 1020.940274 292.7147 
L 1021.978519 295.27851 
L 1023.016763 296.726389 
L 1024.055008 294.953719 
L 1025.093252 296.399503 
L 1026.131497 296.398889 
L 1027.169741 298.963066 
L 1028.207986 297.849481 
L 1029.24623 298.819068 
L 1030.284475 296.259622 
L 1032.360964 296.259526 
L 1033.399208 298.819205 
L 1034.437453 296.256335 
L 1035.475697 296.260126 
L 1036.513942 295.47341 
L 1037.552187 293.701446 
L 1038.590431 291.138906 
L 1039.628676 292.251399 
L 1040.66692 290.479655 
L 1041.705165 289.030204 
L 1042.743409 291.588839 
L 1042.743409 291.588839 
" style="fill:none;stroke:#008000;stroke-linecap:square;stroke-width:4;"/>
   </g>
   <g id="patch_3">
    <path d="M 62.6925 471.411 
L 62.6925 27.891 
" style="fill:none;stroke:#000000;stroke-linecap:square;stroke-linejoin:miter;stroke-width:0.8;"/>
   </g>
   <g id="patch_4">
    <path d="M 1089.4125 471.411 
L 1089.4125 27.891 
" style="fill:none;stroke:#000000;stroke-linecap:square;stroke-linejoin:miter;stroke-width:0.8;"/>
   </g>
   <g id="patch_5">
    <path d="M 62.6925 471.411 
L 1089.4125 471.411 
" style="fill:none;stroke:#000000;stroke-linecap:square;stroke-linejoin:miter;stroke-width:0.8;"/>
   </g>
   <g id="patch_6">
    <path d="M 62.6925 27.891 
L 1089.4125 27.891 
" style="fill:none;stroke:#000000;stroke-linecap:square;stroke-linejoin:miter;stroke-width:0.8;"/>
   </g>
   <g id="text_13">
    <!-- cz_zone_from_taiwan, sliding window = 100 queries -->
    <g transform="translate(292.857 21.891)scale(0.192 -0.192)">
     <defs>
      <path d="M 3316 178 
Q 3084 44 2839 -23 
Q 2594 -91 2338 -91 
Q 1525 -91 1067 396 
Q 609 884 609 1747 
Q 609 2609 1067 3096 
Q 1525 3584 2338 3584 
Q 2591 3584 2831 3518 
Q 3072 3453 3316 3316 
L 3316 2713 
Q 3088 2916 2858 3006 
Q 2628 3097 2338 3097 
Q 1797 3097 1506 2747 
Q 1216 2397 1216 1747 
Q 1216 1100 1508 748 
Q 1800 397 2338 397 
Q 2638 397 2875 489 
Q 3113 581 3316 775 
L 3316 178 
z
" id="DejaVuSansMono-63" transform="scale(0.015625)"/>
      <path d="M 709 3506 
L 3250 3506 
L 3250 2981 
L 1241 469 
L 3250 469 
L 3250 0 
L 634 0 
L 634 531 
L 2644 3047 
L 709 3047 
L 709 3506 
z
" id="DejaVuSansMono-7a" transform="scale(0.015625)"/>
      <path d="M 3853 -1259 
L 3853 -1509 
L 0 -1509 
L 0 -1259 
L 3853 -1259 
z
" id="DejaVuSansMono-5f" transform="scale(0.015625)"/>
      <path d="M 3322 4863 
L 3322 4384 
L 2669 4384 
Q 2359 4384 2239 4257 
Q 2119 4131 2119 3809 
L 2119 3500 
L 3322 3500 
L 3322 3053 
L 2119 3053 
L 2119 0 
L 1544 0 
L 1544 3053 
L 609 3053 
L 609 3500 
L 1544 3500 
L 1544 3744 
Q 1544 4319 1808 4591 
Q 2072 4863 2631 4863 
L 3322 4863 
z
" id="DejaVuSansMono-66" transform="scale(0.015625)"/>
      <path d="M 1569 947 
L 2356 947 
L 2356 300 
L 1741 -897 
L 1259 -897 
L 1569 300 
L 1569 947 
z
" id="DejaVuSansMono-2c" transform="scale(0.015625)"/>
      <path d="M 275 1638 
L 3578 1638 
L 3578 1100 
L 275 1100 
L 275 1638 
z
M 275 2906 
L 3578 2906 
L 3578 2375 
L 275 2375 
L 275 2906 
z
" id="DejaVuSansMono-3d" transform="scale(0.015625)"/>
     </defs>
     <use xlink:href="#DejaVuSansMono-63"/>
     <use x="60.205078" xlink:href="#DejaVuSansMono-7a"/>
     <use x="120.410156" xlink:href="#DejaVuSansMono-5f"/>
     <use x="180.615234" xlink:href="#DejaVuSansMono-7a"/>
     <use x="240.820312" xlink:href="#DejaVuSansMono-6f"/>
     <use x="301.025391" xlink:href="#DejaVuSansMono-6e"/>
     <use x="361.230469" xlink:href="#DejaVuSansMono-65"/>
     <use x="421.435547" xlink:href="#DejaVuSansMono-5f"/>
     <use x="481.640625" xlink:href="#DejaVuSansMono-66"/>
     <use x="541.845703" xlink:href="#DejaVuSansMono-72"/>
     <use x="602.050781" xlink:href="#DejaVuSansMono-6f"/>
     <use x="662.255859" xlink:href="#DejaVuSansMono-6d"/>
     <use x="722.460938" xlink:href="#DejaVuSansMono-5f"/>
     <use x="782.666016" xlink:href="#DejaVuSansMono-74"/>
     <use x="842.871094" xlink:href="#DejaVuSansMono-61"/>
     <use x="903.076172" xlink:href="#DejaVuSansMono-69"/>
     <use x="963.28125" xlink:href="#DejaVuSansMono-77"/>
     <use x="1023.486328" xlink:href="#DejaVuSansMono-61"/>
     <use x="1083.691406" xlink:href="#DejaVuSansMono-6e"/>
     <use x="1143.896484" xlink:href="#DejaVuSansMono-2c"/>
     <use x="1204.101562" xlink:href="#DejaVuSansMono-20"/>
     <use x="1264.306641" xlink:href="#DejaVuSansMono-73"/>
     <use x="1324.511719" xlink:href="#DejaVuSansMono-6c"/>
     <use x="1384.716797" xlink:href="#DejaVuSansMono-69"/>
     <use x="1444.921875" xlink:href="#DejaVuSansMono-64"/>
     <use x="1505.126953" xlink:href="#DejaVuSansMono-69"/>
     <use x="1565.332031" xlink:href="#DejaVuSansMono-6e"/>
     <use x="1625.537109" xlink:href="#DejaVuSansMono-67"/>
     <use x="1685.742188" xlink:href="#DejaVuSansMono-20"/>
     <use x="1745.947266" xlink:href="#DejaVuSansMono-77"/>
     <use x="1806.152344" xlink:href="#DejaVuSansMono-69"/>
     <use x="1866.357422" xlink:href="#DejaVuSansMono-6e"/>
     <use x="1926.5625" xlink:href="#DejaVuSansMono-64"/>
     <use x="1986.767578" xlink:href="#DejaVuSansMono-6f"/>
     <use x="2046.972656" xlink:href="#DejaVuSansMono-77"/>
     <use x="2107.177734" xlink:href="#DejaVuSansMono-20"/>
     <use x="2167.382812" xlink:href="#DejaVuSansMono-3d"/>
     <use x="2227.587891" xlink:href="#DejaVuSansMono-20"/>
     <use x="2287.792969" xlink:href="#DejaVuSansMono-31"/>
     <use x="2347.998047" xlink:href="#DejaVuSansMono-30"/>
     <use x="2408.203125" xlink:href="#DejaVuSansMono-30"/>
     <use x="2468.408203" xlink:href="#DejaVuSansMono-20"/>
     <use x="2528.613281" xlink:href="#DejaVuSansMono-71"/>
     <use x="2588.818359" xlink:href="#DejaVuSansMono-75"/>
     <use x="2649.023438" xlink:href="#DejaVuSansMono-65"/>
     <use x="2709.228516" xlink:href="#DejaVuSansMono-72"/>
     <use x="2769.433594" xlink:href="#DejaVuSansMono-69"/>
     <use x="2829.638672" xlink:href="#DejaVuSansMono-65"/>
     <use x="2889.84375" xlink:href="#DejaVuSansMono-73"/>
    </g>
   </g>
   <g id="legend_1">
    <g id="patch_7">
     <path d="M 921.055 158.541 
L 1078.2125 158.541 
Q 1081.4125 158.541 1081.4125 155.341 
L 1081.4125 39.091 
Q 1081.4125 35.891 1078.2125 35.891 
L 921.055 35.891 
Q 917.855 35.891 917.855 39.091 
L 917.855 155.341 
Q 917.855 158.541 921.055 158.541 
z
" style="fill:#ffffff;opacity:0.8;stroke:#cccccc;stroke-linejoin:miter;"/>
    </g>
    <g id="line2d_16">
     <path d="M 924.255 48.9335 
L 956.255 48.9335 
" style="fill:none;stroke:#1f77b4;stroke-linecap:square;stroke-width:4;"/>
    </g>
    <g id="line2d_17"/>
    <g id="text_14">
     <!-- kresd-5.4.2 -->
     <g transform="translate(969.055 54.5335)scale(0.16 -0.16)">
      <defs>
       <path d="M 738 4863 
L 1331 4863 
L 1331 2047 
L 2841 3500 
L 3541 3500 
L 2163 2181 
L 3756 0 
L 3053 0 
L 1759 1806 
L 1331 1403 
L 1331 0 
L 738 0 
L 738 4863 
z
" id="DejaVuSansMono-6b" transform="scale(0.015625)"/>
       <path d="M 1113 2009 
L 2741 2009 
L 2741 1497 
L 1113 1497 
L 1113 2009 
z
" id="DejaVuSansMono-2d" transform="scale(0.015625)"/>
       <path d="M 1528 953 
L 2316 953 
L 2316 0 
L 1528 0 
L 1528 953 
z
" id="DejaVuSansMono-2e" transform="scale(0.015625)"/>
      </defs>
      <use xlink:href="#DejaVuSansMono-6b"/>
      <use x="60.205078" xlink:href="#DejaVuSansMono-72"/>
      <use x="120.410156" xlink:href="#DejaVuSansMono-65"/>
      <use x="180.615234" xlink:href="#DejaVuSansMono-73"/>
      <use x="240.820312" xlink:href="#DejaVuSansMono-64"/>
      <use x="301.025391" xlink:href="#DejaVuSansMono-2d"/>
      <use x="361.230469" xlink:href="#DejaVuSansMono-35"/>
      <use x="421.435547" xlink:href="#DejaVuSansMono-2e"/>
      <use x="481.640625" xlink:href="#DejaVuSansMono-34"/>
      <use x="541.845703" xlink:href="#DejaVuSansMono-2e"/>
      <use x="602.050781" xlink:href="#DejaVuSansMono-32"/>
     </g>
    </g>
    <g id="line2d_18">
     <path d="M 924.255 72.5035 
L 956.255 72.5035 
" style="fill:none;stroke:#808080;stroke-linecap:square;stroke-width:4;"/>
    </g>
    <g id="line2d_19"/>
    <g id="text_15">
     <!-- kresd-5.2.1 -->
     <g transform="translate(969.055 78.1035)scale(0.16 -0.16)">
      <use xlink:href="#DejaVuSansMono-6b"/>
      <use x="60.205078" xlink:href="#DejaVuSansMono-72"/>
      <use x="120.410156" xlink:href="#DejaVuSansMono-65"/>
      <use x="180.615234" xlink:href="#DejaVuSansMono-73"/>
      <use x="240.820312" xlink:href="#DejaVuSansMono-64"/>
      <use x="301.025391" xlink:href="#DejaVuSansMono-2d"/>
      <use x="361.230469" xlink:href="#DejaVuSansMono-35"/>
      <use x="421.435547" xlink:href="#DejaVuSansMono-2e"/>
      <use x="481.640625" xlink:href="#DejaVuSansMono-32"/>
      <use x="541.845703" xlink:href="#DejaVuSansMono-2e"/>
      <use x="602.050781" xlink:href="#DejaVuSansMono-31"/>
     </g>
    </g>
    <g id="line2d_20">
     <path d="M 924.255 96.0735 
L 956.255 96.0735 
" style="fill:none;stroke:#000000;stroke-linecap:square;stroke-width:4;"/>
    </g>
    <g id="line2d_21"/>
    <g id="text_16">
     <!-- bind -->
     <g transform="translate(969.055 101.6735)scale(0.16 -0.16)">
      <use xlink:href="#DejaVuSansMono-62"/>
      <use x="60.205078" xlink:href="#DejaVuSansMono-69"/>
      <use x="120.410156" xlink:href="#DejaVuSansMono-6e"/>
      <use x="180.615234" xlink:href="#DejaVuSansMono-64"/>
     </g>
    </g>
    <g id="line2d_22">
     <path d="M 924.255 119.6435 
L 956.255 119.6435 
" style="fill:none;stroke:#ffa500;stroke-linecap:square;stroke-width:4;"/>
    </g>
    <g id="line2d_23"/>
    <g id="text_17">
     <!-- pdns -->
     <g transform="translate(969.055 125.2435)scale(0.16 -0.16)">
      <use xlink:href="#DejaVuSansMono-70"/>
      <use x="60.205078" xlink:href="#DejaVuSansMono-64"/>
      <use x="120.410156" xlink:href="#DejaVuSansMono-6e"/>
      <use x="180.615234" xlink:href="#DejaVuSansMono-73"/>
     </g>
    </g>
    <g id="line2d_24">
     <path d="M 924.255 143.2135 
L 956.255 143.2135 
" style="fill:none;stroke:#008000;stroke-linecap:square;stroke-width:4;"/>
    </g>
    <g id="line2d_25"/>
    <g id="text_18">
     <!-- unbound -->
     <g transform="translate(969.055 148.8135)scale(0.16 -0.16)">
      <use xlink:href="#DejaVuSansMono-75"/>
      <use x="60.205078" xlink:href="#DejaVuSansMono-6e"/>
      <use x="120.410156" xlink:href="#DejaVuSansMono-62"/>
      <use x="180.615234" xlink:href="#DejaVuSansMono-6f"/>
      <use x="240.820312" xlink:href="#DejaVuSansMono-75"/>
      <use x="301.025391" xlink:href="#DejaVuSansMono-6e"/>
      <use x="361.230469" xlink:href="#DejaVuSansMono-64"/>
     </g>
    </g>
   </g>
  </g>
 </g>
 <defs>
  <clipPath id="p3e5b7cc318">
   <rect height="443.52" width="1026.72" x="62.6925" y="27.891"/>
  </clipPath>
 </defs>
</svg>
